<?xml version="1.0" encoding="UTF-8" standalone="no"?>
<!-- Created with Inkscape (http://www.inkscape.org/) -->

<svg
   xmlns:dc="http://purl.org/dc/elements/1.1/"
   xmlns:cc="http://creativecommons.org/ns#"
   xmlns:rdf="http://www.w3.org/1999/02/22-rdf-syntax-ns#"
   xmlns:svg="http://www.w3.org/2000/svg"
   xmlns="http://www.w3.org/2000/svg"
   xmlns:sodipodi="http://sodipodi.sourceforge.net/DTD/sodipodi-0.dtd"
   xmlns:inkscape="http://www.inkscape.org/namespaces/inkscape"
   width="162.24907mm"
   height="162.24907mm"
   viewBox="0 0 574.89828 574.89827"
   id="svg4712"
   version="1.1"
   inkscape:version="0.91 r13725"
   sodipodi:docname="boutique Hotel.svg">
  <defs
     id="defs4714">
    <clipPath
       id="clipPath4666"
       clipPathUnits="userSpaceOnUse">
      <circle
         style="color:#000000;clip-rule:nonzero;display:inline;overflow:visible;visibility:visible;opacity:1;isolation:auto;mix-blend-mode:normal;color-interpolation:sRGB;color-interpolation-filters:linearRGB;solid-color:#000000;solid-opacity:1;fill:#3975be;fill-opacity:1;fill-rule:evenodd;stroke:none;stroke-width:0.5;stroke-linecap:butt;stroke-linejoin:miter;stroke-miterlimit:4;stroke-dasharray:none;stroke-dashoffset:0;stroke-opacity:1;color-rendering:auto;image-rendering:auto;shape-rendering:auto;text-rendering:auto;enable-background:accumulate"
         id="circle4668"
         cx="-503.17691"
         cy="962.52209"
         r="291.92392" />
    </clipPath>
    <clipPath
       id="clipPath4666-6"
       clipPathUnits="userSpaceOnUse">
      <circle
         style="color:#000000;clip-rule:nonzero;display:inline;overflow:visible;visibility:visible;opacity:1;isolation:auto;mix-blend-mode:normal;color-interpolation:sRGB;color-interpolation-filters:linearRGB;solid-color:#000000;solid-opacity:1;fill:#3975be;fill-opacity:1;fill-rule:evenodd;stroke:none;stroke-width:0.5;stroke-linecap:butt;stroke-linejoin:miter;stroke-miterlimit:4;stroke-dasharray:none;stroke-dashoffset:0;stroke-opacity:1;color-rendering:auto;image-rendering:auto;shape-rendering:auto;text-rendering:auto;enable-background:accumulate"
         id="circle4668-7"
         cx="-503.17691"
         cy="962.52209"
         r="291.92392" />
    </clipPath>
    <filter
       height="1.444"
       y="-0.222"
       width="1.444"
       x="-0.222"
       id="filter4658"
       style="color-interpolation-filters:sRGB"
       inkscape:collect="always">
      <feGaussianBlur
         id="feGaussianBlur4660"
         stdDeviation="47.042858"
         inkscape:collect="always" />
    </filter>
    <filter
       height="1.1248"
       y="-0.062399998"
       width="1.1248"
       x="-0.062399998"
       id="filter4617"
       style="color-interpolation-filters:sRGB"
       inkscape:collect="always">
      <feGaussianBlur
         id="feGaussianBlur4619"
         stdDeviation="13.222857"
         inkscape:collect="always" />
    </filter>
    <filter
       inkscape:collect="always"
       style="color-interpolation-filters:sRGB"
       id="filter6357"
       x="-0.093593054"
       width="1.1871861"
       y="-0.093606949"
       height="1.1872139">
      <feGaussianBlur
         inkscape:collect="always"
         stdDeviation="19.966518"
         id="feGaussianBlur6359" />
    </filter>
  </defs>
  <sodipodi:namedview
     id="base"
     pagecolor="#ffffff"
     bordercolor="#666666"
     borderopacity="1.0"
     inkscape:pageopacity="0.0"
     inkscape:pageshadow="2"
     inkscape:zoom="0.35"
     inkscape:cx="218.46966"
     inkscape:cy="-33.673171"
     inkscape:document-units="px"
     inkscape:current-layer="layer1"
     showgrid="false"
     fit-margin-top="0"
     fit-margin-left="0"
     fit-margin-right="0"
     fit-margin-bottom="0"
     inkscape:window-width="1280"
     inkscape:window-height="961"
     inkscape:window-x="-8"
     inkscape:window-y="3"
     inkscape:window-maximized="1" />
  <metadata
     id="metadata4717">
    <rdf:RDF>
      <cc:Work
         rdf:about="">
        <dc:format>image/svg+xml</dc:format>
        <dc:type
           rdf:resource="http://purl.org/dc/dcmitype/StillImage" />
        <dc:title></dc:title>
      </cc:Work>
    </rdf:RDF>
  </metadata>
  <g
     inkscape:label="Layer 1"
     inkscape:groupmode="layer"
     id="layer1"
     transform="translate(-339.38749,16.209205)">
    <g
       transform="translate(3001.8156,-266.6047)"
       id="g8667">
      <g
         transform="translate(4.68212,0)"
         id="g5855">
        <g
           id="g5851">
          <circle
             r="254.28572"
             cy="537.8446"
             cx="-2379.6611"
             id="circle5611"
             style="color:#000000;clip-rule:nonzero;display:inline;overflow:visible;visibility:visible;opacity:1;isolation:auto;mix-blend-mode:normal;color-interpolation:sRGB;color-interpolation-filters:linearRGB;solid-color:#000000;solid-opacity:1;fill:#ff6600;fill-opacity:1;fill-rule:evenodd;stroke:none;stroke-width:0.5;stroke-linecap:butt;stroke-linejoin:miter;stroke-miterlimit:4;stroke-dasharray:none;stroke-dashoffset:0;stroke-opacity:1;color-rendering:auto;image-rendering:auto;shape-rendering:auto;text-rendering:auto;enable-background:accumulate" />
          <circle
             transform="matrix(0.87106845,0,0,0.87106845,-1941.3596,-300.57802)"
             clip-path="url(#clipPath4666-6)"
             style="color:#000000;clip-rule:nonzero;display:inline;overflow:visible;visibility:visible;opacity:1;isolation:auto;mix-blend-mode:normal;color-interpolation:sRGB;color-interpolation-filters:linearRGB;solid-color:#000000;solid-opacity:1;fill:none;fill-opacity:1;fill-rule:evenodd;stroke:#aa4400;stroke-width:100;stroke-linecap:butt;stroke-linejoin:miter;stroke-miterlimit:4;stroke-dasharray:none;stroke-dashoffset:0;stroke-opacity:1;filter:url(#filter4658);color-rendering:auto;image-rendering:auto;shape-rendering:auto;text-rendering:auto;enable-background:accumulate"
             id="circle5613"
             cx="-522.85718"
             cy="972.36224"
             r="254.28572" />
        </g>
        <circle
           style="color:#000000;clip-rule:nonzero;display:inline;overflow:visible;visibility:visible;opacity:0.34299999;isolation:auto;mix-blend-mode:normal;color-interpolation:sRGB;color-interpolation-filters:linearRGB;solid-color:#000000;solid-opacity:1;fill:none;fill-opacity:1;fill-rule:evenodd;stroke:#1a1a1a;stroke-width:50;stroke-linecap:butt;stroke-linejoin:miter;stroke-miterlimit:3.5999999;stroke-dasharray:none;stroke-dashoffset:0;stroke-opacity:1;filter:url(#filter4617);color-rendering:auto;image-rendering:auto;shape-rendering:auto;text-rendering:auto;enable-background:accumulate"
           id="circle5615"
           cx="-537.14288"
           cy="-7.6377606"
           r="254.28572"
           transform="matrix(1.0049946,0,0,1.0049946,-1839.8354,545.52054)" />
        <circle
           r="252.94913"
           cy="537.84467"
           cx="-2379.6611"
           id="circle5617"
           style="color:#000000;clip-rule:nonzero;display:inline;overflow:visible;visibility:visible;opacity:1;isolation:auto;mix-blend-mode:normal;color-interpolation:sRGB;color-interpolation-filters:linearRGB;solid-color:#000000;solid-opacity:1;fill:none;fill-opacity:1;fill-rule:evenodd;stroke:#ffffff;stroke-width:34.81603241;stroke-linecap:butt;stroke-linejoin:miter;stroke-miterlimit:4;stroke-dasharray:none;stroke-dashoffset:0;stroke-opacity:1;color-rendering:auto;image-rendering:auto;shape-rendering:auto;text-rendering:auto;enable-background:accumulate" />
      </g>
      <g
         transform="matrix(0.56126517,0,0,0.56126517,-1169.0607,-270.90122)"
         id="g6361">
        <g
           transform="translate(-2404.5714,1184.9346)"
           id="g6245"
           style="filter:url(#filter6357)">
          <g
             id="g6247">
            <g
               id="g6249">
              <path
                 inkscape:connector-curvature="0"
                 d="m 145.046,230.404 -59.725,0 c -4.712,0 -8.532,3.82 -8.532,8.532 l 0,85.321 c 0,4.712 3.82,8.532 8.532,8.532 l 59.725,0 c 4.712,0 8.532,-3.82 8.532,-8.532 l 0,-85.321 c 0,-4.712 -3.82,-8.532 -8.532,-8.532 z m -8.532,85.321 -42.661,0 0,-68.257 42.661,0 0,68.257 z"
                 id="path6251" />
            </g>
          </g>
          <g
             id="g6253">
            <g
               id="g6255">
              <path
                 inkscape:connector-curvature="0"
                 d="m 290.091,230.404 -59.725,0 c -4.712,0 -8.532,3.82 -8.532,8.532 l 0,85.321 c 0,4.712 3.82,8.532 8.532,8.532 l 59.725,0 c 4.712,0 8.532,-3.82 8.532,-8.532 l 0,-85.321 c 0,-4.712 -3.82,-8.532 -8.532,-8.532 z m -8.532,85.321 -42.66,0 0,-68.257 42.66,0 0,68.257 z"
                 id="path6257" />
            </g>
          </g>
          <g
             id="g6259">
            <g
               id="g6261">
              <path
                 inkscape:connector-curvature="0"
                 d="m 290.091,366.917 -59.725,0 c -4.712,0 -8.532,3.82 -8.532,8.532 l 0,85.321 c 0,4.712 3.82,8.532 8.532,8.532 l 59.725,0 c 4.712,0 8.532,-3.82 8.532,-8.532 l 0,-85.321 c 0,-4.711 -3.82,-8.532 -8.532,-8.532 z m -8.532,85.321 -42.66,0 0,-68.257 42.66,0 0,68.257 z"
                 id="path6263" />
            </g>
          </g>
          <g
             id="g6265">
            <g
               id="g6267">
              <path
                 inkscape:connector-curvature="0"
                 d="m 426.605,230.404 -59.725,0 c -4.712,0 -8.532,3.82 -8.532,8.532 l 0,85.321 c 0,4.712 3.82,8.532 8.532,8.532 l 59.725,0 c 4.712,0 8.532,-3.82 8.532,-8.532 l 0,-85.321 c 0,-4.712 -3.82,-8.532 -8.532,-8.532 z m -8.532,85.321 -42.66,0 0,-68.257 42.66,0 0,68.257 z"
                 id="path6269" />
            </g>
          </g>
          <g
             id="g6271">
            <g
               id="g6273">
              <path
                 inkscape:connector-curvature="0"
                 d="m 145.046,366.917 -59.725,0 c -4.712,0 -8.532,3.82 -8.532,8.532 l 0,85.321 c 0,4.712 3.82,8.532 8.532,8.532 l 59.725,0 c 4.712,0 8.532,-3.82 8.532,-8.532 l 0,-85.321 c 0,-4.711 -3.82,-8.532 -8.532,-8.532 z m -8.532,85.321 -42.661,0 0,-68.257 42.661,0 0,68.257 z"
                 id="path6275" />
            </g>
          </g>
          <g
             id="g6277">
            <g
               id="g6279">
              <path
                 inkscape:connector-curvature="0"
                 d="m 426.605,366.917 -59.725,0 c -4.712,0 -8.532,3.82 -8.532,8.532 l 0,85.321 c 0,4.712 3.82,8.532 8.532,8.532 l 59.725,0 c 4.712,0 8.532,-3.82 8.532,-8.532 l 0,-85.321 c 0,-4.711 -3.82,-8.532 -8.532,-8.532 z m -8.532,85.321 -42.66,0 0,-68.257 42.66,0 0,68.257 z"
                 id="path6281" />
            </g>
          </g>
          <g
             id="g6283">
            <g
               id="g6285">
              <path
                 inkscape:connector-curvature="0"
                 d="m 477.798,494.899 0,-290.092 8.532,0 c 4.712,0 8.532,-3.82 8.532,-8.532 l 0,-42.66 c 0,-4.712 -3.82,-8.532 -8.532,-8.532 l -8.532,0 0,-34.128 c 0,-4.712 -3.82,-8.532 -8.532,-8.532 l -17.064,0 0,-93.854 c 0,-4.712 -3.82,-8.532 -8.532,-8.532 l -375.413,0 c -4.712,0 -8.532,3.82 -8.532,8.532 l 0,93.853 -17.064,0 c -4.712,0 -8.532,3.82 -8.532,8.532 l 0,34.128 -8.532,0 c -4.712,0 -8.532,3.82 -8.532,8.532 l 0,42.66 c 0,4.712 3.82,8.532 8.532,8.532 l 8.532,0 0,290.091 -34.129,0 0,17.064 42.661,0 426.605,0 42.734,0 0,-17.064 -34.202,0 z M 76.789,17.101 l 358.348,0 0,85.321 -358.348,0 0,-85.321 z m -25.596,102.385 17.064,0 375.412,0 17.064,0 0,25.596 -409.54,0 0,-25.596 z m 409.54,375.413 -409.54,0 0,-290.092 409.541,0 0,290.092 z M 42.661,187.743 l -8.532,0 0,-25.596 8.532,0 426.605,0 8.532,0 0,25.596 -8.532,0 -426.605,0 z"
                 id="path6287" />
            </g>
          </g>
          <g
             id="g6289">
            <g
               id="g6291">
              <path
                 inkscape:connector-curvature="0"
                 d="m 242.858,46.292 c -1.357,-3.468 -3.263,-6.463 -5.721,-8.984 -2.457,-2.521 -5.414,-4.499 -8.869,-5.932 -3.456,-1.433 -7.282,-2.15 -11.48,-2.15 -4.198,0 -8.031,0.71 -11.499,2.131 -3.468,1.421 -6.437,3.398 -8.907,5.932 -2.47,2.534 -4.383,5.535 -5.74,9.004 -1.357,3.468 -2.035,7.237 -2.035,11.307 0,4.07 0.678,7.839 2.035,11.307 1.357,3.468 3.27,6.469 5.74,9.004 2.47,2.534 5.439,4.511 8.907,5.932 3.468,1.421 7.301,2.131 11.499,2.131 4.198,0 8.024,-0.71 11.48,-2.131 3.456,-1.42 6.412,-3.398 8.869,-5.932 2.457,-2.534 4.364,-5.535 5.721,-9.004 1.357,-3.468 2.035,-7.237 2.035,-11.307 0,-4.071 -0.679,-7.84 -2.035,-11.308 z m -9.772,19.504 c -0.806,2.419 -1.965,4.467 -3.475,6.143 -1.51,1.677 -3.347,2.963 -5.51,3.859 -2.163,0.896 -4.601,1.344 -7.314,1.344 -2.713,0 -5.158,-0.448 -7.333,-1.344 -2.176,-0.896 -4.025,-2.182 -5.548,-3.859 -1.523,-1.677 -2.694,-3.724 -3.513,-6.143 -0.819,-2.419 -1.229,-5.151 -1.229,-8.197 0,-3.046 0.41,-5.778 1.229,-8.197 0.819,-2.419 1.99,-4.473 3.513,-6.162 1.523,-1.689 3.372,-2.982 5.548,-3.878 2.176,-0.896 4.62,-1.344 7.333,-1.344 2.713,0 5.151,0.448 7.314,1.344 2.163,0.896 3.999,2.189 5.51,3.878 1.51,1.689 2.668,3.743 3.475,6.162 0.806,2.419 1.209,5.151 1.209,8.197 0,3.046 -0.402,5.778 -1.209,8.197 z"
                 id="path6293" />
            </g>
          </g>
          <g
             id="g6295">
            <g
               id="g6297">
              <polygon
                 points="133.587,29.84 133.587,85.358 143.992,85.358 143.992,61.093 170.023,61.093 170.023,85.358 180.428,85.358 180.428,29.84 170.023,29.84 170.023,53.721 143.992,53.721 143.992,29.84 "
                 id="polygon6299" />
            </g>
          </g>
          <g
             id="g6301">
            <g
               id="g6303">
              <polygon
                 points="372.247,85.358 372.247,76.834 350.017,76.834 350.017,29.84 339.688,29.84 339.688,85.358 "
                 id="polygon6305" />
            </g>
          </g>
          <g
             id="g6307">
            <g
               id="g6309">
              <polygon
                 points="245.353,29.84 245.353,38.325 262.132,38.325 262.132,85.358 272.46,85.358 272.46,38.325 289.161,38.325 289.161,29.84 "
                 id="polygon6311" />
            </g>
          </g>
          <g
             id="g6313">
            <g
               id="g6315">
              <polygon
                 points="330.743,85.358 330.743,77.103 306.132,77.103 306.132,61.4 325.521,61.4 325.521,53.452 306.132,53.452 306.132,38.056 330.743,38.056 330.743,29.84 295.727,29.84 295.727,85.358 "
                 id="polygon6317" />
            </g>
          </g>
          <g
             id="g6319" />
          <g
             id="g6321" />
          <g
             id="g6323" />
          <g
             id="g6325" />
          <g
             id="g6327" />
          <g
             id="g6329" />
          <g
             id="g6331" />
          <g
             id="g6333" />
          <g
             id="g6335" />
          <g
             id="g6337" />
          <g
             id="g6339" />
          <g
             id="g6341" />
          <g
             id="g6343" />
          <g
             id="g6345" />
          <g
             id="g6347" />
        </g>
        <g
           id="g6192"
           transform="translate(-2404.5714,1184.9346)"
           style="fill:#ffffff">
          <g
             id="g6084"
             style="fill:#ffffff">
            <g
               id="g6086"
               style="fill:#ffffff">
              <path
                 id="path6088"
                 d="m 145.046,230.404 -59.725,0 c -4.712,0 -8.532,3.82 -8.532,8.532 l 0,85.321 c 0,4.712 3.82,8.532 8.532,8.532 l 59.725,0 c 4.712,0 8.532,-3.82 8.532,-8.532 l 0,-85.321 c 0,-4.712 -3.82,-8.532 -8.532,-8.532 z m -8.532,85.321 -42.661,0 0,-68.257 42.661,0 0,68.257 z"
                 inkscape:connector-curvature="0"
                 style="fill:#ffffff" />
            </g>
          </g>
          <g
             id="g6090"
             style="fill:#ffffff">
            <g
               id="g6092"
               style="fill:#ffffff">
              <path
                 id="path6094"
                 d="m 290.091,230.404 -59.725,0 c -4.712,0 -8.532,3.82 -8.532,8.532 l 0,85.321 c 0,4.712 3.82,8.532 8.532,8.532 l 59.725,0 c 4.712,0 8.532,-3.82 8.532,-8.532 l 0,-85.321 c 0,-4.712 -3.82,-8.532 -8.532,-8.532 z m -8.532,85.321 -42.66,0 0,-68.257 42.66,0 0,68.257 z"
                 inkscape:connector-curvature="0"
                 style="fill:#ffffff" />
            </g>
          </g>
          <g
             id="g6096"
             style="fill:#ffffff">
            <g
               id="g6098"
               style="fill:#ffffff">
              <path
                 id="path6100"
                 d="m 290.091,366.917 -59.725,0 c -4.712,0 -8.532,3.82 -8.532,8.532 l 0,85.321 c 0,4.712 3.82,8.532 8.532,8.532 l 59.725,0 c 4.712,0 8.532,-3.82 8.532,-8.532 l 0,-85.321 c 0,-4.711 -3.82,-8.532 -8.532,-8.532 z m -8.532,85.321 -42.66,0 0,-68.257 42.66,0 0,68.257 z"
                 inkscape:connector-curvature="0"
                 style="fill:#ffffff" />
            </g>
          </g>
          <g
             id="g6102"
             style="fill:#ffffff">
            <g
               id="g6104"
               style="fill:#ffffff">
              <path
                 id="path6106"
                 d="m 426.605,230.404 -59.725,0 c -4.712,0 -8.532,3.82 -8.532,8.532 l 0,85.321 c 0,4.712 3.82,8.532 8.532,8.532 l 59.725,0 c 4.712,0 8.532,-3.82 8.532,-8.532 l 0,-85.321 c 0,-4.712 -3.82,-8.532 -8.532,-8.532 z m -8.532,85.321 -42.66,0 0,-68.257 42.66,0 0,68.257 z"
                 inkscape:connector-curvature="0"
                 style="fill:#ffffff" />
            </g>
          </g>
          <g
             id="g6108"
             style="fill:#ffffff">
            <g
               id="g6110"
               style="fill:#ffffff">
              <path
                 id="path6112"
                 d="m 145.046,366.917 -59.725,0 c -4.712,0 -8.532,3.82 -8.532,8.532 l 0,85.321 c 0,4.712 3.82,8.532 8.532,8.532 l 59.725,0 c 4.712,0 8.532,-3.82 8.532,-8.532 l 0,-85.321 c 0,-4.711 -3.82,-8.532 -8.532,-8.532 z m -8.532,85.321 -42.661,0 0,-68.257 42.661,0 0,68.257 z"
                 inkscape:connector-curvature="0"
                 style="fill:#ffffff" />
            </g>
          </g>
          <g
             id="g6114"
             style="fill:#ffffff">
            <g
               id="g6116"
               style="fill:#ffffff">
              <path
                 id="path6118"
                 d="m 426.605,366.917 -59.725,0 c -4.712,0 -8.532,3.82 -8.532,8.532 l 0,85.321 c 0,4.712 3.82,8.532 8.532,8.532 l 59.725,0 c 4.712,0 8.532,-3.82 8.532,-8.532 l 0,-85.321 c 0,-4.711 -3.82,-8.532 -8.532,-8.532 z m -8.532,85.321 -42.66,0 0,-68.257 42.66,0 0,68.257 z"
                 inkscape:connector-curvature="0"
                 style="fill:#ffffff" />
            </g>
          </g>
          <g
             id="g6120"
             style="fill:#ffffff">
            <g
               id="g6122"
               style="fill:#ffffff">
              <path
                 id="path6124"
                 d="m 477.798,494.899 0,-290.092 8.532,0 c 4.712,0 8.532,-3.82 8.532,-8.532 l 0,-42.66 c 0,-4.712 -3.82,-8.532 -8.532,-8.532 l -8.532,0 0,-34.128 c 0,-4.712 -3.82,-8.532 -8.532,-8.532 l -17.064,0 0,-93.854 c 0,-4.712 -3.82,-8.532 -8.532,-8.532 l -375.413,0 c -4.712,0 -8.532,3.82 -8.532,8.532 l 0,93.853 -17.064,0 c -4.712,0 -8.532,3.82 -8.532,8.532 l 0,34.128 -8.532,0 c -4.712,0 -8.532,3.82 -8.532,8.532 l 0,42.66 c 0,4.712 3.82,8.532 8.532,8.532 l 8.532,0 0,290.091 -34.129,0 0,17.064 42.661,0 426.605,0 42.734,0 0,-17.064 -34.202,0 z M 76.789,17.101 l 358.348,0 0,85.321 -358.348,0 0,-85.321 z m -25.596,102.385 17.064,0 375.412,0 17.064,0 0,25.596 -409.54,0 0,-25.596 z m 409.54,375.413 -409.54,0 0,-290.092 409.541,0 0,290.092 z M 42.661,187.743 l -8.532,0 0,-25.596 8.532,0 426.605,0 8.532,0 0,25.596 -8.532,0 -426.605,0 z"
                 inkscape:connector-curvature="0"
                 style="fill:#ffffff" />
            </g>
          </g>
          <g
             id="g6126"
             style="fill:#ffffff">
            <g
               id="g6128"
               style="fill:#ffffff">
              <path
                 id="path6130"
                 d="m 242.858,46.292 c -1.357,-3.468 -3.263,-6.463 -5.721,-8.984 -2.457,-2.521 -5.414,-4.499 -8.869,-5.932 -3.456,-1.433 -7.282,-2.15 -11.48,-2.15 -4.198,0 -8.031,0.71 -11.499,2.131 -3.468,1.421 -6.437,3.398 -8.907,5.932 -2.47,2.534 -4.383,5.535 -5.74,9.004 -1.357,3.468 -2.035,7.237 -2.035,11.307 0,4.07 0.678,7.839 2.035,11.307 1.357,3.468 3.27,6.469 5.74,9.004 2.47,2.534 5.439,4.511 8.907,5.932 3.468,1.421 7.301,2.131 11.499,2.131 4.198,0 8.024,-0.71 11.48,-2.131 3.456,-1.42 6.412,-3.398 8.869,-5.932 2.457,-2.534 4.364,-5.535 5.721,-9.004 1.357,-3.468 2.035,-7.237 2.035,-11.307 0,-4.071 -0.679,-7.84 -2.035,-11.308 z m -9.772,19.504 c -0.806,2.419 -1.965,4.467 -3.475,6.143 -1.51,1.677 -3.347,2.963 -5.51,3.859 -2.163,0.896 -4.601,1.344 -7.314,1.344 -2.713,0 -5.158,-0.448 -7.333,-1.344 -2.176,-0.896 -4.025,-2.182 -5.548,-3.859 -1.523,-1.677 -2.694,-3.724 -3.513,-6.143 -0.819,-2.419 -1.229,-5.151 -1.229,-8.197 0,-3.046 0.41,-5.778 1.229,-8.197 0.819,-2.419 1.99,-4.473 3.513,-6.162 1.523,-1.689 3.372,-2.982 5.548,-3.878 2.176,-0.896 4.62,-1.344 7.333,-1.344 2.713,0 5.151,0.448 7.314,1.344 2.163,0.896 3.999,2.189 5.51,3.878 1.51,1.689 2.668,3.743 3.475,6.162 0.806,2.419 1.209,5.151 1.209,8.197 0,3.046 -0.402,5.778 -1.209,8.197 z"
                 inkscape:connector-curvature="0"
                 style="fill:#ffffff" />
            </g>
          </g>
          <g
             id="g6132"
             style="fill:#ffffff">
            <g
               id="g6134"
               style="fill:#ffffff">
              <polygon
                 id="polygon6136"
                 points="133.587,29.84 133.587,85.358 143.992,85.358 143.992,61.093 170.023,61.093 170.023,85.358 180.428,85.358 180.428,29.84 170.023,29.84 170.023,53.721 143.992,53.721 143.992,29.84 "
                 style="fill:#ffffff" />
            </g>
          </g>
          <g
             id="g6138"
             style="fill:#ffffff">
            <g
               id="g6140"
               style="fill:#ffffff">
              <polygon
                 id="polygon6142"
                 points="372.247,85.358 372.247,76.834 350.017,76.834 350.017,29.84 339.688,29.84 339.688,85.358 "
                 style="fill:#ffffff" />
            </g>
          </g>
          <g
             id="g6144"
             style="fill:#ffffff">
            <g
               id="g6146"
               style="fill:#ffffff">
              <polygon
                 id="polygon6148"
                 points="245.353,29.84 245.353,38.325 262.132,38.325 262.132,85.358 272.46,85.358 272.46,38.325 289.161,38.325 289.161,29.84 "
                 style="fill:#ffffff" />
            </g>
          </g>
          <g
             id="g6150"
             style="fill:#ffffff">
            <g
               id="g6152"
               style="fill:#ffffff">
              <polygon
                 id="polygon6154"
                 points="330.743,85.358 330.743,77.103 306.132,77.103 306.132,61.4 325.521,61.4 325.521,53.452 306.132,53.452 306.132,38.056 330.743,38.056 330.743,29.84 295.727,29.84 295.727,85.358 "
                 style="fill:#ffffff" />
            </g>
          </g>
          <g
             id="g6156"
             style="fill:#ffffff" />
          <g
             id="g6158"
             style="fill:#ffffff" />
          <g
             id="g6160"
             style="fill:#ffffff" />
          <g
             id="g6162"
             style="fill:#ffffff" />
          <g
             id="g6164"
             style="fill:#ffffff" />
          <g
             id="g6166"
             style="fill:#ffffff" />
          <g
             id="g6168"
             style="fill:#ffffff" />
          <g
             id="g6170"
             style="fill:#ffffff" />
          <g
             id="g6172"
             style="fill:#ffffff" />
          <g
             id="g6174"
             style="fill:#ffffff" />
          <g
             id="g6176"
             style="fill:#ffffff" />
          <g
             id="g6178"
             style="fill:#ffffff" />
          <g
             id="g6180"
             style="fill:#ffffff" />
          <g
             id="g6182"
             style="fill:#ffffff" />
          <g
             id="g6184"
             style="fill:#ffffff" />
        </g>
      </g>
    </g>
  </g>
</svg>
