<?xml version="1.0" encoding="UTF-8" standalone="no"?>
<!-- Created with Inkscape (http://www.inkscape.org/) -->

<svg
   xmlns:dc="http://purl.org/dc/elements/1.1/"
   xmlns:cc="http://creativecommons.org/ns#"
   xmlns:rdf="http://www.w3.org/1999/02/22-rdf-syntax-ns#"
   xmlns:svg="http://www.w3.org/2000/svg"
   xmlns="http://www.w3.org/2000/svg"
   xmlns:sodipodi="http://sodipodi.sourceforge.net/DTD/sodipodi-0.dtd"
   xmlns:inkscape="http://www.inkscape.org/namespaces/inkscape"
   width="162.24907mm"
   height="162.24907mm"
   viewBox="0 0 574.89828 574.89827"
   id="svg4712"
   version="1.1"
   inkscape:version="0.91 r13725"
   sodipodi:docname="China Market.svg">
  <defs
     id="defs4714">
    <clipPath
       id="clipPath4666"
       clipPathUnits="userSpaceOnUse">
      <circle
         style="color:#000000;clip-rule:nonzero;display:inline;overflow:visible;visibility:visible;opacity:1;isolation:auto;mix-blend-mode:normal;color-interpolation:sRGB;color-interpolation-filters:linearRGB;solid-color:#000000;solid-opacity:1;fill:#3975be;fill-opacity:1;fill-rule:evenodd;stroke:none;stroke-width:0.5;stroke-linecap:butt;stroke-linejoin:miter;stroke-miterlimit:4;stroke-dasharray:none;stroke-dashoffset:0;stroke-opacity:1;color-rendering:auto;image-rendering:auto;shape-rendering:auto;text-rendering:auto;enable-background:accumulate"
         id="circle4668"
         cx="-503.17691"
         cy="962.52209"
         r="291.92392" />
    </clipPath>
    <clipPath
       id="clipPath4666-6"
       clipPathUnits="userSpaceOnUse">
      <circle
         style="color:#000000;clip-rule:nonzero;display:inline;overflow:visible;visibility:visible;opacity:1;isolation:auto;mix-blend-mode:normal;color-interpolation:sRGB;color-interpolation-filters:linearRGB;solid-color:#000000;solid-opacity:1;fill:#3975be;fill-opacity:1;fill-rule:evenodd;stroke:none;stroke-width:0.5;stroke-linecap:butt;stroke-linejoin:miter;stroke-miterlimit:4;stroke-dasharray:none;stroke-dashoffset:0;stroke-opacity:1;color-rendering:auto;image-rendering:auto;shape-rendering:auto;text-rendering:auto;enable-background:accumulate"
         id="circle4668-7"
         cx="-503.17691"
         cy="962.52209"
         r="291.92392" />
    </clipPath>
    <clipPath
       id="clipPath4666-3"
       clipPathUnits="userSpaceOnUse">
      <circle
         style="color:#000000;clip-rule:nonzero;display:inline;overflow:visible;visibility:visible;opacity:1;isolation:auto;mix-blend-mode:normal;color-interpolation:sRGB;color-interpolation-filters:linearRGB;solid-color:#000000;solid-opacity:1;fill:#3975be;fill-opacity:1;fill-rule:evenodd;stroke:none;stroke-width:0.5;stroke-linecap:butt;stroke-linejoin:miter;stroke-miterlimit:4;stroke-dasharray:none;stroke-dashoffset:0;stroke-opacity:1;color-rendering:auto;image-rendering:auto;shape-rendering:auto;text-rendering:auto;enable-background:accumulate"
         id="circle4668-2"
         cx="-503.17691"
         cy="962.52209"
         r="291.92392" />
    </clipPath>
    <clipPath
       id="clipPath4666-7"
       clipPathUnits="userSpaceOnUse">
      <circle
         style="color:#000000;clip-rule:nonzero;display:inline;overflow:visible;visibility:visible;opacity:1;isolation:auto;mix-blend-mode:normal;color-interpolation:sRGB;color-interpolation-filters:linearRGB;solid-color:#000000;solid-opacity:1;fill:#3975be;fill-opacity:1;fill-rule:evenodd;stroke:none;stroke-width:0.5;stroke-linecap:butt;stroke-linejoin:miter;stroke-miterlimit:4;stroke-dasharray:none;stroke-dashoffset:0;stroke-opacity:1;color-rendering:auto;image-rendering:auto;shape-rendering:auto;text-rendering:auto;enable-background:accumulate"
         id="circle4668-0"
         cx="-503.17691"
         cy="962.52209"
         r="291.92392" />
    </clipPath>
    <clipPath
       id="clipPath4666-34"
       clipPathUnits="userSpaceOnUse">
      <circle
         style="color:#000000;clip-rule:nonzero;display:inline;overflow:visible;visibility:visible;opacity:1;isolation:auto;mix-blend-mode:normal;color-interpolation:sRGB;color-interpolation-filters:linearRGB;solid-color:#000000;solid-opacity:1;fill:#3975be;fill-opacity:1;fill-rule:evenodd;stroke:none;stroke-width:0.5;stroke-linecap:butt;stroke-linejoin:miter;stroke-miterlimit:4;stroke-dasharray:none;stroke-dashoffset:0;stroke-opacity:1;color-rendering:auto;image-rendering:auto;shape-rendering:auto;text-rendering:auto;enable-background:accumulate"
         id="circle4668-72"
         cx="-503.17691"
         cy="962.52209"
         r="291.92392" />
    </clipPath>
    <clipPath
       id="clipPath4666-1"
       clipPathUnits="userSpaceOnUse">
      <circle
         style="color:#000000;clip-rule:nonzero;display:inline;overflow:visible;visibility:visible;opacity:1;isolation:auto;mix-blend-mode:normal;color-interpolation:sRGB;color-interpolation-filters:linearRGB;solid-color:#000000;solid-opacity:1;fill:#3975be;fill-opacity:1;fill-rule:evenodd;stroke:none;stroke-width:0.5;stroke-linecap:butt;stroke-linejoin:miter;stroke-miterlimit:4;stroke-dasharray:none;stroke-dashoffset:0;stroke-opacity:1;color-rendering:auto;image-rendering:auto;shape-rendering:auto;text-rendering:auto;enable-background:accumulate"
         id="circle4668-77"
         cx="-503.17691"
         cy="962.52209"
         r="291.92392" />
    </clipPath>
    <clipPath
       id="clipPath4666-0"
       clipPathUnits="userSpaceOnUse">
      <circle
         style="color:#000000;clip-rule:nonzero;display:inline;overflow:visible;visibility:visible;opacity:1;isolation:auto;mix-blend-mode:normal;color-interpolation:sRGB;color-interpolation-filters:linearRGB;solid-color:#000000;solid-opacity:1;fill:#3975be;fill-opacity:1;fill-rule:evenodd;stroke:none;stroke-width:0.5;stroke-linecap:butt;stroke-linejoin:miter;stroke-miterlimit:4;stroke-dasharray:none;stroke-dashoffset:0;stroke-opacity:1;color-rendering:auto;image-rendering:auto;shape-rendering:auto;text-rendering:auto;enable-background:accumulate"
         id="circle4668-9"
         cx="-503.17691"
         cy="962.52209"
         r="291.92392" />
    </clipPath>
    <clipPath
       id="clipPath4666-78"
       clipPathUnits="userSpaceOnUse">
      <circle
         style="color:#000000;clip-rule:nonzero;display:inline;overflow:visible;visibility:visible;opacity:1;isolation:auto;mix-blend-mode:normal;color-interpolation:sRGB;color-interpolation-filters:linearRGB;solid-color:#000000;solid-opacity:1;fill:#3975be;fill-opacity:1;fill-rule:evenodd;stroke:none;stroke-width:0.5;stroke-linecap:butt;stroke-linejoin:miter;stroke-miterlimit:4;stroke-dasharray:none;stroke-dashoffset:0;stroke-opacity:1;color-rendering:auto;image-rendering:auto;shape-rendering:auto;text-rendering:auto;enable-background:accumulate"
         id="circle4668-4"
         cx="-503.17691"
         cy="962.52209"
         r="291.92392" />
    </clipPath>
    <clipPath
       id="clipPath4666-73"
       clipPathUnits="userSpaceOnUse">
      <circle
         style="color:#000000;clip-rule:nonzero;display:inline;overflow:visible;visibility:visible;opacity:1;isolation:auto;mix-blend-mode:normal;color-interpolation:sRGB;color-interpolation-filters:linearRGB;solid-color:#000000;solid-opacity:1;fill:#3975be;fill-opacity:1;fill-rule:evenodd;stroke:none;stroke-width:0.5;stroke-linecap:butt;stroke-linejoin:miter;stroke-miterlimit:4;stroke-dasharray:none;stroke-dashoffset:0;stroke-opacity:1;color-rendering:auto;image-rendering:auto;shape-rendering:auto;text-rendering:auto;enable-background:accumulate"
         id="circle4668-27"
         cx="-503.17691"
         cy="962.52209"
         r="291.92392" />
    </clipPath>
    <clipPath
       id="clipPath4666-4"
       clipPathUnits="userSpaceOnUse">
      <circle
         style="color:#000000;clip-rule:nonzero;display:inline;overflow:visible;visibility:visible;opacity:1;isolation:auto;mix-blend-mode:normal;color-interpolation:sRGB;color-interpolation-filters:linearRGB;solid-color:#000000;solid-opacity:1;fill:#3975be;fill-opacity:1;fill-rule:evenodd;stroke:none;stroke-width:0.5;stroke-linecap:butt;stroke-linejoin:miter;stroke-miterlimit:4;stroke-dasharray:none;stroke-dashoffset:0;stroke-opacity:1;color-rendering:auto;image-rendering:auto;shape-rendering:auto;text-rendering:auto;enable-background:accumulate"
         id="circle4668-8"
         cx="-503.17691"
         cy="962.52209"
         r="291.92392" />
    </clipPath>
    <clipPath
       id="clipPath4666-12"
       clipPathUnits="userSpaceOnUse">
      <circle
         style="color:#000000;clip-rule:nonzero;display:inline;overflow:visible;visibility:visible;opacity:1;isolation:auto;mix-blend-mode:normal;color-interpolation:sRGB;color-interpolation-filters:linearRGB;solid-color:#000000;solid-opacity:1;fill:#3975be;fill-opacity:1;fill-rule:evenodd;stroke:none;stroke-width:0.5;stroke-linecap:butt;stroke-linejoin:miter;stroke-miterlimit:4;stroke-dasharray:none;stroke-dashoffset:0;stroke-opacity:1;color-rendering:auto;image-rendering:auto;shape-rendering:auto;text-rendering:auto;enable-background:accumulate"
         id="circle4668-6"
         cx="-503.17691"
         cy="962.52209"
         r="291.92392" />
    </clipPath>
    <clipPath
       id="clipPath4666-5"
       clipPathUnits="userSpaceOnUse">
      <circle
         style="color:#000000;clip-rule:nonzero;display:inline;overflow:visible;visibility:visible;opacity:1;isolation:auto;mix-blend-mode:normal;color-interpolation:sRGB;color-interpolation-filters:linearRGB;solid-color:#000000;solid-opacity:1;fill:#3975be;fill-opacity:1;fill-rule:evenodd;stroke:none;stroke-width:0.5;stroke-linecap:butt;stroke-linejoin:miter;stroke-miterlimit:4;stroke-dasharray:none;stroke-dashoffset:0;stroke-opacity:1;color-rendering:auto;image-rendering:auto;shape-rendering:auto;text-rendering:auto;enable-background:accumulate"
         id="circle4668-97"
         cx="-503.17691"
         cy="962.52209"
         r="291.92392" />
    </clipPath>
    <clipPath
       id="clipPath4666-18"
       clipPathUnits="userSpaceOnUse">
      <circle
         style="color:#000000;clip-rule:nonzero;display:inline;overflow:visible;visibility:visible;opacity:1;isolation:auto;mix-blend-mode:normal;color-interpolation:sRGB;color-interpolation-filters:linearRGB;solid-color:#000000;solid-opacity:1;fill:#3975be;fill-opacity:1;fill-rule:evenodd;stroke:none;stroke-width:0.5;stroke-linecap:butt;stroke-linejoin:miter;stroke-miterlimit:4;stroke-dasharray:none;stroke-dashoffset:0;stroke-opacity:1;color-rendering:auto;image-rendering:auto;shape-rendering:auto;text-rendering:auto;enable-background:accumulate"
         id="circle4668-1"
         cx="-503.17691"
         cy="962.52209"
         r="291.92392" />
    </clipPath>
    <filter
       height="1.444"
       y="-0.222"
       width="1.444"
       x="-0.222"
       id="filter4658"
       style="color-interpolation-filters:sRGB"
       inkscape:collect="always">
      <feGaussianBlur
         id="feGaussianBlur4660"
         stdDeviation="47.042858"
         inkscape:collect="always" />
    </filter>
    <filter
       height="1.1248"
       y="-0.062399998"
       width="1.1248"
       x="-0.062399998"
       id="filter4617"
       style="color-interpolation-filters:sRGB"
       inkscape:collect="always">
      <feGaussianBlur
         id="feGaussianBlur4619"
         stdDeviation="13.222857"
         inkscape:collect="always" />
    </filter>
    <filter
       inkscape:collect="always"
       style="color-interpolation-filters:sRGB"
       id="filter14577"
       x="-0.15811747"
       width="1.3162349"
       y="-0.11328745"
       height="1.2265749">
      <feGaussianBlur
         inkscape:collect="always"
         stdDeviation="31.483267"
         id="feGaussianBlur14579" />
    </filter>
  </defs>
  <sodipodi:namedview
     id="base"
     pagecolor="#ffffff"
     bordercolor="#666666"
     borderopacity="1.0"
     inkscape:pageopacity="0.0"
     inkscape:pageshadow="2"
     inkscape:zoom="0.35"
     inkscape:cx="417.55282"
     inkscape:cy="36.8387"
     inkscape:document-units="px"
     inkscape:current-layer="layer1"
     showgrid="false"
     fit-margin-top="0"
     fit-margin-left="0"
     fit-margin-right="0"
     fit-margin-bottom="0"
     inkscape:window-width="1280"
     inkscape:window-height="961"
     inkscape:window-x="-8"
     inkscape:window-y="3"
     inkscape:window-maximized="1" />
  <metadata
     id="metadata4717">
    <rdf:RDF>
      <cc:Work
         rdf:about="">
        <dc:format>image/svg+xml</dc:format>
        <dc:type
           rdf:resource="http://purl.org/dc/dcmitype/StillImage" />
        <dc:title></dc:title>
      </cc:Work>
    </rdf:RDF>
  </metadata>
  <g
     inkscape:label="Layer 1"
     inkscape:groupmode="layer"
     id="layer1"
     transform="translate(-140.30437,-54.302895)">
    <g
       transform="translate(2185.5896,-1452.7224)"
       id="g14787">
      <g
         transform="translate(621.825,1256.6298)"
         id="g11350">
        <g
           id="g11352">
          <circle
             style="color:#000000;clip-rule:nonzero;display:inline;overflow:visible;visibility:visible;opacity:1;isolation:auto;mix-blend-mode:normal;color-interpolation:sRGB;color-interpolation-filters:linearRGB;solid-color:#000000;solid-opacity:1;fill:#ff6600;fill-opacity:1;fill-rule:evenodd;stroke:none;stroke-width:0.5;stroke-linecap:butt;stroke-linejoin:miter;stroke-miterlimit:4;stroke-dasharray:none;stroke-dashoffset:0;stroke-opacity:1;color-rendering:auto;image-rendering:auto;shape-rendering:auto;text-rendering:auto;enable-background:accumulate"
             id="circle11354"
             cx="-2379.6611"
             cy="537.8446"
             r="254.28572" />
          <circle
             r="254.28572"
             cy="972.36224"
             cx="-522.85718"
             id="circle11356"
             style="color:#000000;clip-rule:nonzero;display:inline;overflow:visible;visibility:visible;opacity:1;isolation:auto;mix-blend-mode:normal;color-interpolation:sRGB;color-interpolation-filters:linearRGB;solid-color:#000000;solid-opacity:1;fill:none;fill-opacity:1;fill-rule:evenodd;stroke:#aa4400;stroke-width:100;stroke-linecap:butt;stroke-linejoin:miter;stroke-miterlimit:4;stroke-dasharray:none;stroke-dashoffset:0;stroke-opacity:1;filter:url(#filter4658);color-rendering:auto;image-rendering:auto;shape-rendering:auto;text-rendering:auto;enable-background:accumulate"
             clip-path="url(#clipPath4666-18)"
             transform="matrix(0.87106845,0,0,0.87106845,-1941.3596,-300.57802)" />
        </g>
        <circle
           transform="matrix(1.0049946,0,0,1.0049946,-1839.8354,545.52054)"
           r="254.28572"
           cy="-7.6377606"
           cx="-537.14288"
           id="circle11358"
           style="color:#000000;clip-rule:nonzero;display:inline;overflow:visible;visibility:visible;opacity:0.34299999;isolation:auto;mix-blend-mode:normal;color-interpolation:sRGB;color-interpolation-filters:linearRGB;solid-color:#000000;solid-opacity:1;fill:none;fill-opacity:1;fill-rule:evenodd;stroke:#1a1a1a;stroke-width:50;stroke-linecap:butt;stroke-linejoin:miter;stroke-miterlimit:3.5999999;stroke-dasharray:none;stroke-dashoffset:0;stroke-opacity:1;filter:url(#filter4617);color-rendering:auto;image-rendering:auto;shape-rendering:auto;text-rendering:auto;enable-background:accumulate" />
        <circle
           style="color:#000000;clip-rule:nonzero;display:inline;overflow:visible;visibility:visible;opacity:1;isolation:auto;mix-blend-mode:normal;color-interpolation:sRGB;color-interpolation-filters:linearRGB;solid-color:#000000;solid-opacity:1;fill:none;fill-opacity:1;fill-rule:evenodd;stroke:#ffffff;stroke-width:34.81603241;stroke-linecap:butt;stroke-linejoin:miter;stroke-miterlimit:4;stroke-dasharray:none;stroke-dashoffset:0;stroke-opacity:1;color-rendering:auto;image-rendering:auto;shape-rendering:auto;text-rendering:auto;enable-background:accumulate"
           id="circle11360"
           cx="-2379.6611"
           cy="537.84467"
           r="252.94913" />
      </g>
      <g
         transform="matrix(0.66517847,0,0,0.45323191,-2704.7242,1141.4136)"
         id="g14584">
        <g
           transform="translate(-836.40631,46.467017)"
           id="g14569"
           style="filter:url(#filter14577)">
          <path
             sodipodi:nodetypes="ssscsccccccccsccccsssssssscsscsscccccccccccsccccccscccccccsccccccccccccccccccccccccccccccccccccccsccccccccccccccccccsccccsccccscccccsccccccccscccccsccccsccccsccccccccccssssssssccccccccccccsssscccccccccccccccccccccsscccccccssccccccccccccccccccccccccccccc"
             inkscape:connector-curvature="0"
             id="path14571"
             d="m 2097.418,1060.9434 c -13.87,0 -25.1543,11.2833 -25.1543,25.1523 0,13.87 11.2843,25.1543 25.1543,25.1543 l 15.916,0 -47.9961,122.3457 c -4.898,12.485 -16.2313,20.9928 -29.1113,22.5918 l -9.2461,0 0,0.012 c -2.137,0 -4.135,1.1287 -5.211,3.0137 -1.191,2.087 -1.0222,4.6826 0.4278,6.5976 12.705,16.772 31.6909,27.8417 52.2929,30.8887 l 370.8633,0 c 20.599,-3.049 39.5783,-14.1168 52.2813,-30.8868 1.451,-1.915 1.6187,-4.5106 0.4277,-6.5976 -1.191,-2.087 -3.5064,-3.2563 -5.8984,-2.9863 -0.911,0.105 -8.5254,-0.037 -8.5254,-0.037 -12.891,-1.592 -24.2377,-10.0988 -29.1407,-22.5938 l -47.998,-122.348 15.916,0 c 13.87,0 25.1543,-11.2843 25.1543,-25.1543 0,-13.869 -11.2843,-25.1523 -25.1543,-25.1523 -3.313,0 -6,2.687 -6,6 0,5.169 -4.206,9.375 -9.375,9.375 l -294.248,0 c -5.169,0 -9.375,-4.206 -9.375,-9.375 0,-3.313 -2.686,-6 -6,-6 z m -4.8496,12.9238 c 2.884,8.397 10.8616,14.4492 20.2246,14.4492 l 294.248,0 c 9.363,0 17.3387,-6.0522 20.2227,-14.4492 4.86,1.934 8.3047,6.6875 8.3047,12.2285 0,7.253 -5.8994,13.1543 -13.1524,13.1543 l -24.7148,0 -30.2383,0 -33.0508,0 -30.9414,0 -29.5352,0 -28.0371,0 -29.5351,0 -30.9414,0 -33.0508,0 -30.2383,0 -24.7148,0 c -7.253,10e-4 -13.1543,-5.9013 -13.1543,-13.1543 0,-5.541 3.4447,-10.2945 8.3047,-12.2285 z m 33.6543,37.3828 18.0351,0 -37.5957,122.7812 c -3.745,12.231 -12.15,20.5833 -21.582,22.1563 l -21.2481,0 c 5.462,-4.886 9.8678,-11.051 12.6758,-18.209 z m 30.5859,0 21.207,0 -26.1523,123.293 c -2.058,9.704 -6.1813,17.3774 -11.0313,20.5254 -0.807,0.523 -1.6006,0.8901 -2.3886,1.1191 l -30.6426,0 c 4.486,-4.982 8.083,-11.2935 10.334,-18.6445 z m 94.8555,0 16.5078,0 4.9785,124.7773 c 0.315,7.889 0.8602,14.674 1.5762,19.625 0.027,0.184 0.055,0.3552 0.082,0.5352 l -29.7813,0 c 0.027,-0.18 0.055,-0.3512 0.082,-0.5352 0.715,-4.951 1.2592,-11.736 1.5742,-19.625 z m 28.5156,0 17.9902,0 15.5352,125.2754 c 0.665,5.364 2.029,13.1321 4.75,19.6621 l -31.4844,0 c -0.609,-3.325 -1.3951,-9.7346 -1.8301,-20.6406 z m 30.082,0 19.2891,0 26.6797,125.7832 c 1.6,7.544 4.1896,14.0393 7.5566,19.1543 l -31.6094,0 c -1.447,-1.521 -4.8404,-7.2387 -6.5644,-21.1387 z m 31.5567,0 21.207,0 38.6719,126.2949 c 2.251,7.351 5.848,13.6616 10.3339,18.6446 l -30.6386,0 0,0 c -0.788,-0.229 -1.5817,-0.5961 -2.3887,-1.1191 -4.851,-3.148 -8.9752,-10.8214 -11.0332,-20.5254 z m 33.7558,0 18.0352,0 49.7168,126.7285 c 2.808,7.158 7.2118,13.323 12.6738,18.209 l -21.2461,0 c -9.43,-1.573 -17.837,-9.9262 -21.582,-22.1563 z m -185.291,0 19.2891,0 -15.3516,123.7968 c -1.724,13.9 -5.1174,19.6207 -6.5645,21.1407 l -31.6074,0 c 3.367,-5.115 5.9537,-11.6123 7.5547,-19.1563 z m 31.3828,0 17.9883,0 -4.9629,124.2968 c -0.435,10.906 -1.2191,17.3157 -1.8281,20.6407 l -31.4844,0 c 2.721,-6.53 4.086,-14.2982 4.752,-19.6622 z m -180.9922,156.9355 34.1016,0 c 4.5,6.9 9.868,12.7493 15.832,17.3633 l -4.5469,0 c -16.789,0 -33.0047,-6.3363 -45.3867,-17.3633 z m 49.0606,0 40.3144,0 c 3.209,6.943 7.0062,12.7733 11.2422,17.3633 l -17.0742,0 c -12.702,0 -25.0444,-6.3443 -34.4824,-17.3633 z m 53.8027,0 38.1094,0 c 1.958,6.981 4.3045,12.7983 6.9765,17.3633 l -22.7031,0 c -8.095,0 -16.1268,-6.3553 -22.3828,-17.3633 z m 50.6406,0 36.5313,0 c 0.644,6.883 1.4091,12.5383 2.2851,16.8203 0.035,0.172 0.073,0.36 0.1114,0.543 l -28.1446,0 c -1.925,0 -6.6532,-4.4343 -10.7832,-17.3633 z m 48.584,0 34.3106,0 c -0.979,10.044 -2.0265,15.0303 -2.6875,17.3633 l -28.9375,0 c -0.659,-2.334 -1.7076,-7.3193 -2.6856,-17.3633 z m 46.3633,0 36.5293,0 c -4.13,12.928 -8.8582,17.3633 -10.7832,17.3633 l -28.1445,0 c 0.039,-0.182 0.078,-0.369 0.1132,-0.541 0.877,-4.282 1.6422,-9.9393 2.2852,-16.8223 z m 49.0605,0 38.1133,0 c -6.256,11.007 -14.2897,17.3633 -22.3847,17.3633 l -22.7032,0 c 2.672,-4.565 5.0176,-10.3823 6.9746,-17.3633 z m 51.5997,0 40.3125,0 c -9.437,11.019 -21.7775,17.3633 -34.4805,17.3633 l -17.0742,0 c 4.237,-4.59 8.0332,-10.4203 11.2422,-17.3633 z m 55.2734,0 34.1016,0 c -12.381,11.027 -28.5987,17.3633 -45.3887,17.3633 l -4.5449,0 c 5.964,-4.614 11.332,-10.4643 15.832,-17.3633 z m -359.0723,27.832 56.1856,1.5313 z m 291.6875,1.5313 55.6797,0 z m -303.164,-3.3785 0,386.0836 -23.209,0 c -3.313,0 -6,2.687 -6,6 l 0,35.664 c 0,3.313 2.687,6 6,6 l 417.2832,0 c 3.313,0 6,-2.687 6,-6 l 0,-35.664 c 0,-3.313 -2.687,-6 -6,-6 l -23.211,0 0,-386.0836 z m 12.0019,0.8535 55.6797,0 0,344.689 -55.6797,0 z m 67.6797,0 211.502,0 0,344.689 -63.4903,0 0,-95.0507 c 0,-3.313 -2.687,-6 -6,-6 l -72.5195,0 c -3.314,0 -6,2.687 -6,6 l 0,95.0507 -63.4922,0 z m 223.502,0 55.6796,0 0,344.689 -55.6796,0 z m -148.0098,255.6383 60.5195,0 0,110.4511 -60.5195,0 z m -143.1719,101.0507 55.6817,0 0,28.5411 -55.6817,0 z m 67.6797,0 63.4902,0 0,9.4004 -8.2636,0 c -3.313,0 -6,2.687 -6,6 l 0,13.1407 -49.2266,0 z m 148.0117,0 63.4903,0 0,28.5411 -49.2246,0 0,-13.1407 c 0,-3.313 -2.687,-6 -6,-6 l -8.2657,0 z m 75.4903,0 55.6796,0 0,28.5411 -55.6796,0 z m -162.2754,21.4004 89.0508,0 0,17.7793 -89.0508,0 z m -158.1172,19.1407 23.2109,0 122.9063,0 0,23.664 -146.1172,0 z m 259.168,0 122.9042,0 23.211,0 0,23.664 -146.1152,0 z m -101.0508,10.6386 89.0508,0 0,13.0254 -89.0508,0 z" />
          <rect
             style="color:#000000;clip-rule:nonzero;display:inline;overflow:visible;visibility:visible;opacity:1;isolation:auto;mix-blend-mode:normal;color-interpolation:sRGB;color-interpolation-filters:linearRGB;solid-color:#000000;solid-opacity:1;fill:none;fill-opacity:1;fill-rule:evenodd;stroke:#000000;stroke-width:11.63055992;stroke-linecap:butt;stroke-linejoin:miter;stroke-miterlimit:4;stroke-dasharray:none;stroke-dashoffset:0;stroke-opacity:1;color-rendering:auto;image-rendering:auto;shape-rendering:auto;text-rendering:auto;enable-background:accumulate"
             id="rect14573"
             width="73.384056"
             height="66.241203"
             x="2223.665"
             y="1430.9467"
             rx="9.8867617"
             ry="11.751681" />
          <rect
             ry="11.751681"
             rx="9.8867617"
             y="1329.5986"
             x="2223.665"
             height="66.241203"
             width="73.384056"
             id="rect14575"
             style="color:#000000;clip-rule:nonzero;display:inline;overflow:visible;visibility:visible;opacity:1;isolation:auto;mix-blend-mode:normal;color-interpolation:sRGB;color-interpolation-filters:linearRGB;solid-color:#000000;solid-opacity:1;fill:none;fill-opacity:1;fill-rule:evenodd;stroke:#000000;stroke-width:11.63055992;stroke-linecap:butt;stroke-linejoin:miter;stroke-miterlimit:4;stroke-dasharray:none;stroke-dashoffset:0;stroke-opacity:1;color-rendering:auto;image-rendering:auto;shape-rendering:auto;text-rendering:auto;enable-background:accumulate" />
        </g>
        <path
           style="fill:#ffffff"
           sodipodi:nodetypes="ssscsccccccccsccccsssssssscsscsscccccccccccsccccccscccccccsccccccccccccccccccccccccccccccccccccccsccccccccccccccccccsccccsccccscccccsccccccccscccccsccccsccccsccccccccccssssssssccccccccccccsssscccccccccccccccccccccsscccccccssccccccccccccccccccccccccccccc"
           inkscape:connector-curvature="0"
           id="path14538"
           d="m 1261.0117,1107.4104 c -13.87,0 -25.1543,11.2833 -25.1543,25.1523 0,13.87 11.2843,25.1543 25.1543,25.1543 l 15.916,0 -47.9961,122.3457 c -4.898,12.485 -16.2313,20.9928 -29.1113,22.5918 l -9.2461,0 0,0.012 c -2.137,0 -4.135,1.1287 -5.211,3.0137 -1.191,2.087 -1.0222,4.6826 0.4278,6.5976 12.705,16.772 31.6909,27.8417 52.2929,30.8887 l 370.8633,0 c 20.599,-3.049 39.5783,-14.1168 52.2813,-30.8868 1.451,-1.915 1.6187,-4.5106 0.4277,-6.5976 -1.191,-2.087 -3.5064,-3.2563 -5.8984,-2.9863 -0.911,0.105 -8.5254,-0.037 -8.5254,-0.037 -12.891,-1.592 -24.2377,-10.0988 -29.1407,-22.5938 l -47.998,-122.348 15.916,0 c 13.87,0 25.1543,-11.2843 25.1543,-25.1543 0,-13.869 -11.2843,-25.1523 -25.1543,-25.1523 -3.313,0 -6,2.687 -6,6 0,5.169 -4.206,9.375 -9.375,9.375 l -294.248,0 c -5.169,0 -9.375,-4.206 -9.375,-9.375 0,-3.313 -2.686,-6 -6,-6 z m -4.8496,12.9238 c 2.884,8.397 10.8616,14.4492 20.2246,14.4492 l 294.248,0 c 9.363,0 17.3387,-6.0522 20.2227,-14.4492 4.86,1.934 8.3047,6.6875 8.3047,12.2285 0,7.253 -5.8994,13.1543 -13.1524,13.1543 l -24.7148,0 -30.2383,0 -33.0508,0 -30.9414,0 -29.5352,0 -28.0371,0 -29.5351,0 -30.9414,0 -33.0508,0 -30.2383,0 -24.7148,0 c -7.253,10e-4 -13.1543,-5.9013 -13.1543,-13.1543 0,-5.541 3.4447,-10.2945 8.3047,-12.2285 z m 33.6543,37.3828 18.0351,0 -37.5957,122.7812 c -3.745,12.231 -12.15,20.5833 -21.582,22.1563 l -21.2481,0 c 5.462,-4.886 9.8678,-11.051 12.6758,-18.209 z m 30.5859,0 21.207,0 -26.1523,123.293 c -2.058,9.704 -6.1813,17.3774 -11.0313,20.5254 -0.807,0.523 -1.6006,0.8901 -2.3886,1.1191 l -30.6426,0 c 4.486,-4.982 8.083,-11.2935 10.334,-18.6445 z m 94.8555,0 16.5078,0 4.9785,124.7773 c 0.315,7.889 0.8602,14.674 1.5762,19.625 0.027,0.184 0.055,0.3552 0.082,0.5352 l -29.7813,0 c 0.027,-0.18 0.055,-0.3512 0.082,-0.5352 0.715,-4.951 1.2592,-11.736 1.5742,-19.625 z m 28.5156,0 17.9902,0 15.5352,125.2754 c 0.665,5.364 2.029,13.1321 4.75,19.6621 l -31.4844,0 c -0.609,-3.325 -1.3951,-9.7346 -1.8301,-20.6406 z m 30.082,0 19.2891,0 26.6797,125.7832 c 1.6,7.544 4.1896,14.0393 7.5566,19.1543 l -31.6094,0 c -1.447,-1.521 -4.8404,-7.2387 -6.5644,-21.1387 z m 31.5567,0 21.207,0 38.6719,126.2949 c 2.251,7.351 5.848,13.6616 10.3339,18.6446 l -30.6386,0 0,0 c -0.788,-0.229 -1.5817,-0.5961 -2.3887,-1.1191 -4.851,-3.148 -8.9752,-10.8214 -11.0332,-20.5254 z m 33.7558,0 18.0352,0 49.7168,126.7285 c 2.808,7.158 7.2118,13.323 12.6738,18.209 l -21.2461,0 c -9.43,-1.573 -17.837,-9.9262 -21.582,-22.1563 z m -185.291,0 19.2891,0 -15.3516,123.7968 c -1.724,13.9 -5.1174,19.6207 -6.5645,21.1407 l -31.6074,0 c 3.367,-5.115 5.9537,-11.6123 7.5547,-19.1563 z m 31.3828,0 17.9883,0 -4.9629,124.2968 c -0.435,10.906 -1.2191,17.3157 -1.8281,20.6407 l -31.4844,0 c 2.721,-6.53 4.086,-14.2982 4.752,-19.6622 z m -180.9922,156.9355 34.1016,0 c 4.5,6.9 9.868,12.7493 15.832,17.3633 l -4.5469,0 c -16.789,0 -33.0047,-6.3363 -45.3867,-17.3633 z m 49.0606,0 40.3144,0 c 3.209,6.943 7.0062,12.7733 11.2422,17.3633 l -17.0742,0 c -12.702,0 -25.0444,-6.3443 -34.4824,-17.3633 z m 53.8027,0 38.1094,0 c 1.958,6.981 4.3045,12.7983 6.9765,17.3633 l -22.7031,0 c -8.095,0 -16.1268,-6.3553 -22.3828,-17.3633 z m 50.6406,0 36.5313,0 c 0.644,6.883 1.4091,12.5383 2.2851,16.8203 0.035,0.172 0.073,0.36 0.1114,0.543 l -28.1446,0 c -1.925,0 -6.6532,-4.4343 -10.7832,-17.3633 z m 48.584,0 34.3106,0 c -0.979,10.044 -2.0265,15.0303 -2.6875,17.3633 l -28.9375,0 c -0.659,-2.334 -1.7076,-7.3193 -2.6856,-17.3633 z m 46.3633,0 36.5293,0 c -4.13,12.928 -8.8582,17.3633 -10.7832,17.3633 l -28.1445,0 c 0.039,-0.182 0.078,-0.369 0.1132,-0.541 0.877,-4.282 1.6422,-9.9393 2.2852,-16.8223 z m 49.0605,0 38.1133,0 c -6.256,11.007 -14.2897,17.3633 -22.3847,17.3633 l -22.7032,0 c 2.672,-4.565 5.0176,-10.3823 6.9746,-17.3633 z m 51.5997,0 40.3125,0 c -9.437,11.019 -21.7775,17.3633 -34.4805,17.3633 l -17.0742,0 c 4.237,-4.59 8.0332,-10.4203 11.2422,-17.3633 z m 55.2734,0 34.1016,0 c -12.381,11.027 -28.5987,17.3633 -45.3887,17.3633 l -4.5449,0 c 5.964,-4.614 11.332,-10.4643 15.832,-17.3633 z m -359.0723,27.832 56.1856,1.5313 z m 291.6875,1.5313 55.6797,0 z m -303.164,-3.3785 0,386.0836 -23.209,0 c -3.313,0 -6,2.687 -6,6 l 0,35.664 c 0,3.313 2.687,6 6,6 l 417.2832,0 c 3.313,0 6,-2.687 6,-6 l 0,-35.664 c 0,-3.313 -2.687,-6 -6,-6 l -23.211,0 0,-386.0836 z m 12.0019,0.8535 55.6797,0 0,344.689 -55.6797,0 z m 67.6797,0 211.502,0 0,344.689 -63.4903,0 0,-95.0507 c 0,-3.313 -2.687,-6 -6,-6 l -72.5195,0 c -3.314,0 -6,2.687 -6,6 l 0,95.0507 -63.4922,0 z m 223.502,0 55.6796,0 0,344.689 -55.6796,0 z m -148.0098,255.6383 60.5195,0 0,110.4511 -60.5195,0 z m -143.1719,101.0507 55.6817,0 0,28.5411 -55.6817,0 z m 67.6797,0 63.4902,0 0,9.4004 -8.2636,0 c -3.313,0 -6,2.687 -6,6 l 0,13.1407 -49.2266,0 z m 148.0117,0 63.4903,0 0,28.5411 -49.2246,0 0,-13.1407 c 0,-3.313 -2.687,-6 -6,-6 l -8.2657,0 z m 75.4903,0 55.6796,0 0,28.5411 -55.6796,0 z m -162.2754,21.4004 89.0508,0 0,17.7793 -89.0508,0 z m -158.1172,19.1407 23.2109,0 122.9063,0 0,23.664 -146.1172,0 z m 259.168,0 122.9042,0 23.211,0 0,23.664 -146.1152,0 z m -101.0508,10.6386 89.0508,0 0,13.0254 -89.0508,0 z" />
        <rect
           style="color:#000000;clip-rule:nonzero;display:inline;overflow:visible;visibility:visible;opacity:1;isolation:auto;mix-blend-mode:normal;color-interpolation:sRGB;color-interpolation-filters:linearRGB;solid-color:#000000;solid-opacity:1;fill:none;fill-opacity:1;fill-rule:evenodd;stroke:#ffffff;stroke-width:11.63055992;stroke-linecap:butt;stroke-linejoin:miter;stroke-miterlimit:4;stroke-dasharray:none;stroke-dashoffset:0;stroke-opacity:1;color-rendering:auto;image-rendering:auto;shape-rendering:auto;text-rendering:auto;enable-background:accumulate"
           id="rect14543"
           width="73.384056"
           height="66.241203"
           x="1387.2588"
           y="1477.4137"
           rx="9.8867617"
           ry="11.751681" />
        <rect
           ry="11.751681"
           rx="9.8867617"
           y="1376.0657"
           x="1387.2588"
           height="66.241203"
           width="73.384056"
           id="rect14545"
           style="color:#000000;clip-rule:nonzero;display:inline;overflow:visible;visibility:visible;opacity:1;isolation:auto;mix-blend-mode:normal;color-interpolation:sRGB;color-interpolation-filters:linearRGB;solid-color:#000000;solid-opacity:1;fill:none;fill-opacity:1;fill-rule:evenodd;stroke:#ffffff;stroke-width:11.63055992;stroke-linecap:butt;stroke-linejoin:miter;stroke-miterlimit:4;stroke-dasharray:none;stroke-dashoffset:0;stroke-opacity:1;color-rendering:auto;image-rendering:auto;shape-rendering:auto;text-rendering:auto;enable-background:accumulate" />
      </g>
    </g>
  </g>
</svg>
