<?xml version="1.0" encoding="UTF-8" standalone="no"?>
<!-- Created with Inkscape (http://www.inkscape.org/) -->

<svg
   xmlns:dc="http://purl.org/dc/elements/1.1/"
   xmlns:cc="http://creativecommons.org/ns#"
   xmlns:rdf="http://www.w3.org/1999/02/22-rdf-syntax-ns#"
   xmlns:svg="http://www.w3.org/2000/svg"
   xmlns="http://www.w3.org/2000/svg"
   xmlns:sodipodi="http://sodipodi.sourceforge.net/DTD/sodipodi-0.dtd"
   xmlns:inkscape="http://www.inkscape.org/namespaces/inkscape"
   width="83.111534mm"
   height="83.196419mm"
   viewBox="0 0 294.48969 294.79046"
   id="svg4228"
   version="1.1"
   inkscape:version="0.91 r13725"
   sodipodi:docname="Compass.svg">
  <defs
     id="defs4230" />
  <sodipodi:namedview
     id="base"
     pagecolor="#ffffff"
     bordercolor="#666666"
     borderopacity="1.0"
     inkscape:pageopacity="0.0"
     inkscape:pageshadow="2"
     inkscape:zoom="0.35"
     inkscape:cx="-83.623643"
     inkscape:cy="655.65098"
     inkscape:document-units="px"
     inkscape:current-layer="layer1"
     showgrid="false"
     fit-margin-top="0"
     fit-margin-left="0"
     fit-margin-right="0"
     fit-margin-bottom="0"
     inkscape:window-width="1440"
     inkscape:window-height="837"
     inkscape:window-x="2958"
     inkscape:window-y="-8"
     inkscape:window-maximized="1" />
  <metadata
     id="metadata4233">
    <rdf:RDF>
      <cc:Work
         rdf:about="">
        <dc:format>image/svg+xml</dc:format>
        <dc:type
           rdf:resource="http://purl.org/dc/dcmitype/StillImage" />
        <dc:title></dc:title>
      </cc:Work>
    </rdf:RDF>
  </metadata>
  <g
     inkscape:label="Layer 1"
     inkscape:groupmode="layer"
     id="layer1"
     transform="translate(64.233503,-893.22275)">
    <path
       inkscape:connector-curvature="0"
       style="color:#000000;clip-rule:nonzero;display:inline;overflow:visible;visibility:visible;opacity:1;isolation:auto;mix-blend-mode:normal;color-interpolation:sRGB;color-interpolation-filters:linearRGB;solid-color:#000000;solid-opacity:1;fill:#ffffff;fill-opacity:1;fill-rule:evenodd;stroke:none;stroke-width:0.5;stroke-linecap:butt;stroke-linejoin:miter;stroke-miterlimit:4;stroke-dasharray:none;stroke-dashoffset:0;stroke-opacity:1;color-rendering:auto;image-rendering:auto;shape-rendering:auto;text-rendering:auto;enable-background:accumulate"
       d="m 98.521987,1071.753 a 34.662595,34.250001 45 0 1 -1.6014,0.7956 34.662595,34.250001 45 0 1 -3.2106,1.2088 34.662595,34.250001 45 0 1 -3.31896,0.8808 34.662595,34.250001 45 0 1 -3.39408,0.544 34.662595,34.250001 45 0 1 -3.43574,0.2019 34.662595,34.250001 45 0 1 -3.44276,-0.1425 34.662595,34.250001 45 0 1 -3.41542,-0.4854 34.662595,34.250001 45 0 1 -3.35422,-0.8234 34.662595,34.250001 45 0 1 -3.25902,-1.1531 34.662595,34.250001 45 0 1 -3.13151,-1.4712 34.662595,34.250001 45 0 1 -2.97268,-1.7752 34.662595,34.250001 45 0 1 -2.78434,-2.0606 34.662595,34.250001 45 0 1 -2.56789,-2.3258 34.662595,34.250001 45 0 1 -1.67296,-1.7946 34.662595,34.250001 45 0 1 -2.14061,-2.7238 34.662595,34.250001 45 0 1 -1.86027,-2.9207 34.662595,34.250001 45 0 1 -1.56154,-3.0884 34.662595,34.250001 45 0 1 -1.24759,-3.2251 34.662595,34.250001 45 0 1 -0.92062,-3.3298 34.662595,34.250001 45 0 1 -0.5847,-3.4011 34.662595,34.250001 45 0 1 -0.24303,-3.4382 34.662595,34.250001 45 0 1 0.10094,-3.4413 34.662595,34.250001 45 0 1 0.44453,-3.4098 34.662595,34.250001 45 0 1 0.78326,-3.3447 34.662595,34.250001 45 0 1 1.1142,-3.2452 34.662595,34.250001 45 0 1 1.1294,-2.4526 l -116.20788,162.6816 162.75498,-116.2602 z"
       id="path8189" />
    <path
       inkscape:connector-curvature="0"
       style="color:#000000;clip-rule:nonzero;display:inline;overflow:visible;visibility:visible;opacity:1;isolation:auto;mix-blend-mode:normal;color-interpolation:sRGB;color-interpolation-filters:linearRGB;solid-color:#000000;solid-opacity:1;fill:#fa6800;fill-opacity:0.97524749;fill-rule:evenodd;stroke:#ffffff;stroke-width:0.63887417;stroke-linecap:butt;stroke-linejoin:miter;stroke-miterlimit:4;stroke-dasharray:none;stroke-dashoffset:0;stroke-opacity:1;color-rendering:auto;image-rendering:auto;shape-rendering:auto;text-rendering:auto;enable-background:accumulate"
       d="M 229.93674,893.8435 67.255227,1010.0513 a 34.662595,34.250001 45 0 1 2.45251,-1.1294 34.662595,34.250001 45 0 1 3.24522,-1.1142 34.662595,34.250001 45 0 1 3.34477,-0.7832 34.662595,34.250001 45 0 1 3.40967,-0.4446 34.662595,34.250001 45 0 1 3.44136,-0.1014 34.662595,34.250001 45 0 1 3.43816,0.2431 34.662595,34.250001 45 0 1 3.40111,0.5846 34.662595,34.250001 45 0 1 3.32981,0.9206 34.662595,34.250001 45 0 1 3.22504,1.2476 34.662595,34.250001 45 0 1 3.08845,1.5616 34.662595,34.250001 45 0 1 2.920803,1.8603 34.662595,34.250001 45 0 1 2.72365,2.1405 34.662595,34.250001 45 0 1 1.7946,1.673 34.662595,34.250001 45 0 1 2.32588,2.5679 34.662595,34.250001 45 0 1 2.06063,2.7844 34.662595,34.250001 45 0 1 1.77518,2.9727 34.662595,34.250001 45 0 1 1.47119,3.1315 34.662595,34.250001 45 0 1 1.15304,3.259 34.662595,34.250001 45 0 1 0.82339,3.3542 34.662595,34.250001 45 0 1 0.48541,3.4154 34.662595,34.250001 45 0 1 0.14247,3.4428 34.662595,34.250001 45 0 1 -0.20188,3.4358 34.662595,34.250001 45 0 1 -0.54394,3.394 34.662595,34.250001 45 0 1 -0.88088,3.319 34.662595,34.250001 45 0 1 -1.20875,3.2105 34.662595,34.250001 45 0 1 -0.79553,1.6014 L 229.93674,893.84351 Z"
       id="path8191" />
    <path
       id="path8237"
       d="m 108.36103,1053.8988 a 28.679354,28.33798 45 0 0 0.6583,-1.325 28.679354,28.33798 45 0 0 1.00009,-2.6563 28.679354,28.33798 45 0 0 0.72883,-2.7462 28.679354,28.33798 45 0 0 0.45002,-2.8081 28.679354,28.33798 45 0 0 0.167,-2.8428 28.679354,28.33798 45 0 0 -0.11755,-2.8484 28.679354,28.33798 45 0 0 -0.40159,-2.8259 28.679354,28.33798 45 0 0 -0.6813,-2.7752 28.679354,28.33798 45 0 0 -0.95397,-2.6965 28.679354,28.33798 45 0 0 -1.21744,-2.5909 28.679354,28.33798 45 0 0 -1.46877,-2.4596 28.679354,28.33798 45 0 0 -1.70477,-2.3037 28.679354,28.33798 45 0 0 -1.92442,-2.1247 28.679354,28.33798 45 0 0 -1.48487,-1.3842 28.679354,28.33798 45 0 0 -2.253563,-1.7711 28.679354,28.33798 45 0 0 -2.41661,-1.5391 28.679354,28.33798 45 0 0 -2.55524,-1.292 28.679354,28.33798 45 0 0 -2.66845,-1.0323 28.679354,28.33798 45 0 0 -2.75495,-0.7617 28.679354,28.33798 45 0 0 -2.81399,-0.4837 28.679354,28.33798 45 0 0 -2.84478,-0.2012 28.679354,28.33798 45 0 0 -2.84733,0.084 28.679354,28.33798 45 0 0 -2.82114,0.3678 28.679354,28.33798 45 0 0 -2.76735,0.6481 28.679354,28.33798 45 0 0 -2.68519,0.9218 28.679354,28.33798 45 0 0 -2.02919,0.9345 l -7.37478,5.2678 40.558673,40.5588 5.22459,-7.3142 z"
       style="color:#000000;clip-rule:nonzero;display:inline;overflow:visible;visibility:visible;opacity:1;isolation:auto;mix-blend-mode:normal;color-interpolation:sRGB;color-interpolation-filters:linearRGB;solid-color:#000000;solid-opacity:1;fill:#ffffff;fill-opacity:1;fill-rule:evenodd;stroke:none;stroke-width:0.5;stroke-linecap:butt;stroke-linejoin:miter;stroke-miterlimit:4;stroke-dasharray:none;stroke-dashoffset:0;stroke-opacity:1;color-rendering:auto;image-rendering:auto;shape-rendering:auto;text-rendering:auto;enable-background:accumulate"
       inkscape:connector-curvature="0" />
    <path
       inkscape:connector-curvature="0"
       style="color:#000000;clip-rule:nonzero;display:inline;overflow:visible;visibility:visible;opacity:1;isolation:auto;mix-blend-mode:normal;color-interpolation:sRGB;color-interpolation-filters:linearRGB;solid-color:#000000;solid-opacity:1;fill:#fa6800;fill-opacity:0.97524749;fill-rule:evenodd;stroke:#ffffff;stroke-width:0.63887417;stroke-linecap:butt;stroke-linejoin:miter;stroke-miterlimit:4;stroke-dasharray:none;stroke-dashoffset:0;stroke-opacity:1;color-rendering:auto;image-rendering:auto;shape-rendering:auto;text-rendering:auto;enable-background:accumulate"
       d="m 95.822357,1066.4375 a 28.679354,28.33798 45 0 1 -1.32502,0.6582 28.679354,28.33798 45 0 1 -2.65632,1.0002 28.679354,28.33798 45 0 1 -2.74613,0.7288 28.679354,28.33798 45 0 1 -2.80811,0.45 28.679354,28.33798 45 0 1 -2.84286,0.1671 28.679354,28.33798 45 0 1 -2.84836,-0.1179 28.679354,28.33798 45 0 1 -2.82587,-0.4016 28.679354,28.33798 45 0 1 -2.77527,-0.6813 28.679354,28.33798 45 0 1 -2.69643,-0.954 28.679354,28.33798 45 0 1 -2.59102,-1.2173 28.679354,28.33798 45 0 1 -2.45954,-1.4688 28.679354,28.33798 45 0 1 -2.30378,-1.7048 28.679354,28.33798 45 0 1 -2.12464,-1.9244 28.679354,28.33798 45 0 1 -1.38418,-1.4848 28.679354,28.33798 45 0 1 -1.77109,-2.2536 28.679354,28.33798 45 0 1 -1.53904,-2.4166 28.679354,28.33798 45 0 1 -1.29206,-2.5553 28.679354,28.33798 45 0 1 -1.0323,-2.6684 28.679354,28.33798 45 0 1 -0.76179,-2.755 28.679354,28.33798 45 0 1 -0.48363,-2.814 28.679354,28.33798 45 0 1 -0.20112,-2.8448 28.679354,28.33798 45 0 1 0.0843,-2.8472 28.679354,28.33798 45 0 1 0.36787,-2.8212 28.679354,28.33798 45 0 1 0.64794,-2.7674 28.679354,28.33798 45 0 1 0.9219,-2.6851 28.679354,28.33798 45 0 1 0.93442,-2.0292 l 5.2679,-7.3748 40.558673,40.5587 -7.314093,5.2245 z"
       id="path8247" />
  </g>
</svg>
