<?xml version="1.0" encoding="UTF-8" standalone="no"?>
<!-- Created with Inkscape (http://www.inkscape.org/) -->

<svg
   xmlns:dc="http://purl.org/dc/elements/1.1/"
   xmlns:cc="http://creativecommons.org/ns#"
   xmlns:rdf="http://www.w3.org/1999/02/22-rdf-syntax-ns#"
   xmlns:svg="http://www.w3.org/2000/svg"
   xmlns="http://www.w3.org/2000/svg"
   xmlns:sodipodi="http://sodipodi.sourceforge.net/DTD/sodipodi-0.dtd"
   xmlns:inkscape="http://www.inkscape.org/namespaces/inkscape"
   width="162.24907mm"
   height="162.24907mm"
   viewBox="0 0 574.89828 574.89827"
   id="svg4712"
   version="1.1"
   inkscape:version="0.91 r13725"
   sodipodi:docname="DIY Hypermarket.svg">
  <defs
     id="defs4714">
    <clipPath
       id="clipPath4666"
       clipPathUnits="userSpaceOnUse">
      <circle
         style="color:#000000;clip-rule:nonzero;display:inline;overflow:visible;visibility:visible;opacity:1;isolation:auto;mix-blend-mode:normal;color-interpolation:sRGB;color-interpolation-filters:linearRGB;solid-color:#000000;solid-opacity:1;fill:#3975be;fill-opacity:1;fill-rule:evenodd;stroke:none;stroke-width:0.5;stroke-linecap:butt;stroke-linejoin:miter;stroke-miterlimit:4;stroke-dasharray:none;stroke-dashoffset:0;stroke-opacity:1;color-rendering:auto;image-rendering:auto;shape-rendering:auto;text-rendering:auto;enable-background:accumulate"
         id="circle4668"
         cx="-503.17691"
         cy="962.52209"
         r="291.92392" />
    </clipPath>
    <clipPath
       id="clipPath4666-6"
       clipPathUnits="userSpaceOnUse">
      <circle
         style="color:#000000;clip-rule:nonzero;display:inline;overflow:visible;visibility:visible;opacity:1;isolation:auto;mix-blend-mode:normal;color-interpolation:sRGB;color-interpolation-filters:linearRGB;solid-color:#000000;solid-opacity:1;fill:#3975be;fill-opacity:1;fill-rule:evenodd;stroke:none;stroke-width:0.5;stroke-linecap:butt;stroke-linejoin:miter;stroke-miterlimit:4;stroke-dasharray:none;stroke-dashoffset:0;stroke-opacity:1;color-rendering:auto;image-rendering:auto;shape-rendering:auto;text-rendering:auto;enable-background:accumulate"
         id="circle4668-7"
         cx="-503.17691"
         cy="962.52209"
         r="291.92392" />
    </clipPath>
    <clipPath
       id="clipPath4666-3"
       clipPathUnits="userSpaceOnUse">
      <circle
         style="color:#000000;clip-rule:nonzero;display:inline;overflow:visible;visibility:visible;opacity:1;isolation:auto;mix-blend-mode:normal;color-interpolation:sRGB;color-interpolation-filters:linearRGB;solid-color:#000000;solid-opacity:1;fill:#3975be;fill-opacity:1;fill-rule:evenodd;stroke:none;stroke-width:0.5;stroke-linecap:butt;stroke-linejoin:miter;stroke-miterlimit:4;stroke-dasharray:none;stroke-dashoffset:0;stroke-opacity:1;color-rendering:auto;image-rendering:auto;shape-rendering:auto;text-rendering:auto;enable-background:accumulate"
         id="circle4668-2"
         cx="-503.17691"
         cy="962.52209"
         r="291.92392" />
    </clipPath>
    <clipPath
       id="clipPath4666-7"
       clipPathUnits="userSpaceOnUse">
      <circle
         style="color:#000000;clip-rule:nonzero;display:inline;overflow:visible;visibility:visible;opacity:1;isolation:auto;mix-blend-mode:normal;color-interpolation:sRGB;color-interpolation-filters:linearRGB;solid-color:#000000;solid-opacity:1;fill:#3975be;fill-opacity:1;fill-rule:evenodd;stroke:none;stroke-width:0.5;stroke-linecap:butt;stroke-linejoin:miter;stroke-miterlimit:4;stroke-dasharray:none;stroke-dashoffset:0;stroke-opacity:1;color-rendering:auto;image-rendering:auto;shape-rendering:auto;text-rendering:auto;enable-background:accumulate"
         id="circle4668-0"
         cx="-503.17691"
         cy="962.52209"
         r="291.92392" />
    </clipPath>
    <clipPath
       id="clipPath4666-34"
       clipPathUnits="userSpaceOnUse">
      <circle
         style="color:#000000;clip-rule:nonzero;display:inline;overflow:visible;visibility:visible;opacity:1;isolation:auto;mix-blend-mode:normal;color-interpolation:sRGB;color-interpolation-filters:linearRGB;solid-color:#000000;solid-opacity:1;fill:#3975be;fill-opacity:1;fill-rule:evenodd;stroke:none;stroke-width:0.5;stroke-linecap:butt;stroke-linejoin:miter;stroke-miterlimit:4;stroke-dasharray:none;stroke-dashoffset:0;stroke-opacity:1;color-rendering:auto;image-rendering:auto;shape-rendering:auto;text-rendering:auto;enable-background:accumulate"
         id="circle4668-72"
         cx="-503.17691"
         cy="962.52209"
         r="291.92392" />
    </clipPath>
    <clipPath
       id="clipPath4666-1"
       clipPathUnits="userSpaceOnUse">
      <circle
         style="color:#000000;clip-rule:nonzero;display:inline;overflow:visible;visibility:visible;opacity:1;isolation:auto;mix-blend-mode:normal;color-interpolation:sRGB;color-interpolation-filters:linearRGB;solid-color:#000000;solid-opacity:1;fill:#3975be;fill-opacity:1;fill-rule:evenodd;stroke:none;stroke-width:0.5;stroke-linecap:butt;stroke-linejoin:miter;stroke-miterlimit:4;stroke-dasharray:none;stroke-dashoffset:0;stroke-opacity:1;color-rendering:auto;image-rendering:auto;shape-rendering:auto;text-rendering:auto;enable-background:accumulate"
         id="circle4668-77"
         cx="-503.17691"
         cy="962.52209"
         r="291.92392" />
    </clipPath>
    <clipPath
       id="clipPath4666-0"
       clipPathUnits="userSpaceOnUse">
      <circle
         style="color:#000000;clip-rule:nonzero;display:inline;overflow:visible;visibility:visible;opacity:1;isolation:auto;mix-blend-mode:normal;color-interpolation:sRGB;color-interpolation-filters:linearRGB;solid-color:#000000;solid-opacity:1;fill:#3975be;fill-opacity:1;fill-rule:evenodd;stroke:none;stroke-width:0.5;stroke-linecap:butt;stroke-linejoin:miter;stroke-miterlimit:4;stroke-dasharray:none;stroke-dashoffset:0;stroke-opacity:1;color-rendering:auto;image-rendering:auto;shape-rendering:auto;text-rendering:auto;enable-background:accumulate"
         id="circle4668-9"
         cx="-503.17691"
         cy="962.52209"
         r="291.92392" />
    </clipPath>
    <clipPath
       id="clipPath4666-78"
       clipPathUnits="userSpaceOnUse">
      <circle
         style="color:#000000;clip-rule:nonzero;display:inline;overflow:visible;visibility:visible;opacity:1;isolation:auto;mix-blend-mode:normal;color-interpolation:sRGB;color-interpolation-filters:linearRGB;solid-color:#000000;solid-opacity:1;fill:#3975be;fill-opacity:1;fill-rule:evenodd;stroke:none;stroke-width:0.5;stroke-linecap:butt;stroke-linejoin:miter;stroke-miterlimit:4;stroke-dasharray:none;stroke-dashoffset:0;stroke-opacity:1;color-rendering:auto;image-rendering:auto;shape-rendering:auto;text-rendering:auto;enable-background:accumulate"
         id="circle4668-4"
         cx="-503.17691"
         cy="962.52209"
         r="291.92392" />
    </clipPath>
    <clipPath
       id="clipPath4666-73"
       clipPathUnits="userSpaceOnUse">
      <circle
         style="color:#000000;clip-rule:nonzero;display:inline;overflow:visible;visibility:visible;opacity:1;isolation:auto;mix-blend-mode:normal;color-interpolation:sRGB;color-interpolation-filters:linearRGB;solid-color:#000000;solid-opacity:1;fill:#3975be;fill-opacity:1;fill-rule:evenodd;stroke:none;stroke-width:0.5;stroke-linecap:butt;stroke-linejoin:miter;stroke-miterlimit:4;stroke-dasharray:none;stroke-dashoffset:0;stroke-opacity:1;color-rendering:auto;image-rendering:auto;shape-rendering:auto;text-rendering:auto;enable-background:accumulate"
         id="circle4668-27"
         cx="-503.17691"
         cy="962.52209"
         r="291.92392" />
    </clipPath>
    <clipPath
       id="clipPath4666-4"
       clipPathUnits="userSpaceOnUse">
      <circle
         style="color:#000000;clip-rule:nonzero;display:inline;overflow:visible;visibility:visible;opacity:1;isolation:auto;mix-blend-mode:normal;color-interpolation:sRGB;color-interpolation-filters:linearRGB;solid-color:#000000;solid-opacity:1;fill:#3975be;fill-opacity:1;fill-rule:evenodd;stroke:none;stroke-width:0.5;stroke-linecap:butt;stroke-linejoin:miter;stroke-miterlimit:4;stroke-dasharray:none;stroke-dashoffset:0;stroke-opacity:1;color-rendering:auto;image-rendering:auto;shape-rendering:auto;text-rendering:auto;enable-background:accumulate"
         id="circle4668-8"
         cx="-503.17691"
         cy="962.52209"
         r="291.92392" />
    </clipPath>
    <clipPath
       id="clipPath4666-12"
       clipPathUnits="userSpaceOnUse">
      <circle
         style="color:#000000;clip-rule:nonzero;display:inline;overflow:visible;visibility:visible;opacity:1;isolation:auto;mix-blend-mode:normal;color-interpolation:sRGB;color-interpolation-filters:linearRGB;solid-color:#000000;solid-opacity:1;fill:#3975be;fill-opacity:1;fill-rule:evenodd;stroke:none;stroke-width:0.5;stroke-linecap:butt;stroke-linejoin:miter;stroke-miterlimit:4;stroke-dasharray:none;stroke-dashoffset:0;stroke-opacity:1;color-rendering:auto;image-rendering:auto;shape-rendering:auto;text-rendering:auto;enable-background:accumulate"
         id="circle4668-6"
         cx="-503.17691"
         cy="962.52209"
         r="291.92392" />
    </clipPath>
    <clipPath
       id="clipPath4666-5"
       clipPathUnits="userSpaceOnUse">
      <circle
         style="color:#000000;clip-rule:nonzero;display:inline;overflow:visible;visibility:visible;opacity:1;isolation:auto;mix-blend-mode:normal;color-interpolation:sRGB;color-interpolation-filters:linearRGB;solid-color:#000000;solid-opacity:1;fill:#3975be;fill-opacity:1;fill-rule:evenodd;stroke:none;stroke-width:0.5;stroke-linecap:butt;stroke-linejoin:miter;stroke-miterlimit:4;stroke-dasharray:none;stroke-dashoffset:0;stroke-opacity:1;color-rendering:auto;image-rendering:auto;shape-rendering:auto;text-rendering:auto;enable-background:accumulate"
         id="circle4668-97"
         cx="-503.17691"
         cy="962.52209"
         r="291.92392" />
    </clipPath>
    <clipPath
       id="clipPath4666-18"
       clipPathUnits="userSpaceOnUse">
      <circle
         style="color:#000000;clip-rule:nonzero;display:inline;overflow:visible;visibility:visible;opacity:1;isolation:auto;mix-blend-mode:normal;color-interpolation:sRGB;color-interpolation-filters:linearRGB;solid-color:#000000;solid-opacity:1;fill:#3975be;fill-opacity:1;fill-rule:evenodd;stroke:none;stroke-width:0.5;stroke-linecap:butt;stroke-linejoin:miter;stroke-miterlimit:4;stroke-dasharray:none;stroke-dashoffset:0;stroke-opacity:1;color-rendering:auto;image-rendering:auto;shape-rendering:auto;text-rendering:auto;enable-background:accumulate"
         id="circle4668-1"
         cx="-503.17691"
         cy="962.52209"
         r="291.92392" />
    </clipPath>
    <clipPath
       id="clipPath4666-77"
       clipPathUnits="userSpaceOnUse">
      <circle
         style="color:#000000;clip-rule:nonzero;display:inline;overflow:visible;visibility:visible;opacity:1;isolation:auto;mix-blend-mode:normal;color-interpolation:sRGB;color-interpolation-filters:linearRGB;solid-color:#000000;solid-opacity:1;fill:#3975be;fill-opacity:1;fill-rule:evenodd;stroke:none;stroke-width:0.5;stroke-linecap:butt;stroke-linejoin:miter;stroke-miterlimit:4;stroke-dasharray:none;stroke-dashoffset:0;stroke-opacity:1;color-rendering:auto;image-rendering:auto;shape-rendering:auto;text-rendering:auto;enable-background:accumulate"
         id="circle4668-778"
         cx="-503.17691"
         cy="962.52209"
         r="291.92392" />
    </clipPath>
    <clipPath
       clipPathUnits="userSpaceOnUse"
       id="clipPath15062">
      <path
         style="fill:none;fill-rule:evenodd;stroke:#000000;stroke-width:2.44808745px;stroke-linecap:butt;stroke-linejoin:miter;stroke-opacity:1"
         d="m 521.79246,154.5791 -108.41527,0 0,309.50826 L 313.70503,574.2513 -6.2950121,406.38252 -43.016324,128.3498 47.912499,19.934286 271.73771,-46.513662 486.81982,40.918068 Z"
         id="path15064"
         inkscape:connector-curvature="0" />
    </clipPath>
    <clipPath
       id="clipPath4666-00"
       clipPathUnits="userSpaceOnUse">
      <circle
         style="color:#000000;clip-rule:nonzero;display:inline;overflow:visible;visibility:visible;opacity:1;isolation:auto;mix-blend-mode:normal;color-interpolation:sRGB;color-interpolation-filters:linearRGB;solid-color:#000000;solid-opacity:1;fill:#3975be;fill-opacity:1;fill-rule:evenodd;stroke:none;stroke-width:0.5;stroke-linecap:butt;stroke-linejoin:miter;stroke-miterlimit:4;stroke-dasharray:none;stroke-dashoffset:0;stroke-opacity:1;color-rendering:auto;image-rendering:auto;shape-rendering:auto;text-rendering:auto;enable-background:accumulate"
         id="circle4668-85"
         cx="-503.17691"
         cy="962.52209"
         r="291.92392" />
    </clipPath>
    <clipPath
       id="clipPath4666-16"
       clipPathUnits="userSpaceOnUse">
      <circle
         style="color:#000000;clip-rule:nonzero;display:inline;overflow:visible;visibility:visible;opacity:1;isolation:auto;mix-blend-mode:normal;color-interpolation:sRGB;color-interpolation-filters:linearRGB;solid-color:#000000;solid-opacity:1;fill:#3975be;fill-opacity:1;fill-rule:evenodd;stroke:none;stroke-width:0.5;stroke-linecap:butt;stroke-linejoin:miter;stroke-miterlimit:4;stroke-dasharray:none;stroke-dashoffset:0;stroke-opacity:1;color-rendering:auto;image-rendering:auto;shape-rendering:auto;text-rendering:auto;enable-background:accumulate"
         id="circle4668-3"
         cx="-503.17691"
         cy="962.52209"
         r="291.92392" />
    </clipPath>
    <filter
       height="1.444"
       y="-0.222"
       width="1.444"
       x="-0.222"
       id="filter4658"
       style="color-interpolation-filters:sRGB"
       inkscape:collect="always">
      <feGaussianBlur
         id="feGaussianBlur4660"
         stdDeviation="47.042858"
         inkscape:collect="always" />
    </filter>
    <filter
       height="1.1248"
       y="-0.062399998"
       width="1.1248"
       x="-0.062399998"
       id="filter4617"
       style="color-interpolation-filters:sRGB"
       inkscape:collect="always">
      <feGaussianBlur
         id="feGaussianBlur4619"
         stdDeviation="13.222857"
         inkscape:collect="always" />
    </filter>
    <filter
       inkscape:collect="always"
       style="color-interpolation-filters:sRGB"
       id="filter16035"
       x="-0.12532091"
       width="1.2506418"
       y="-0.1394311"
       height="1.2788622">
      <feGaussianBlur
         inkscape:collect="always"
         stdDeviation="58.120304"
         id="feGaussianBlur16037" />
    </filter>
  </defs>
  <sodipodi:namedview
     id="base"
     pagecolor="#ffffff"
     bordercolor="#666666"
     borderopacity="1.0"
     inkscape:pageopacity="0.0"
     inkscape:pageshadow="2"
     inkscape:zoom="0.35"
     inkscape:cx="377.04312"
     inkscape:cy="259.18614"
     inkscape:document-units="px"
     inkscape:current-layer="layer1"
     showgrid="false"
     fit-margin-top="0"
     fit-margin-left="0"
     fit-margin-right="0"
     fit-margin-bottom="0"
     inkscape:window-width="1280"
     inkscape:window-height="961"
     inkscape:window-x="-8"
     inkscape:window-y="3"
     inkscape:window-maximized="1" />
  <metadata
     id="metadata4717">
    <rdf:RDF>
      <cc:Work
         rdf:about="">
        <dc:format>image/svg+xml</dc:format>
        <dc:type
           rdf:resource="http://purl.org/dc/dcmitype/StillImage" />
        <dc:title></dc:title>
      </cc:Work>
    </rdf:RDF>
  </metadata>
  <g
     inkscape:label="Layer 1"
     inkscape:groupmode="layer"
     id="layer1"
     transform="translate(-180.81407,-276.6504)">
    <g
       transform="translate(407.3957,-1230.3749)"
       id="g16295">
      <g
         transform="translate(2440.5286,1256.6298)"
         id="g11964">
        <g
           id="g11966">
          <circle
             r="254.28572"
             cy="537.8446"
             cx="-2379.6611"
             id="circle11968"
             style="color:#000000;clip-rule:nonzero;display:inline;overflow:visible;visibility:visible;opacity:1;isolation:auto;mix-blend-mode:normal;color-interpolation:sRGB;color-interpolation-filters:linearRGB;solid-color:#000000;solid-opacity:1;fill:#ff6600;fill-opacity:1;fill-rule:evenodd;stroke:none;stroke-width:0.5;stroke-linecap:butt;stroke-linejoin:miter;stroke-miterlimit:4;stroke-dasharray:none;stroke-dashoffset:0;stroke-opacity:1;color-rendering:auto;image-rendering:auto;shape-rendering:auto;text-rendering:auto;enable-background:accumulate" />
          <circle
             transform="matrix(0.87106845,0,0,0.87106845,-1941.3596,-300.57802)"
             clip-path="url(#clipPath4666-16)"
             style="color:#000000;clip-rule:nonzero;display:inline;overflow:visible;visibility:visible;opacity:1;isolation:auto;mix-blend-mode:normal;color-interpolation:sRGB;color-interpolation-filters:linearRGB;solid-color:#000000;solid-opacity:1;fill:none;fill-opacity:1;fill-rule:evenodd;stroke:#aa4400;stroke-width:100;stroke-linecap:butt;stroke-linejoin:miter;stroke-miterlimit:4;stroke-dasharray:none;stroke-dashoffset:0;stroke-opacity:1;filter:url(#filter4658);color-rendering:auto;image-rendering:auto;shape-rendering:auto;text-rendering:auto;enable-background:accumulate"
             id="circle11970"
             cx="-522.85718"
             cy="972.36224"
             r="254.28572" />
        </g>
        <circle
           style="color:#000000;clip-rule:nonzero;display:inline;overflow:visible;visibility:visible;opacity:0.34299999;isolation:auto;mix-blend-mode:normal;color-interpolation:sRGB;color-interpolation-filters:linearRGB;solid-color:#000000;solid-opacity:1;fill:none;fill-opacity:1;fill-rule:evenodd;stroke:#1a1a1a;stroke-width:50;stroke-linecap:butt;stroke-linejoin:miter;stroke-miterlimit:3.5999999;stroke-dasharray:none;stroke-dashoffset:0;stroke-opacity:1;filter:url(#filter4617);color-rendering:auto;image-rendering:auto;shape-rendering:auto;text-rendering:auto;enable-background:accumulate"
           id="circle11972"
           cx="-537.14288"
           cy="-7.6377606"
           r="254.28572"
           transform="matrix(1.0049946,0,0,1.0049946,-1839.8354,545.52054)" />
        <circle
           r="252.94913"
           cy="537.84467"
           cx="-2379.6611"
           id="circle11974"
           style="color:#000000;clip-rule:nonzero;display:inline;overflow:visible;visibility:visible;opacity:1;isolation:auto;mix-blend-mode:normal;color-interpolation:sRGB;color-interpolation-filters:linearRGB;solid-color:#000000;solid-opacity:1;fill:none;fill-opacity:1;fill-rule:evenodd;stroke:#ffffff;stroke-width:34.81603241;stroke-linecap:butt;stroke-linejoin:miter;stroke-miterlimit:4;stroke-dasharray:none;stroke-dashoffset:0;stroke-opacity:1;color-rendering:auto;image-rendering:auto;shape-rendering:auto;text-rendering:auto;enable-background:accumulate" />
      </g>
      <g
         id="g16242">
        <g
           id="g15983"
           style="filter:url(#filter16035)"
           transform="matrix(0.24442318,0,0,0.24442318,-140.25785,1115.4472)">
          <circle
             style="fill:none;stroke:#000000;stroke-width:20;stroke-miterlimit:4;stroke-dasharray:none"
             cx="711.61621"
             cy="3185.7979"
             r="92.489189"
             id="circle15985" />
          <circle
             style="fill:none;stroke:#000000;stroke-width:20;stroke-miterlimit:4;stroke-dasharray:none"
             cx="1085.9805"
             cy="3185.7979"
             r="92.489189"
             id="circle15987" />
          <path
             inkscape:connector-curvature="0"
             style="fill:none;stroke:#000000;stroke-width:20;stroke-miterlimit:4;stroke-dasharray:none"
             d="m 1321.681,2571.3954 c -46.3145,0 -59.1874,92.769 -59.1874,92.769 l -28.6843,97.1766 -26.7253,86.4025 1.2593,-0.07 -27.0751,91.02 -150.2075,0 -208.13564,0 -161.12148,0 -11.40373,-90.9501 -10.77409,-86.4025 -12.17331,-97.1766 -9.37485,-92.769 c 0,0 -0.69961,0.2099 -1.88896,0.5597 l -0.07,-0.5597 c 0,0 -10.0045,-85.563 -15.67139,-120.9636 -5.80681,-35.4005 -94.51807,-79.8261 -285.37321,-169.7967 -44.91532,-18.8196 -82.41472,63.1753 0,106.2017 l 150.48732,70.3813 c 0,0 34.98078,20.2889 37.98913,47.5739 3.00834,27.3549 64.08479,480.1462 64.08479,480.1462 0,0 2.44865,62.8254 59.67721,62.8254 57.22856,0 526.32091,0 574.31451,0 47.9936,0 57.3685,-50.1624 57.3685,-50.1624 l 113.8274,-337.9843 c -0.07,0 33.6515,-88.2215 -51.1419,-88.2215 z"
             id="path15989" />
          <g
             id="g15991"
             transform="matrix(1.5419378,0,0,1.5419378,692.37914,2447.5994)">
            <g
               id="g15993">
              <g
                 id="g15995">
                <g
                   id="g15997">
                  <path
                     id="path15999"
                     d="M 69.631,44.657 C 71.606,41.714 71.977,37.995 70.62,34.724 69.263,31.448 66.377,29.081 62.891,28.4 62.477,28.319 62.158,28 62.077,27.576 61.391,24.1 59.025,21.214 55.753,19.857 c -3.281,-1.357 -6.99,-0.99 -9.933,0.99 -0.352,0.243 -0.81,0.243 -1.162,0 -2.938,-1.976 -6.652,-2.338 -9.933,-0.99 -3.276,1.357 -5.643,4.243 -6.324,7.729 -0.081,0.414 -0.4,0.733 -0.824,0.814 -3.476,0.681 -6.362,3.048 -7.719,6.324 -1.357,3.276 -0.986,6.99 0.99,9.933 0.238,0.352 0.238,0.81 0,1.162 -1.976,2.943 -2.348,6.657 -0.99,9.933 1.357,3.276 4.243,5.643 7.729,6.324 0.414,0.081 0.733,0.4 0.814,0.824 0.686,3.476 3.052,6.362 6.324,7.719 3.281,1.352 6.986,0.99 9.933,-0.99 0.352,-0.238 0.81,-0.243 1.162,0 1.771,1.19 3.824,1.8 5.886,1.8 1.367,0 2.738,-0.271 4.048,-0.81 3.276,-1.357 5.643,-4.243 6.324,-7.729 0.081,-0.414 0.4,-0.733 0.824,-0.814 3.476,-0.686 6.362,-3.052 7.719,-6.324 1.357,-3.272 0.986,-6.99 -0.99,-9.933 -0.238,-0.352 -0.238,-0.81 0,-1.162 z m -7.906,6.472 c 0.257,0.381 0.195,0.743 0.1,0.976 -0.1,0.238 -0.305,0.533 -0.752,0.624 -4.243,0.824 -7.514,4.095 -8.338,8.329 -0.09,0.457 -0.386,0.667 -0.624,0.762 -0.233,0.1 -0.595,0.162 -0.976,-0.1 -1.79,-1.205 -3.843,-1.805 -5.89,-1.805 -2.048,0 -4.1,0.6 -5.89,1.805 -0.386,0.267 -0.738,0.195 -0.976,0.1 -0.238,-0.095 -0.533,-0.305 -0.624,-0.752 -0.824,-4.243 -4.095,-7.514 -8.329,-8.338 -0.457,-0.09 -0.667,-0.386 -0.762,-0.624 -0.1,-0.233 -0.157,-0.595 0.1,-0.976 2.405,-3.581 2.405,-8.205 0,-11.786 -0.257,-0.381 -0.195,-0.743 -0.1,-0.976 0.1,-0.238 0.305,-0.533 0.752,-0.624 4.243,-0.824 7.514,-4.095 8.338,-8.329 0.09,-0.457 0.386,-0.667 0.624,-0.762 0.233,-0.095 0.59,-0.157 0.976,0.1 3.581,2.41 8.205,2.41 11.786,0 0.386,-0.257 0.748,-0.19 0.976,-0.1 0.238,0.1 0.533,0.305 0.624,0.752 0.824,4.243 4.095,7.514 8.329,8.338 0.457,0.09 0.667,0.386 0.762,0.624 0.1,0.233 0.157,0.595 -0.1,0.976 -2.411,3.586 -2.411,8.205 -0.006,11.786 z"
                     inkscape:connector-curvature="0" />
                  <path
                     id="path16001"
                     d="m 274.392,250.581 c -0.239,-0.352 -0.239,-0.81 -10e-4,-1.162 1.976,-2.943 2.348,-6.657 0.99,-9.933 -1.357,-3.276 -4.243,-5.643 -7.729,-6.324 -0.414,-0.081 -0.733,-0.4 -0.814,-0.824 -0.686,-3.476 -3.052,-6.362 -6.324,-7.719 -3.276,-1.357 -6.99,-0.99 -9.933,0.99 -0.348,0.238 -0.805,0.248 -1.162,0 -2.943,-1.976 -6.648,-2.343 -9.933,-0.99 -3.276,1.357 -5.643,4.243 -6.324,7.729 -0.081,0.414 -0.4,0.733 -0.824,0.814 -3.476,0.686 -6.362,3.052 -7.719,6.324 -1.357,3.271 -0.986,6.99 0.99,9.933 0.238,0.352 0.238,0.81 0,1.162 -1.976,2.943 -2.348,6.657 -0.99,9.933 1.357,3.276 4.243,5.643 7.729,6.324 0.414,0.081 0.733,0.4 0.814,0.824 0.686,3.476 3.052,6.362 6.324,7.719 3.276,1.352 6.99,0.986 9.933,-0.99 0.348,-0.238 0.805,-0.248 1.162,0 1.771,1.19 3.824,1.8 5.886,1.8 1.367,0 2.738,-0.271 4.048,-0.81 3.276,-1.357 5.643,-4.243 6.324,-7.729 0.081,-0.414 0.4,-0.733 0.824,-0.814 3.476,-0.686 6.362,-3.052 7.719,-6.324 1.357,-3.272 0.985,-6.99 -0.99,-9.933 z m -7.905,5.309 c 0.257,0.381 0.195,0.743 0.1,0.976 -0.1,0.238 -0.305,0.533 -0.752,0.624 -4.243,0.824 -7.514,4.095 -8.338,8.329 -0.09,0.457 -0.386,0.667 -0.624,0.762 -0.238,0.095 -0.59,0.162 -0.976,-0.1 -1.79,-1.205 -3.843,-1.805 -5.89,-1.805 -2.047,0 -4.1,0.6 -5.89,1.805 -0.381,0.262 -0.743,0.2 -0.976,0.1 -0.238,-0.1 -0.533,-0.305 -0.624,-0.752 -0.824,-4.243 -4.095,-7.514 -8.329,-8.338 -0.457,-0.09 -0.667,-0.386 -0.762,-0.624 -0.1,-0.233 -0.157,-0.595 0.1,-0.976 2.405,-3.581 2.405,-8.205 0,-11.786 -0.257,-0.381 -0.195,-0.743 -0.1,-0.976 0.1,-0.238 0.305,-0.533 0.752,-0.624 4.243,-0.824 7.514,-4.095 8.338,-8.329 0.09,-0.457 0.386,-0.667 0.624,-0.762 0.233,-0.1 0.59,-0.162 0.976,0.1 3.581,2.41 8.205,2.41 11.786,0 0.386,-0.262 0.743,-0.19 0.976,-0.1 0.238,0.1 0.533,0.305 0.624,0.752 0.824,4.243 4.095,7.514 8.329,8.338 0.457,0.09 0.667,0.386 0.762,0.624 0.1,0.233 0.157,0.595 -0.1,0.976 -2.412,3.586 -2.412,8.206 -0.006,11.786 z"
                     inkscape:connector-curvature="0" />
                  <path
                     id="path16003"
                     d="m 250.001,204.762 c -4.314,0 -8.61,0.633 -12.81,1.886 L 178.167,147.619 237.196,88.59 c 8.857,2.633 18.176,2.486 27.143,-0.452 13.462,-4.424 24.143,-15.105 28.567,-28.571 3.271,-9.952 3.081,-20.357 -0.533,-30.086 l -2.586,-6.952 -31.652,31.652 c -1.862,1.862 -4.871,1.862 -6.733,0 L 241.059,43.838 c -1.857,-1.857 -1.857,-4.876 0,-6.733 L 272.711,5.452 265.759,2.866 c -9.733,-3.619 -20.133,-3.805 -30.09,-0.533 -13.462,4.424 -24.143,15.105 -28.567,28.571 -2.938,8.957 -3.086,18.276 -0.452,27.138 l -59.029,59.029 -59.03,-59.023 c 1.252,-4.2 1.886,-8.495 1.886,-12.81 C 90.477,20.295 70.182,0 45.238,0 20.295,0 0.001,20.295 0.001,45.238 c 0,24.943 20.295,45.238 45.238,45.238 4.314,0 8.61,-0.633 12.81,-1.886 l 59.024,59.029 -59.029,59.029 c -8.857,-2.633 -18.176,-2.49 -27.143,0.452 -13.462,4.424 -24.143,15.105 -28.567,28.571 -3.271,9.952 -3.081,20.357 0.533,30.086 l 2.586,6.952 31.652,-31.652 c 1.862,-1.862 4.871,-1.862 6.733,0 L 54.182,251.4 c 1.857,1.857 1.857,4.876 0,6.733 l -31.652,31.652 6.952,2.586 c 5.119,1.9 10.424,2.857 15.757,2.857 4.8,0 9.619,-0.771 14.338,-2.319 13.462,-4.424 24.143,-15.105 28.567,-28.571 2.938,-8.957 3.086,-18.276 0.452,-27.138 l 59.024,-59.033 59.029,59.024 c -1.252,4.2 -1.886,8.495 -1.886,12.81 0,24.943 20.295,45.238 45.238,45.238 24.943,0 45.238,-20.295 45.238,-45.238 0,-24.943 -20.296,-45.239 -45.238,-45.239 z M 60.539,77.614 57.672,78.681 c -4.057,1.51 -8.243,2.271 -12.433,2.271 -19.695,0 -35.714,-16.019 -35.714,-35.714 0,-19.695 16.019,-35.714 35.713,-35.714 19.695,0 35.714,16.019 35.714,35.714 0,4.19 -0.762,8.376 -2.276,12.433 l -1.067,2.867 63.271,63.271 -17.07,17.071 -63.271,-63.266 z m 80.347,93.815 -63.271,63.271 1.067,2.867 c 2.9,7.795 3.043,15.8 0.414,23.795 -3.481,10.605 -11.89,19.01 -22.49,22.495 -5.424,1.781 -10.838,2.29 -16.205,1.529 l 20.524,-20.524 c 2.695,-2.695 4.186,-6.286 4.186,-10.1 0,-3.814 -1.49,-7.405 -4.186,-10.1 L 50.582,234.319 c -5.395,-5.395 -14.805,-5.395 -20.2,0 L 9.857,254.843 c -0.757,-5.362 -0.252,-10.786 1.529,-16.2 3.481,-10.605 11.89,-19.01 22.49,-22.495 7.995,-2.624 16.005,-2.49 23.8,0.414 l 2.867,1.067 63.267,-63.276 30.543,-30.543 63.271,-63.271 -1.067,-2.867 c -2.9,-7.795 -3.043,-15.8 -0.414,-23.795 3.481,-10.605 11.89,-19.01 22.49,-22.495 5.424,-1.776 10.843,-2.29 16.205,-1.529 l -20.524,20.524 c -2.695,2.695 -4.186,6.286 -4.186,10.1 0,3.814 1.49,7.405 4.186,10.1 l 10.343,10.343 c 5.395,5.395 14.805,5.395 20.2,0 l 20.524,-20.524 c 0.757,5.362 0.252,10.786 -1.529,16.2 -3.481,10.605 -11.89,19.01 -22.49,22.495 -7.995,2.624 -16,2.49 -23.8,-0.414 l -2.867,-1.067 -63.267,63.276 -30.542,30.543 z m 109.115,114.285 c -19.695,0 -35.714,-16.019 -35.714,-35.714 0,-4.19 0.762,-8.376 2.276,-12.433 l 1.067,-2.867 -63.271,-63.271 17.071,-17.071 63.271,63.271 2.867,-1.067 c 4.057,-1.514 8.243,-2.276 12.433,-2.276 19.695,0 35.714,16.019 35.714,35.714 0,19.695 -16.02,35.714 -35.714,35.714 z"
                     inkscape:connector-curvature="0" />
                </g>
              </g>
            </g>
            <g
               id="g16005" />
            <g
               id="g16007" />
            <g
               id="g16009" />
            <g
               id="g16011" />
            <g
               id="g16013" />
            <g
               id="g16015" />
            <g
               id="g16017" />
            <g
               id="g16019" />
            <g
               id="g16021" />
            <g
               id="g16023" />
            <g
               id="g16025" />
            <g
               id="g16027" />
            <g
               id="g16029" />
            <g
               id="g16031" />
            <g
               id="g16033" />
          </g>
        </g>
        <circle
           style="fill:none;stroke:#ffffff;stroke-width:10;stroke-miterlimit:4;stroke-dasharray:none"
           cx="33.677647"
           cy="1894.13"
           r="22.606503"
           id="circle15787" />
        <circle
           style="fill:none;stroke:#ffffff;stroke-width:10;stroke-miterlimit:4;stroke-dasharray:none"
           cx="125.18095"
           cy="1894.13"
           r="22.606503"
           id="circle15789" />
        <path
           inkscape:connector-curvature="0"
           style="fill:none;stroke:#ffffff;stroke-width:10;stroke-miterlimit:4;stroke-dasharray:none"
           d="m 182.79162,1743.9558 c -11.32033,0 -14.46677,22.6749 -14.46677,22.6749 l -7.01111,23.7522 -6.53228,21.1188 0.3078,-0.017 -6.61778,22.2474 -36.71419,0 -50.87318,0 -39.381824,0 -2.787336,-22.2303 -2.633438,-21.1188 -2.975439,-23.7522 -2.291431,-22.6749 c 0,0 -0.171,0.051 -0.461705,0.1368 l -0.01711,-0.1368 c 0,0 -2.4453315,-20.9136 -3.8304507,-29.5663 -1.419319,-8.6527 -23.1024073,-19.5113 -69.7518273,-41.5022 -10.978346,-4.6 -20.144068,15.4415 0,25.9581 l 36.782589,17.2028 c 0,0 8.550114,4.9591 9.285424,11.6282 0.735308,6.6862 15.6638082,117.3589 15.6638082,117.3589 0,0 0.59850684,15.3559 14.5864938,15.3559 13.987986,0 128.645026,0 140.375776,0 11.73075,0 14.02219,-12.2608 14.02219,-12.2608 l 27.82206,-82.6112 c -0.0171,0 8.22521,-21.5634 -12.50027,-21.5634 z"
           id="path15791" />
        <g
           id="g15933"
           transform="matrix(0.37688534,0,0,0.37688534,28.975661,1713.6972)"
           style="fill:#ffffff">
          <g
             id="g15885"
             style="fill:#ffffff">
            <g
               id="g15887"
               style="fill:#ffffff">
              <g
                 id="g15889"
                 style="fill:#ffffff">
                <path
                   id="path15891"
                   d="M 69.631,44.657 C 71.606,41.714 71.977,37.995 70.62,34.724 69.263,31.448 66.377,29.081 62.891,28.4 62.477,28.319 62.158,28 62.077,27.576 61.391,24.1 59.025,21.214 55.753,19.857 c -3.281,-1.357 -6.99,-0.99 -9.933,0.99 -0.352,0.243 -0.81,0.243 -1.162,0 -2.938,-1.976 -6.652,-2.338 -9.933,-0.99 -3.276,1.357 -5.643,4.243 -6.324,7.729 -0.081,0.414 -0.4,0.733 -0.824,0.814 -3.476,0.681 -6.362,3.048 -7.719,6.324 -1.357,3.276 -0.986,6.99 0.99,9.933 0.238,0.352 0.238,0.81 0,1.162 -1.976,2.943 -2.348,6.657 -0.99,9.933 1.357,3.276 4.243,5.643 7.729,6.324 0.414,0.081 0.733,0.4 0.814,0.824 0.686,3.476 3.052,6.362 6.324,7.719 3.281,1.352 6.986,0.99 9.933,-0.99 0.352,-0.238 0.81,-0.243 1.162,0 1.771,1.19 3.824,1.8 5.886,1.8 1.367,0 2.738,-0.271 4.048,-0.81 3.276,-1.357 5.643,-4.243 6.324,-7.729 0.081,-0.414 0.4,-0.733 0.824,-0.814 3.476,-0.686 6.362,-3.052 7.719,-6.324 1.357,-3.272 0.986,-6.99 -0.99,-9.933 -0.238,-0.352 -0.238,-0.81 0,-1.162 z m -7.906,6.472 c 0.257,0.381 0.195,0.743 0.1,0.976 -0.1,0.238 -0.305,0.533 -0.752,0.624 -4.243,0.824 -7.514,4.095 -8.338,8.329 -0.09,0.457 -0.386,0.667 -0.624,0.762 -0.233,0.1 -0.595,0.162 -0.976,-0.1 -1.79,-1.205 -3.843,-1.805 -5.89,-1.805 -2.048,0 -4.1,0.6 -5.89,1.805 -0.386,0.267 -0.738,0.195 -0.976,0.1 -0.238,-0.095 -0.533,-0.305 -0.624,-0.752 -0.824,-4.243 -4.095,-7.514 -8.329,-8.338 -0.457,-0.09 -0.667,-0.386 -0.762,-0.624 -0.1,-0.233 -0.157,-0.595 0.1,-0.976 2.405,-3.581 2.405,-8.205 0,-11.786 -0.257,-0.381 -0.195,-0.743 -0.1,-0.976 0.1,-0.238 0.305,-0.533 0.752,-0.624 4.243,-0.824 7.514,-4.095 8.338,-8.329 0.09,-0.457 0.386,-0.667 0.624,-0.762 0.233,-0.095 0.59,-0.157 0.976,0.1 3.581,2.41 8.205,2.41 11.786,0 0.386,-0.257 0.748,-0.19 0.976,-0.1 0.238,0.1 0.533,0.305 0.624,0.752 0.824,4.243 4.095,7.514 8.329,8.338 0.457,0.09 0.667,0.386 0.762,0.624 0.1,0.233 0.157,0.595 -0.1,0.976 -2.411,3.586 -2.411,8.205 -0.006,11.786 z"
                   inkscape:connector-curvature="0"
                   style="fill:#ffffff" />
                <path
                   id="path15893"
                   d="m 274.392,250.581 c -0.239,-0.352 -0.239,-0.81 -10e-4,-1.162 1.976,-2.943 2.348,-6.657 0.99,-9.933 -1.357,-3.276 -4.243,-5.643 -7.729,-6.324 -0.414,-0.081 -0.733,-0.4 -0.814,-0.824 -0.686,-3.476 -3.052,-6.362 -6.324,-7.719 -3.276,-1.357 -6.99,-0.99 -9.933,0.99 -0.348,0.238 -0.805,0.248 -1.162,0 -2.943,-1.976 -6.648,-2.343 -9.933,-0.99 -3.276,1.357 -5.643,4.243 -6.324,7.729 -0.081,0.414 -0.4,0.733 -0.824,0.814 -3.476,0.686 -6.362,3.052 -7.719,6.324 -1.357,3.271 -0.986,6.99 0.99,9.933 0.238,0.352 0.238,0.81 0,1.162 -1.976,2.943 -2.348,6.657 -0.99,9.933 1.357,3.276 4.243,5.643 7.729,6.324 0.414,0.081 0.733,0.4 0.814,0.824 0.686,3.476 3.052,6.362 6.324,7.719 3.276,1.352 6.99,0.986 9.933,-0.99 0.348,-0.238 0.805,-0.248 1.162,0 1.771,1.19 3.824,1.8 5.886,1.8 1.367,0 2.738,-0.271 4.048,-0.81 3.276,-1.357 5.643,-4.243 6.324,-7.729 0.081,-0.414 0.4,-0.733 0.824,-0.814 3.476,-0.686 6.362,-3.052 7.719,-6.324 1.357,-3.272 0.985,-6.99 -0.99,-9.933 z m -7.905,5.309 c 0.257,0.381 0.195,0.743 0.1,0.976 -0.1,0.238 -0.305,0.533 -0.752,0.624 -4.243,0.824 -7.514,4.095 -8.338,8.329 -0.09,0.457 -0.386,0.667 -0.624,0.762 -0.238,0.095 -0.59,0.162 -0.976,-0.1 -1.79,-1.205 -3.843,-1.805 -5.89,-1.805 -2.047,0 -4.1,0.6 -5.89,1.805 -0.381,0.262 -0.743,0.2 -0.976,0.1 -0.238,-0.1 -0.533,-0.305 -0.624,-0.752 -0.824,-4.243 -4.095,-7.514 -8.329,-8.338 -0.457,-0.09 -0.667,-0.386 -0.762,-0.624 -0.1,-0.233 -0.157,-0.595 0.1,-0.976 2.405,-3.581 2.405,-8.205 0,-11.786 -0.257,-0.381 -0.195,-0.743 -0.1,-0.976 0.1,-0.238 0.305,-0.533 0.752,-0.624 4.243,-0.824 7.514,-4.095 8.338,-8.329 0.09,-0.457 0.386,-0.667 0.624,-0.762 0.233,-0.1 0.59,-0.162 0.976,0.1 3.581,2.41 8.205,2.41 11.786,0 0.386,-0.262 0.743,-0.19 0.976,-0.1 0.238,0.1 0.533,0.305 0.624,0.752 0.824,4.243 4.095,7.514 8.329,8.338 0.457,0.09 0.667,0.386 0.762,0.624 0.1,0.233 0.157,0.595 -0.1,0.976 -2.412,3.586 -2.412,8.206 -0.006,11.786 z"
                   inkscape:connector-curvature="0"
                   style="fill:#ffffff" />
                <path
                   id="path15895"
                   d="m 250.001,204.762 c -4.314,0 -8.61,0.633 -12.81,1.886 L 178.167,147.619 237.196,88.59 c 8.857,2.633 18.176,2.486 27.143,-0.452 13.462,-4.424 24.143,-15.105 28.567,-28.571 3.271,-9.952 3.081,-20.357 -0.533,-30.086 l -2.586,-6.952 -31.652,31.652 c -1.862,1.862 -4.871,1.862 -6.733,0 L 241.059,43.838 c -1.857,-1.857 -1.857,-4.876 0,-6.733 L 272.711,5.452 265.759,2.866 c -9.733,-3.619 -20.133,-3.805 -30.09,-0.533 -13.462,4.424 -24.143,15.105 -28.567,28.571 -2.938,8.957 -3.086,18.276 -0.452,27.138 l -59.029,59.029 -59.03,-59.023 c 1.252,-4.2 1.886,-8.495 1.886,-12.81 C 90.477,20.295 70.182,0 45.238,0 20.295,0 0.001,20.295 0.001,45.238 c 0,24.943 20.295,45.238 45.238,45.238 4.314,0 8.61,-0.633 12.81,-1.886 l 59.024,59.029 -59.029,59.029 c -8.857,-2.633 -18.176,-2.49 -27.143,0.452 -13.462,4.424 -24.143,15.105 -28.567,28.571 -3.271,9.952 -3.081,20.357 0.533,30.086 l 2.586,6.952 31.652,-31.652 c 1.862,-1.862 4.871,-1.862 6.733,0 L 54.182,251.4 c 1.857,1.857 1.857,4.876 0,6.733 l -31.652,31.652 6.952,2.586 c 5.119,1.9 10.424,2.857 15.757,2.857 4.8,0 9.619,-0.771 14.338,-2.319 13.462,-4.424 24.143,-15.105 28.567,-28.571 2.938,-8.957 3.086,-18.276 0.452,-27.138 l 59.024,-59.033 59.029,59.024 c -1.252,4.2 -1.886,8.495 -1.886,12.81 0,24.943 20.295,45.238 45.238,45.238 24.943,0 45.238,-20.295 45.238,-45.238 0,-24.943 -20.296,-45.239 -45.238,-45.239 z M 60.539,77.614 57.672,78.681 c -4.057,1.51 -8.243,2.271 -12.433,2.271 -19.695,0 -35.714,-16.019 -35.714,-35.714 0,-19.695 16.019,-35.714 35.713,-35.714 19.695,0 35.714,16.019 35.714,35.714 0,4.19 -0.762,8.376 -2.276,12.433 l -1.067,2.867 63.271,63.271 -17.07,17.071 -63.271,-63.266 z m 80.347,93.815 -63.271,63.271 1.067,2.867 c 2.9,7.795 3.043,15.8 0.414,23.795 -3.481,10.605 -11.89,19.01 -22.49,22.495 -5.424,1.781 -10.838,2.29 -16.205,1.529 l 20.524,-20.524 c 2.695,-2.695 4.186,-6.286 4.186,-10.1 0,-3.814 -1.49,-7.405 -4.186,-10.1 L 50.582,234.319 c -5.395,-5.395 -14.805,-5.395 -20.2,0 L 9.857,254.843 c -0.757,-5.362 -0.252,-10.786 1.529,-16.2 3.481,-10.605 11.89,-19.01 22.49,-22.495 7.995,-2.624 16.005,-2.49 23.8,0.414 l 2.867,1.067 63.267,-63.276 30.543,-30.543 63.271,-63.271 -1.067,-2.867 c -2.9,-7.795 -3.043,-15.8 -0.414,-23.795 3.481,-10.605 11.89,-19.01 22.49,-22.495 5.424,-1.776 10.843,-2.29 16.205,-1.529 l -20.524,20.524 c -2.695,2.695 -4.186,6.286 -4.186,10.1 0,3.814 1.49,7.405 4.186,10.1 l 10.343,10.343 c 5.395,5.395 14.805,5.395 20.2,0 l 20.524,-20.524 c 0.757,5.362 0.252,10.786 -1.529,16.2 -3.481,10.605 -11.89,19.01 -22.49,22.495 -7.995,2.624 -16,2.49 -23.8,-0.414 l -2.867,-1.067 -63.267,63.276 -30.542,30.543 z m 109.115,114.285 c -19.695,0 -35.714,-16.019 -35.714,-35.714 0,-4.19 0.762,-8.376 2.276,-12.433 l 1.067,-2.867 -63.271,-63.271 17.071,-17.071 63.271,63.271 2.867,-1.067 c 4.057,-1.514 8.243,-2.276 12.433,-2.276 19.695,0 35.714,16.019 35.714,35.714 0,19.695 -16.02,35.714 -35.714,35.714 z"
                   inkscape:connector-curvature="0"
                   style="fill:#ffffff" />
              </g>
            </g>
          </g>
          <g
             id="g15897"
             style="fill:#ffffff" />
          <g
             id="g15899"
             style="fill:#ffffff" />
          <g
             id="g15901"
             style="fill:#ffffff" />
          <g
             id="g15903"
             style="fill:#ffffff" />
          <g
             id="g15905"
             style="fill:#ffffff" />
          <g
             id="g15907"
             style="fill:#ffffff" />
          <g
             id="g15909"
             style="fill:#ffffff" />
          <g
             id="g15911"
             style="fill:#ffffff" />
          <g
             id="g15913"
             style="fill:#ffffff" />
          <g
             id="g15915"
             style="fill:#ffffff" />
          <g
             id="g15917"
             style="fill:#ffffff" />
          <g
             id="g15919"
             style="fill:#ffffff" />
          <g
             id="g15921"
             style="fill:#ffffff" />
          <g
             id="g15923"
             style="fill:#ffffff" />
          <g
             id="g15925"
             style="fill:#ffffff" />
        </g>
      </g>
    </g>
  </g>
</svg>
