<?xml version="1.0" encoding="UTF-8" standalone="no"?>
<!-- Created with Inkscape (http://www.inkscape.org/) -->

<svg
   xmlns:dc="http://purl.org/dc/elements/1.1/"
   xmlns:cc="http://creativecommons.org/ns#"
   xmlns:rdf="http://www.w3.org/1999/02/22-rdf-syntax-ns#"
   xmlns:svg="http://www.w3.org/2000/svg"
   xmlns="http://www.w3.org/2000/svg"
   xmlns:sodipodi="http://sodipodi.sourceforge.net/DTD/sodipodi-0.dtd"
   xmlns:inkscape="http://www.inkscape.org/namespaces/inkscape"
   width="150.58415mm"
   height="162.73131mm"
   viewBox="0 0 533.56589 576.60699"
   id="svg4184"
   version="1.1"
   inkscape:version="0.91 r13725"
   sodipodi:docname="Location.svg">
  <defs
     id="defs4186" />
  <sodipodi:namedview
     id="base"
     pagecolor="#ffffff"
     bordercolor="#666666"
     borderopacity="1.0"
     inkscape:pageopacity="0.0"
     inkscape:pageshadow="2"
     inkscape:zoom="0.35"
     inkscape:cx="676.06858"
     inkscape:cy="71.160565"
     inkscape:document-units="px"
     inkscape:current-layer="layer1"
     showgrid="false"
     fit-margin-top="0"
     fit-margin-left="0"
     fit-margin-right="0"
     fit-margin-bottom="0"
     inkscape:window-width="1440"
     inkscape:window-height="837"
     inkscape:window-x="2958"
     inkscape:window-y="-8"
     inkscape:window-maximized="1" />
  <metadata
     id="metadata4189">
    <rdf:RDF>
      <cc:Work
         rdf:about="">
        <dc:format>image/svg+xml</dc:format>
        <dc:type
           rdf:resource="http://purl.org/dc/dcmitype/StillImage" />
        <dc:title></dc:title>
      </cc:Work>
    </rdf:RDF>
  </metadata>
  <g
     inkscape:label="Layer 1"
     inkscape:groupmode="layer"
     id="layer1"
     transform="translate(823.92572,-26.915761)">
    <path
       inkscape:connector-curvature="0"
       d="m -541.26614,311.39479 c 0,0 3.5821,-0.0659 3.5821,-0.0659 0,0 0.0272,-2.50941 0.0272,-2.50941 0,0 -3.2429,0.0603 -3.2429,0.0603 0,0 -0.36647,2.51507 -0.36647,2.51507 m -0.72019,4.94267 c 0,0 4.24867,-0.0766 4.24867,-0.0766 0,0 0.0377,-3.46943 0.0377,-3.46943 0,0 -3.77978,0.0692 -3.77978,0.0692 0,0 -0.50663,3.47692 -0.50663,3.47692 m -1.0495,7.2028 c 0,0 5.22003,-0.0914 5.22003,-0.0914 0,0 0.0556,-5.10909 0.0556,-5.10909 0,0 -4.52965,0.0811 -4.52965,0.0811 0,0 -0.74594,5.11942 -0.74594,5.11942 m -1.67163,11.47258 c 0,0 6.76715,-0.11277 6.76715,-0.11277 0,0 0.0899,-8.26415 0.0899,-8.26415 0,0 -5.65065,0.0975 -5.65065,0.0975 0,0 -1.20637,8.27938 -1.20637,8.27938 m -3.08002,21.13829 c 0,0 9.61772,-0.14569 9.61772,-0.14569 0,0 0.16978,-15.61379 0.16978,-15.61379 0,0 -7.509,0.12224 -7.509,0.12224 0,0 -2.27846,15.6372 -2.27846,15.6372 m -7.56373,51.91047 c 0,0 16.61752,-0.18912 16.61752,-0.18912 0,0 0.43742,-40.23127 0.43742,-40.23127 0,0 -11.1887,0.1599 -11.1887,0.1599 0,0 -5.86624,40.26045 -5.86624,40.26045 m -21.33577,146.42887 c 0,0 36.35948,-0.027 36.35948,-0.027 0,0 1.16459,-107.11326 1.16459,-107.11326 0,0 -21.94018,0.18686 -21.94018,0.18686 0,0 -15.58389,106.9533 -15.58389,106.9533 m 52.07635,-246.2337 c 0,0 5.29528,-0.0984 5.29528,-0.0984 0,0 228.95554,295.36444 228.95554,295.36444 0,0 -73.19464,-0.20311 -73.19464,-0.20311 0,0 -161.05618,-295.06293 -161.05618,-295.06293 m -34.52304,0.64181 c 0,0 5.2688,-0.0979 5.2688,-0.0979 0,0 -201.62932,293.43152 -201.62932,293.43152 0,0 -68.43153,-0.18994 -68.43153,-0.18994 0,0 264.79205,-293.14367 264.79205,-293.14367"
       style="color:#000000;font-style:normal;font-variant:normal;font-weight:normal;font-stretch:normal;font-size:medium;line-height:normal;font-family:sans-serif;text-indent:0;text-align:start;text-decoration:none;text-decoration-line:none;text-decoration-style:solid;text-decoration-color:#000000;letter-spacing:normal;word-spacing:normal;text-transform:none;direction:ltr;block-progression:tb;writing-mode:lr-tb;baseline-shift:baseline;text-anchor:start;white-space:normal;clip-rule:nonzero;display:inline;overflow:visible;visibility:visible;opacity:1;isolation:auto;mix-blend-mode:normal;color-interpolation:sRGB;color-interpolation-filters:linearRGB;solid-color:#000000;solid-opacity:1;fill:#ffffff;fill-opacity:1;fill-rule:evenodd;stroke:none;stroke-width:63.46153641;stroke-linecap:butt;stroke-linejoin:miter;stroke-miterlimit:4;stroke-dasharray:126.923076, 63.461538;stroke-dashoffset:0;stroke-opacity:1;color-rendering:auto;image-rendering:auto;shape-rendering:auto;text-rendering:auto;enable-background:accumulate"
       id="path5507" />
    <path
       inkscape:connector-curvature="0"
       style="color:#000000;clip-rule:nonzero;display:inline;overflow:visible;visibility:visible;opacity:1;isolation:auto;mix-blend-mode:normal;color-interpolation:sRGB;color-interpolation-filters:linearRGB;solid-color:#000000;solid-opacity:1;fill:#fa6800;fill-opacity:1;fill-rule:evenodd;stroke:none;stroke-width:100;stroke-linecap:butt;stroke-linejoin:miter;stroke-miterlimit:4;stroke-dasharray:none;stroke-dashoffset:0;stroke-opacity:1;color-rendering:auto;image-rendering:auto;shape-rendering:auto;text-rendering:auto;enable-background:accumulate"
       d="m -536.5638,26.915761 c -53.84371,0 -97.49325,39.522124 -97.49323,88.275379 0,16.12476 15.94799,41.52371 22.49933,49.54409 6.55132,8.0204 75.37041,112.43432 75.37041,112.43432 0,0 70.78785,-106.33628 76.43742,-114.02567 5.64958,-7.68935 19.58262,-32.04447 20.67862,-47.95274 -2e-5,-48.753193 -43.64884,-88.275379 -97.49255,-88.275379 z m -7e-4,30.091383 a 63.25213,57.272115 0 0 1 63.25264,57.271966 63.25213,57.272115 0 0 1 -63.25264,57.27258 63.25213,57.272115 0 0 1 -63.25196,-57.27258 63.25213,57.272115 0 0 1 63.25196,-57.271966 z"
       id="path7477" />
  </g>
</svg>
