<?xml version="1.0" encoding="UTF-8" standalone="no"?>
<!-- Created with Inkscape (http://www.inkscape.org/) -->

<svg
   xmlns:dc="http://purl.org/dc/elements/1.1/"
   xmlns:cc="http://creativecommons.org/ns#"
   xmlns:rdf="http://www.w3.org/1999/02/22-rdf-syntax-ns#"
   xmlns:svg="http://www.w3.org/2000/svg"
   xmlns="http://www.w3.org/2000/svg"
   xmlns:sodipodi="http://sodipodi.sourceforge.net/DTD/sodipodi-0.dtd"
   xmlns:inkscape="http://www.inkscape.org/namespaces/inkscape"
   width="256.16391mm"
   height="234.34947mm"
   viewBox="0 0 907.66739 830.37214"
   id="svg4186"
   version="1.1"
   inkscape:version="0.91 r13725"
   sodipodi:docname="masterplan.svg">
  <defs
     id="defs4188" />
  <sodipodi:namedview
     id="base"
     pagecolor="#ffffff"
     bordercolor="#666666"
     borderopacity="1.0"
     inkscape:pageopacity="0.0"
     inkscape:pageshadow="2"
     inkscape:zoom="0.35"
     inkscape:cx="917.40516"
     inkscape:cy="372.32854"
     inkscape:document-units="px"
     inkscape:current-layer="layer1"
     showgrid="false"
     inkscape:window-width="1440"
     inkscape:window-height="837"
     inkscape:window-x="2958"
     inkscape:window-y="-8"
     inkscape:window-maximized="1"
     fit-margin-top="0"
     fit-margin-left="0"
     fit-margin-right="0"
     fit-margin-bottom="0" />
  <metadata
     id="metadata4191">
    <rdf:RDF>
      <cc:Work
         rdf:about="">
        <dc:format>image/svg+xml</dc:format>
        <dc:type
           rdf:resource="http://purl.org/dc/dcmitype/StillImage" />
        <dc:title></dc:title>
      </cc:Work>
    </rdf:RDF>
  </metadata>
  <g
     inkscape:label="Layer 1"
     inkscape:groupmode="layer"
     id="layer1"
     transform="translate(1065.2623,-74.318605)">
    <g
       id="g4819">
      <polygon
         transform="matrix(2.7605457,0,0,2.7605457,-1312.6072,-211.67393)"
         id="polygon29839"
         points="418.4,109.6 301.2,166.4 301.2,404.4 418.4,347.2 "
         style="fill:#fa6800;fill-opacity:0.99009902" />
      <path
         id="path29841"
         d="m -481.13082,305.10033 0,16.56316 40.85608,-19.87572 0,193.23821 -40.85608,19.87572 0,16.56348 57.41937,-27.60569 0,-209.80137 193.23818,-93.85863 0,193.23821 -96.06698,47.48141 0,15.45929 96.06698,-47.48141 0,89.44156 -250.65755,121.464 0,16.56315 40.85608,-19.87572 0,193.23821 -40.85608,19.87573 0,16.56347 267.22083,-130.29783 0,-541.06706 -267.22083,130.29783 z m 249.55333,403.03958 -192.13396,94.96283 0,-193.23822 193.23818,-93.85863 0,192.13402 -1.10422,0 z"
         style="fill:#ffffff"
         inkscape:connector-curvature="0" />
      <polygon
         transform="matrix(2.7605457,0,0,2.7605457,-1312.6072,-211.67393)"
         id="polygon29843"
         points="199.6,341.6 199.6,103.6 89.6,166.4 89.6,404.4 "
         style="fill:#fa6800;fill-opacity:0.99009902" />
      <polygon
         transform="matrix(2.7605457,0,0,2.7605457,-1312.6072,-211.67393)"
         id="polygon29845"
         points="199.6,320.8 199.6,314.8 182.8,324.4 182.8,280.8 176.8,284 176.8,327.6 116.4,362.4 116.4,273.2 176.8,238.4 176.8,248.8 182.8,245.6 182.8,218.8 176.8,222.4 176.8,232.4 116.4,267.2 116.4,178 176.8,143.6 176.8,187.2 182.8,183.6 182.8,140 199.6,130.4 199.6,124.4 110.4,175.6 110.4,371.6 "
         style="fill:#ffffff" />
      <polygon
         transform="matrix(2.7605457,0,0,2.7605457,-1312.6072,-211.67393)"
         id="polygon29847"
         points="301.2,166.4 198.8,103.6 198.8,341.6 301.2,404.4 "
         style="fill:#ac4700;fill-opacity:1" />
      <g
         transform="matrix(2.7605457,0,0,2.7605457,-1312.6072,-211.67393)"
         id="g29849">
        <polygon
           id="polygon29851"
           points="301.2,307.6 301.2,301.6 240.8,264.4 240.8,340.4 198.8,314.8 198.8,320.8 301.2,383.6 301.2,377.6 246.8,344 246.8,274 "
           style="fill:#e6e9ee" />
        <polygon
           id="polygon29853"
           points="301.2,263.2 228.4,218.8 228.4,148.8 301.2,193.2 301.2,187.2 198.8,124.4 198.8,130.4 222.8,145.2 222.8,221.2 301.2,269.2 "
           style="fill:#e6e9ee" />
      </g>
    </g>
  </g>
</svg>
