<?xml version="1.0" encoding="UTF-8" standalone="no"?>
<!-- Created with Inkscape (http://www.inkscape.org/) -->

<svg
   xmlns:dc="http://purl.org/dc/elements/1.1/"
   xmlns:cc="http://creativecommons.org/ns#"
   xmlns:rdf="http://www.w3.org/1999/02/22-rdf-syntax-ns#"
   xmlns:svg="http://www.w3.org/2000/svg"
   xmlns="http://www.w3.org/2000/svg"
   xmlns:sodipodi="http://sodipodi.sourceforge.net/DTD/sodipodi-0.dtd"
   xmlns:inkscape="http://www.inkscape.org/namespaces/inkscape"
   width="162.24907mm"
   height="162.24907mm"
   viewBox="0 0 574.89828 574.89827"
   id="svg4712"
   version="1.1"
   inkscape:version="0.91 r13725"
   sodipodi:docname="Office Space.svg">
  <defs
     id="defs4714">
    <clipPath
       id="clipPath4666"
       clipPathUnits="userSpaceOnUse">
      <circle
         style="color:#000000;clip-rule:nonzero;display:inline;overflow:visible;visibility:visible;opacity:1;isolation:auto;mix-blend-mode:normal;color-interpolation:sRGB;color-interpolation-filters:linearRGB;solid-color:#000000;solid-opacity:1;fill:#3975be;fill-opacity:1;fill-rule:evenodd;stroke:none;stroke-width:0.5;stroke-linecap:butt;stroke-linejoin:miter;stroke-miterlimit:4;stroke-dasharray:none;stroke-dashoffset:0;stroke-opacity:1;color-rendering:auto;image-rendering:auto;shape-rendering:auto;text-rendering:auto;enable-background:accumulate"
         id="circle4668"
         cx="-503.17691"
         cy="962.52209"
         r="291.92392" />
    </clipPath>
    <clipPath
       id="clipPath4666-6"
       clipPathUnits="userSpaceOnUse">
      <circle
         style="color:#000000;clip-rule:nonzero;display:inline;overflow:visible;visibility:visible;opacity:1;isolation:auto;mix-blend-mode:normal;color-interpolation:sRGB;color-interpolation-filters:linearRGB;solid-color:#000000;solid-opacity:1;fill:#3975be;fill-opacity:1;fill-rule:evenodd;stroke:none;stroke-width:0.5;stroke-linecap:butt;stroke-linejoin:miter;stroke-miterlimit:4;stroke-dasharray:none;stroke-dashoffset:0;stroke-opacity:1;color-rendering:auto;image-rendering:auto;shape-rendering:auto;text-rendering:auto;enable-background:accumulate"
         id="circle4668-7"
         cx="-503.17691"
         cy="962.52209"
         r="291.92392" />
    </clipPath>
    <clipPath
       id="clipPath4666-3"
       clipPathUnits="userSpaceOnUse">
      <circle
         style="color:#000000;clip-rule:nonzero;display:inline;overflow:visible;visibility:visible;opacity:1;isolation:auto;mix-blend-mode:normal;color-interpolation:sRGB;color-interpolation-filters:linearRGB;solid-color:#000000;solid-opacity:1;fill:#3975be;fill-opacity:1;fill-rule:evenodd;stroke:none;stroke-width:0.5;stroke-linecap:butt;stroke-linejoin:miter;stroke-miterlimit:4;stroke-dasharray:none;stroke-dashoffset:0;stroke-opacity:1;color-rendering:auto;image-rendering:auto;shape-rendering:auto;text-rendering:auto;enable-background:accumulate"
         id="circle4668-2"
         cx="-503.17691"
         cy="962.52209"
         r="291.92392" />
    </clipPath>
    <clipPath
       id="clipPath4666-7"
       clipPathUnits="userSpaceOnUse">
      <circle
         style="color:#000000;clip-rule:nonzero;display:inline;overflow:visible;visibility:visible;opacity:1;isolation:auto;mix-blend-mode:normal;color-interpolation:sRGB;color-interpolation-filters:linearRGB;solid-color:#000000;solid-opacity:1;fill:#3975be;fill-opacity:1;fill-rule:evenodd;stroke:none;stroke-width:0.5;stroke-linecap:butt;stroke-linejoin:miter;stroke-miterlimit:4;stroke-dasharray:none;stroke-dashoffset:0;stroke-opacity:1;color-rendering:auto;image-rendering:auto;shape-rendering:auto;text-rendering:auto;enable-background:accumulate"
         id="circle4668-0"
         cx="-503.17691"
         cy="962.52209"
         r="291.92392" />
    </clipPath>
    <clipPath
       id="clipPath4666-34"
       clipPathUnits="userSpaceOnUse">
      <circle
         style="color:#000000;clip-rule:nonzero;display:inline;overflow:visible;visibility:visible;opacity:1;isolation:auto;mix-blend-mode:normal;color-interpolation:sRGB;color-interpolation-filters:linearRGB;solid-color:#000000;solid-opacity:1;fill:#3975be;fill-opacity:1;fill-rule:evenodd;stroke:none;stroke-width:0.5;stroke-linecap:butt;stroke-linejoin:miter;stroke-miterlimit:4;stroke-dasharray:none;stroke-dashoffset:0;stroke-opacity:1;color-rendering:auto;image-rendering:auto;shape-rendering:auto;text-rendering:auto;enable-background:accumulate"
         id="circle4668-72"
         cx="-503.17691"
         cy="962.52209"
         r="291.92392" />
    </clipPath>
    <clipPath
       id="clipPath4666-1"
       clipPathUnits="userSpaceOnUse">
      <circle
         style="color:#000000;clip-rule:nonzero;display:inline;overflow:visible;visibility:visible;opacity:1;isolation:auto;mix-blend-mode:normal;color-interpolation:sRGB;color-interpolation-filters:linearRGB;solid-color:#000000;solid-opacity:1;fill:#3975be;fill-opacity:1;fill-rule:evenodd;stroke:none;stroke-width:0.5;stroke-linecap:butt;stroke-linejoin:miter;stroke-miterlimit:4;stroke-dasharray:none;stroke-dashoffset:0;stroke-opacity:1;color-rendering:auto;image-rendering:auto;shape-rendering:auto;text-rendering:auto;enable-background:accumulate"
         id="circle4668-77"
         cx="-503.17691"
         cy="962.52209"
         r="291.92392" />
    </clipPath>
    <clipPath
       id="clipPath4666-0"
       clipPathUnits="userSpaceOnUse">
      <circle
         style="color:#000000;clip-rule:nonzero;display:inline;overflow:visible;visibility:visible;opacity:1;isolation:auto;mix-blend-mode:normal;color-interpolation:sRGB;color-interpolation-filters:linearRGB;solid-color:#000000;solid-opacity:1;fill:#3975be;fill-opacity:1;fill-rule:evenodd;stroke:none;stroke-width:0.5;stroke-linecap:butt;stroke-linejoin:miter;stroke-miterlimit:4;stroke-dasharray:none;stroke-dashoffset:0;stroke-opacity:1;color-rendering:auto;image-rendering:auto;shape-rendering:auto;text-rendering:auto;enable-background:accumulate"
         id="circle4668-9"
         cx="-503.17691"
         cy="962.52209"
         r="291.92392" />
    </clipPath>
    <clipPath
       id="clipPath4666-78"
       clipPathUnits="userSpaceOnUse">
      <circle
         style="color:#000000;clip-rule:nonzero;display:inline;overflow:visible;visibility:visible;opacity:1;isolation:auto;mix-blend-mode:normal;color-interpolation:sRGB;color-interpolation-filters:linearRGB;solid-color:#000000;solid-opacity:1;fill:#3975be;fill-opacity:1;fill-rule:evenodd;stroke:none;stroke-width:0.5;stroke-linecap:butt;stroke-linejoin:miter;stroke-miterlimit:4;stroke-dasharray:none;stroke-dashoffset:0;stroke-opacity:1;color-rendering:auto;image-rendering:auto;shape-rendering:auto;text-rendering:auto;enable-background:accumulate"
         id="circle4668-4"
         cx="-503.17691"
         cy="962.52209"
         r="291.92392" />
    </clipPath>
    <clipPath
       id="clipPath4666-73"
       clipPathUnits="userSpaceOnUse">
      <circle
         style="color:#000000;clip-rule:nonzero;display:inline;overflow:visible;visibility:visible;opacity:1;isolation:auto;mix-blend-mode:normal;color-interpolation:sRGB;color-interpolation-filters:linearRGB;solid-color:#000000;solid-opacity:1;fill:#3975be;fill-opacity:1;fill-rule:evenodd;stroke:none;stroke-width:0.5;stroke-linecap:butt;stroke-linejoin:miter;stroke-miterlimit:4;stroke-dasharray:none;stroke-dashoffset:0;stroke-opacity:1;color-rendering:auto;image-rendering:auto;shape-rendering:auto;text-rendering:auto;enable-background:accumulate"
         id="circle4668-27"
         cx="-503.17691"
         cy="962.52209"
         r="291.92392" />
    </clipPath>
    <filter
       height="1.444"
       y="-0.222"
       width="1.444"
       x="-0.222"
       id="filter4658"
       style="color-interpolation-filters:sRGB"
       inkscape:collect="always">
      <feGaussianBlur
         id="feGaussianBlur4660"
         stdDeviation="47.042858"
         inkscape:collect="always" />
    </filter>
    <filter
       height="1.1248"
       y="-0.062399998"
       width="1.1248"
       x="-0.062399998"
       id="filter4617"
       style="color-interpolation-filters:sRGB"
       inkscape:collect="always">
      <feGaussianBlur
         id="feGaussianBlur4619"
         stdDeviation="13.222857"
         inkscape:collect="always" />
    </filter>
    <filter
       inkscape:collect="always"
       style="color-interpolation-filters:sRGB"
       id="filter10991"
       x="-0.1146087"
       width="1.2292174"
       y="-0.15561359"
       height="1.3112272">
      <feGaussianBlur
         inkscape:collect="always"
         stdDeviation="27.472375"
         id="feGaussianBlur10993" />
    </filter>
  </defs>
  <sodipodi:namedview
     id="base"
     pagecolor="#ffffff"
     bordercolor="#666666"
     borderopacity="1.0"
     inkscape:pageopacity="0.0"
     inkscape:pageshadow="2"
     inkscape:zoom="0.35"
     inkscape:cx="422.042"
     inkscape:cy="92.756436"
     inkscape:document-units="px"
     inkscape:current-layer="layer1"
     showgrid="false"
     fit-margin-top="0"
     fit-margin-left="0"
     fit-margin-right="0"
     fit-margin-bottom="0"
     inkscape:window-width="1280"
     inkscape:window-height="961"
     inkscape:window-x="-8"
     inkscape:window-y="3"
     inkscape:window-maximized="1" />
  <metadata
     id="metadata4717">
    <rdf:RDF>
      <cc:Work
         rdf:about="">
        <dc:format>image/svg+xml</dc:format>
        <dc:type
           rdf:resource="http://purl.org/dc/dcmitype/StillImage" />
        <dc:title></dc:title>
      </cc:Work>
    </rdf:RDF>
  </metadata>
  <g
     inkscape:label="Layer 1"
     inkscape:groupmode="layer"
     id="layer1"
     transform="translate(-135.81517,-110.22055)">
    <g
       transform="translate(1582.6612,-770.51014)"
       id="g13483">
      <g
         id="g9246"
         transform="translate(1220.2642,630.33519)">
        <g
           id="g9248">
          <circle
             style="color:#000000;clip-rule:nonzero;display:inline;overflow:visible;visibility:visible;opacity:1;isolation:auto;mix-blend-mode:normal;color-interpolation:sRGB;color-interpolation-filters:linearRGB;solid-color:#000000;solid-opacity:1;fill:#ff6600;fill-opacity:1;fill-rule:evenodd;stroke:none;stroke-width:0.5;stroke-linecap:butt;stroke-linejoin:miter;stroke-miterlimit:4;stroke-dasharray:none;stroke-dashoffset:0;stroke-opacity:1;color-rendering:auto;image-rendering:auto;shape-rendering:auto;text-rendering:auto;enable-background:accumulate"
             id="circle9250"
             cx="-2379.6611"
             cy="537.8446"
             r="254.28572" />
          <circle
             r="254.28572"
             cy="972.36224"
             cx="-522.85718"
             id="circle9252"
             style="color:#000000;clip-rule:nonzero;display:inline;overflow:visible;visibility:visible;opacity:1;isolation:auto;mix-blend-mode:normal;color-interpolation:sRGB;color-interpolation-filters:linearRGB;solid-color:#000000;solid-opacity:1;fill:none;fill-opacity:1;fill-rule:evenodd;stroke:#aa4400;stroke-width:100;stroke-linecap:butt;stroke-linejoin:miter;stroke-miterlimit:4;stroke-dasharray:none;stroke-dashoffset:0;stroke-opacity:1;filter:url(#filter4658);color-rendering:auto;image-rendering:auto;shape-rendering:auto;text-rendering:auto;enable-background:accumulate"
             clip-path="url(#clipPath4666-73)"
             transform="matrix(0.87106845,0,0,0.87106845,-1941.3596,-300.57802)" />
        </g>
        <circle
           transform="matrix(1.0049946,0,0,1.0049946,-1839.8354,545.52054)"
           r="254.28572"
           cy="-7.6377606"
           cx="-537.14288"
           id="circle9254"
           style="color:#000000;clip-rule:nonzero;display:inline;overflow:visible;visibility:visible;opacity:0.34299999;isolation:auto;mix-blend-mode:normal;color-interpolation:sRGB;color-interpolation-filters:linearRGB;solid-color:#000000;solid-opacity:1;fill:none;fill-opacity:1;fill-rule:evenodd;stroke:#1a1a1a;stroke-width:50;stroke-linecap:butt;stroke-linejoin:miter;stroke-miterlimit:3.5999999;stroke-dasharray:none;stroke-dashoffset:0;stroke-opacity:1;filter:url(#filter4617);color-rendering:auto;image-rendering:auto;shape-rendering:auto;text-rendering:auto;enable-background:accumulate" />
        <circle
           style="color:#000000;clip-rule:nonzero;display:inline;overflow:visible;visibility:visible;opacity:1;isolation:auto;mix-blend-mode:normal;color-interpolation:sRGB;color-interpolation-filters:linearRGB;solid-color:#000000;solid-opacity:1;fill:none;fill-opacity:1;fill-rule:evenodd;stroke:#ffffff;stroke-width:34.81603241;stroke-linecap:butt;stroke-linejoin:miter;stroke-miterlimit:4;stroke-dasharray:none;stroke-dashoffset:0;stroke-opacity:1;color-rendering:auto;image-rendering:auto;shape-rendering:auto;text-rendering:auto;enable-background:accumulate"
           id="circle9256"
           cx="-2379.6611"
           cy="537.84467"
           r="252.94913" />
      </g>
      <g
         transform="matrix(0.61198534,0,0,0.61198534,-594.78584,3.7399683)"
         id="g11015">
        <path
           inkscape:connector-curvature="0"
           d="m -643.0842,1905.8955 -46.389,-1.934 0,-51.445 c 0,-3.941 -2.73,-7.381 -6.586,-8.262 l -76.402,-17.503 0,-68.385 c 0,-3.415 -2.068,-6.5 -5.213,-7.821 l -141.666,-59.034 c 0,0 -1.42,-0.625 -3.244,-0.637 -1.824,-0.012 -3.28,0.637 -3.28,0.637 l -141.666,59.034 c -3.158,1.31 -5.214,4.394 -5.214,7.821 l 0,68.385 -76.402,17.503 c -3.855,0.881 -6.585,4.309 -6.585,8.262 l 0,51.445 -46.39,1.934 c -4.541,0.183 -8.115,3.917 -8.115,8.458 l 0,98.691 c 0,3.659 2.326,6.891 5.79,8.041 l 279.17,93.062 c 0,0 1.212,0.403 2.644,0.428 1.443,0.013 2.717,-0.428 2.717,-0.428 l 279.17,-93.062 c 3.465,-1.15 5.803,-4.382 5.803,-8.029 l 0,-98.703 c -0.015,-4.541 -3.601,-8.275 -8.142,-8.458 z m -509.367,83.942 c 0,0.856 -0.379,1.664 -1.041,2.203 -0.514,0.403 -1.138,0.637 -1.787,0.637 -0.196,0 -0.392,-0.024 -0.575,-0.062 l -40.722,-8.494 c -1.31,-0.282 -2.252,-1.42 -2.252,-2.767 l 0,-16.818 c 0,-0.808 0.355,-1.603 0.979,-2.142 0.612,-0.526 1.444,-0.771 2.252,-0.661 l 40.723,5.937 c 1.383,0.208 2.411,1.396 2.411,2.803 l 0,19.364 0.012,0 z m 0,-38.703 c 0,0.783 -0.331,1.542 -0.906,2.081 -0.526,0.478 -1.212,0.734 -1.909,0.734 -0.074,0 -0.159,0 -0.233,-0.013 l -40.722,-3.391 c -1.469,-0.122 -2.595,-1.334 -2.595,-2.803 l 0,-16.817 c 0,-0.747 0.306,-1.481 0.845,-2.008 0.539,-0.538 1.261,-0.832 2.032,-0.808 l 40.723,0.845 c 1.542,0.036 2.766,1.285 2.766,2.815 l 0,19.365 z m 34.774,24.419 c 0,0.82 -0.355,1.604 -0.979,2.142 -0.514,0.44 -1.175,0.698 -1.848,0.698 -0.134,0 -0.269,-0.013 -0.404,-0.037 l -18.311,-2.668 c -1.396,-0.208 -2.423,-1.396 -2.423,-2.791 l 0,-40.771 c 0,-0.759 0.306,-1.481 0.844,-2.02 0.539,-0.526 1.261,-0.82 2.044,-0.796 l 18.311,0.38 c 1.542,0.036 2.766,1.272 2.766,2.815 l 0,43.048 0,0 z m 0,-64.578 c 0,1.518 -1.2,2.766 -2.705,2.827 l -18.311,0.759 c -0.037,0 -0.073,0 -0.123,0 -0.734,0 -1.432,-0.281 -1.958,-0.796 -0.551,-0.526 -0.869,-1.272 -0.869,-2.031 l 0,-40.772 c 0,-1.383 1.003,-2.558 2.362,-2.791 l 18.311,-3.047 c 0.82,-0.147 1.652,0.098 2.289,0.624 0.637,0.539 1.004,1.322 1.004,2.167 l 0,43.06 z m 43.562,70.942 c 0,0.809 -0.355,1.604 -0.979,2.143 -0.526,0.44 -1.175,0.686 -1.848,0.686 -0.135,0 -0.27,-0.013 -0.404,-0.024 l -23.084,-3.366 c -1.383,-0.208 -2.411,-1.384 -2.411,-2.803 l 0,-45.606 c 0,-0.759 0.306,-1.493 0.844,-2.02 0.539,-0.539 1.273,-0.845 2.032,-0.809 l 23.084,0.49 c 1.53,0.024 2.766,1.272 2.766,2.815 l 0,48.494 0,0 z m 0,-72.766 c 0,1.518 -1.187,2.767 -2.705,2.815 l -23.084,0.967 c -0.037,0 -0.073,0 -0.123,0 -0.722,0 -1.432,-0.281 -1.958,-0.783 -0.551,-0.538 -0.869,-1.273 -0.869,-2.044 l 0,-45.607 c 0,-1.383 1.003,-2.558 2.362,-2.791 l 23.072,-3.843 c 0.82,-0.135 1.652,0.098 2.289,0.636 0.636,0.539 1.003,1.322 1.003,2.154 l 0,48.495 0.013,0 z m 131.384,91.923 c 0,0.808 -0.355,1.604 -0.979,2.13 -0.514,0.452 -1.175,0.697 -1.848,0.697 -0.134,0 -0.269,-0.012 -0.416,-0.024 l -105.19,-15.349 c -1.383,-0.208 -2.412,-1.384 -2.412,-2.804 l 0,-51.763 c 0,-0.759 0.306,-1.493 0.845,-2.02 0.551,-0.538 1.285,-0.845 2.032,-0.808 l 105.191,2.203 c 1.53,0.024 2.766,1.272 2.766,2.815 l 0,64.921 0.011,0 z m 0,-97.395 c 0,1.519 -1.188,2.767 -2.705,2.815 l -105.19,4.382 c -0.037,0 -0.074,0 -0.11,0 -0.734,0 -1.432,-0.269 -1.958,-0.783 -0.551,-0.526 -0.869,-1.272 -0.869,-2.031 l 0,-51.776 c 0,-1.383 1.003,-2.558 2.362,-2.791 l 105.19,-17.54 c 0.82,-0.135 1.652,0.098 2.289,0.636 0.637,0.539 1.004,1.322 1.004,2.154 l 0,64.933 -0.013,0 z m 0,-97.393 c 0,1.322 -0.906,2.46 -2.191,2.766 l -105.19,24.113 c -0.208,0.037 -0.417,0.062 -0.625,0.062 -0.636,0 -1.261,-0.208 -1.763,-0.612 -0.673,-0.539 -1.064,-1.346 -1.064,-2.215 l 0,-51.775 c 0,-1.199 0.759,-2.264 1.885,-2.656 l 105.19,-37.259 c 0.869,-0.306 1.824,-0.184 2.57,0.355 0.747,0.526 1.188,1.383 1.188,2.313 l 0,64.908 z m 86.438,188.875 c 0,1.396 -1.027,2.595 -2.41,2.803 l -40.527,5.912 c -0.135,0.013 -0.281,0.024 -0.416,0.024 -0.674,0 -1.322,-0.232 -1.848,-0.697 -0.625,-0.526 -0.98,-1.31 -0.98,-2.13 l 0,-64.934 c 0,-1.542 1.225,-2.791 2.768,-2.815 l 40.539,-0.844 c 0.758,-0.05 1.492,0.269 2.031,0.795 0.539,0.539 0.844,1.273 0.844,2.02 l 0,59.866 z m 0,-89.792 c 0,0.783 -0.305,1.506 -0.869,2.044 -0.525,0.502 -1.234,0.796 -1.957,0.796 -0.037,0 -0.074,0 -0.123,-0.012 l -40.539,-1.689 c -1.506,-0.062 -2.705,-1.298 -2.705,-2.815 l 0,-64.935 c 0,-0.82 0.367,-1.616 1.004,-2.154 0.637,-0.538 1.469,-0.759 2.289,-0.636 l 40.539,6.756 c 1.359,0.22 2.361,1.408 2.361,2.803 l 0,59.842 0,0 z m 0,-89.781 c 0,0.857 -0.391,1.677 -1.064,2.203 -0.502,0.404 -1.125,0.625 -1.762,0.625 -0.209,0 -0.43,-0.024 -0.637,-0.074 l -40.539,-9.29 c -1.285,-0.293 -2.191,-1.432 -2.191,-2.766 l 0,-64.921 c 0,-0.918 0.441,-1.787 1.199,-2.313 0.748,-0.539 1.715,-0.673 2.57,-0.355 l 40.539,14.357 c 1.127,0.392 1.885,1.469 1.885,2.668 l 0,59.866 0,0 z m 64.664,170.136 c 0,1.408 -1.027,2.596 -2.41,2.804 l -29.988,4.369 c -0.135,0.024 -0.27,0.037 -0.404,0.037 -0.674,0 -1.334,-0.245 -1.848,-0.698 -0.625,-0.538 -0.98,-1.31 -0.98,-2.142 l 0,-55.521 c 0,-1.542 1.236,-2.803 2.768,-2.815 l 29.988,-0.637 c 0.77,-0.061 1.48,0.282 2.031,0.809 0.539,0.525 0.844,1.26 0.844,2.02 l 0,51.774 z m 0,-77.65 c 0,0.759 -0.305,1.506 -0.869,2.032 -0.525,0.514 -1.236,0.783 -1.957,0.783 -0.037,0 -0.074,0 -0.111,0 l -29.988,-1.248 c -1.518,-0.062 -2.717,-1.311 -2.717,-2.828 l 0,-55.521 c 0,-0.832 0.367,-1.628 1.004,-2.154 0.637,-0.539 1.469,-0.783 2.289,-0.636 l 29.988,4.994 c 1.359,0.233 2.361,1.396 2.361,2.791 l 0,51.787 0,0 z m 0,-77.676 c 0,0.857 -0.391,1.677 -1.064,2.215 -0.514,0.404 -1.125,0.612 -1.762,0.612 -0.209,0 -0.416,-0.025 -0.625,-0.062 l -29.988,-6.879 c -1.285,-0.293 -2.203,-1.444 -2.203,-2.766 l 0,-55.521 c 0,-0.918 0.453,-1.787 1.199,-2.313 0.76,-0.526 1.715,-0.661 2.57,-0.355 l 29.988,10.625 c 1.127,0.392 1.885,1.457 1.885,2.656 l 0,51.788 0,0 z m 88.069,142.487 c 0,1.395 -1.029,2.595 -2.424,2.79 l -61.873,9.021 c -0.135,0.012 -0.281,0.024 -0.416,0.024 -0.674,0 -1.336,-0.232 -1.85,-0.686 -0.623,-0.539 -0.979,-1.322 -0.979,-2.143 l 0,-24.247 c 0,-1.469 1.125,-2.692 2.582,-2.827 l 61.873,-5.153 c 0.783,-0.073 1.566,0.208 2.143,0.747 0.576,0.525 0.918,1.285 0.918,2.08 l 0,20.393 0.026,0 z m 0,-40.771 c 0,1.542 -1.236,2.803 -2.768,2.814 l -61.873,1.298 c -0.012,0 -0.037,0 -0.061,0 -0.734,0 -1.445,-0.281 -1.982,-0.796 -0.539,-0.538 -0.846,-1.272 -0.846,-2.02 l 0,-24.247 c 0,-0.759 0.307,-1.506 0.869,-2.032 0.551,-0.538 1.311,-0.808 2.068,-0.783 l 61.873,2.583 c 1.518,0.061 2.705,1.297 2.705,2.814 l 0,20.368 0.015,0 z m 0,-40.773 c 0,0.796 -0.344,1.567 -0.943,2.105 -0.514,0.465 -1.199,0.734 -1.885,0.734 -0.098,0 -0.195,-0.012 -0.293,-0.024 l -61.875,-6.438 c -1.432,-0.147 -2.533,-1.358 -2.533,-2.803 l 0,-24.247 c 0,-0.82 0.367,-1.616 1.004,-2.154 0.637,-0.538 1.469,-0.759 2.289,-0.636 l 61.873,10.318 c 1.359,0.233 2.363,1.396 2.363,2.791 l 0,20.354 0,0 z m 38.262,93.967 c 0,1.322 -0.943,2.485 -2.252,2.767 l -14.174,2.95 c -0.197,0.036 -0.381,0.061 -0.576,0.061 -0.648,0 -1.273,-0.232 -1.787,-0.636 -0.66,-0.539 -1.039,-1.335 -1.039,-2.191 l 0,-18.887 c 0,-1.395 1.027,-2.595 2.422,-2.79 l 14.174,-2.069 c 0.809,-0.122 1.641,0.135 2.254,0.661 0.623,0.539 0.979,1.322 0.979,2.143 l 0,17.991 z m 0,-35.985 c 0,1.469 -1.127,2.692 -2.596,2.803 l -14.174,1.188 c -0.072,0.013 -0.158,0.013 -0.232,0.013 -0.709,0 -1.395,-0.258 -1.908,-0.747 -0.576,-0.539 -0.92,-1.285 -0.92,-2.081 l 0,-18.886 c 0,-1.53 1.236,-2.791 2.768,-2.815 l 14.174,-0.294 c 0.746,-0.049 1.492,0.27 2.043,0.808 0.539,0.526 0.846,1.261 0.846,2.008 l 0,18.003 z m 24.687,30.833 c 0,1.334 -0.941,2.496 -2.252,2.766 l -11.799,2.46 c -0.197,0.037 -0.381,0.062 -0.576,0.062 -0.648,0 -1.273,-0.22 -1.787,-0.637 -0.66,-0.538 -1.039,-1.334 -1.039,-2.19 l 0,-17.186 c 0,-1.407 1.027,-2.595 2.422,-2.79 l 11.787,-1.727 c 0.809,-0.122 1.641,0.123 2.266,0.661 0.623,0.539 0.979,1.31 0.979,2.143 l 0,16.438 -0.001,0 z m 0,-32.89 c 0,1.457 -1.125,2.693 -2.582,2.804 l -11.799,0.979 c -0.074,0.013 -0.16,0.013 -0.234,0.013 -0.709,0 -1.383,-0.257 -1.908,-0.734 -0.576,-0.539 -0.918,-1.298 -0.918,-2.081 l 0,-17.185 c 0,-1.543 1.236,-2.804 2.766,-2.828 l 11.799,-0.257 c 0.76,-0.049 1.494,0.27 2.033,0.808 0.537,0.526 0.844,1.261 0.844,2.008 l 0,16.473 z"
           id="path10989"
           style="filter:url(#filter10991)" />
        <path
           id="path10932"
           d="m -643.0842,1905.8955 -46.389,-1.934 0,-51.445 c 0,-3.941 -2.73,-7.381 -6.586,-8.262 l -76.402,-17.503 0,-68.385 c 0,-3.415 -2.068,-6.5 -5.213,-7.821 l -141.666,-59.034 c 0,0 -1.42,-0.625 -3.244,-0.637 -1.824,-0.012 -3.28,0.637 -3.28,0.637 l -141.666,59.034 c -3.158,1.31 -5.214,4.394 -5.214,7.821 l 0,68.385 -76.402,17.503 c -3.855,0.881 -6.585,4.309 -6.585,8.262 l 0,51.445 -46.39,1.934 c -4.541,0.183 -8.115,3.917 -8.115,8.458 l 0,98.691 c 0,3.659 2.326,6.891 5.79,8.041 l 279.17,93.062 c 0,0 1.212,0.403 2.644,0.428 1.443,0.013 2.717,-0.428 2.717,-0.428 l 279.17,-93.062 c 3.465,-1.15 5.803,-4.382 5.803,-8.029 l 0,-98.703 c -0.015,-4.541 -3.601,-8.275 -8.142,-8.458 z m -509.367,83.942 c 0,0.856 -0.379,1.664 -1.041,2.203 -0.514,0.403 -1.138,0.637 -1.787,0.637 -0.196,0 -0.392,-0.024 -0.575,-0.062 l -40.722,-8.494 c -1.31,-0.282 -2.252,-1.42 -2.252,-2.767 l 0,-16.818 c 0,-0.808 0.355,-1.603 0.979,-2.142 0.612,-0.526 1.444,-0.771 2.252,-0.661 l 40.723,5.937 c 1.383,0.208 2.411,1.396 2.411,2.803 l 0,19.364 0.012,0 z m 0,-38.703 c 0,0.783 -0.331,1.542 -0.906,2.081 -0.526,0.478 -1.212,0.734 -1.909,0.734 -0.074,0 -0.159,0 -0.233,-0.013 l -40.722,-3.391 c -1.469,-0.122 -2.595,-1.334 -2.595,-2.803 l 0,-16.817 c 0,-0.747 0.306,-1.481 0.845,-2.008 0.539,-0.538 1.261,-0.832 2.032,-0.808 l 40.723,0.845 c 1.542,0.036 2.766,1.285 2.766,2.815 l 0,19.365 z m 34.774,24.419 c 0,0.82 -0.355,1.604 -0.979,2.142 -0.514,0.44 -1.175,0.698 -1.848,0.698 -0.134,0 -0.269,-0.013 -0.404,-0.037 l -18.311,-2.668 c -1.396,-0.208 -2.423,-1.396 -2.423,-2.791 l 0,-40.771 c 0,-0.759 0.306,-1.481 0.844,-2.02 0.539,-0.526 1.261,-0.82 2.044,-0.796 l 18.311,0.38 c 1.542,0.036 2.766,1.272 2.766,2.815 l 0,43.048 0,0 z m 0,-64.578 c 0,1.518 -1.2,2.766 -2.705,2.827 l -18.311,0.759 c -0.037,0 -0.073,0 -0.123,0 -0.734,0 -1.432,-0.281 -1.958,-0.796 -0.551,-0.526 -0.869,-1.272 -0.869,-2.031 l 0,-40.772 c 0,-1.383 1.003,-2.558 2.362,-2.791 l 18.311,-3.047 c 0.82,-0.147 1.652,0.098 2.289,0.624 0.637,0.539 1.004,1.322 1.004,2.167 l 0,43.06 z m 43.562,70.942 c 0,0.809 -0.355,1.604 -0.979,2.143 -0.526,0.44 -1.175,0.686 -1.848,0.686 -0.135,0 -0.27,-0.013 -0.404,-0.024 l -23.084,-3.366 c -1.383,-0.208 -2.411,-1.384 -2.411,-2.803 l 0,-45.606 c 0,-0.759 0.306,-1.493 0.844,-2.02 0.539,-0.539 1.273,-0.845 2.032,-0.809 l 23.084,0.49 c 1.53,0.024 2.766,1.272 2.766,2.815 l 0,48.494 0,0 z m 0,-72.766 c 0,1.518 -1.187,2.767 -2.705,2.815 l -23.084,0.967 c -0.037,0 -0.073,0 -0.123,0 -0.722,0 -1.432,-0.281 -1.958,-0.783 -0.551,-0.538 -0.869,-1.273 -0.869,-2.044 l 0,-45.607 c 0,-1.383 1.003,-2.558 2.362,-2.791 l 23.072,-3.843 c 0.82,-0.135 1.652,0.098 2.289,0.636 0.636,0.539 1.003,1.322 1.003,2.154 l 0,48.495 0.013,0 z m 131.384,91.923 c 0,0.808 -0.355,1.604 -0.979,2.13 -0.514,0.452 -1.175,0.697 -1.848,0.697 -0.134,0 -0.269,-0.012 -0.416,-0.024 l -105.19,-15.349 c -1.383,-0.208 -2.412,-1.384 -2.412,-2.804 l 0,-51.763 c 0,-0.759 0.306,-1.493 0.845,-2.02 0.551,-0.538 1.285,-0.845 2.032,-0.808 l 105.191,2.203 c 1.53,0.024 2.766,1.272 2.766,2.815 l 0,64.921 0.011,0 z m 0,-97.395 c 0,1.519 -1.188,2.767 -2.705,2.815 l -105.19,4.382 c -0.037,0 -0.074,0 -0.11,0 -0.734,0 -1.432,-0.269 -1.958,-0.783 -0.551,-0.526 -0.869,-1.272 -0.869,-2.031 l 0,-51.776 c 0,-1.383 1.003,-2.558 2.362,-2.791 l 105.19,-17.54 c 0.82,-0.135 1.652,0.098 2.289,0.636 0.637,0.539 1.004,1.322 1.004,2.154 l 0,64.933 -0.013,0 z m 0,-97.393 c 0,1.322 -0.906,2.46 -2.191,2.766 l -105.19,24.113 c -0.208,0.037 -0.417,0.062 -0.625,0.062 -0.636,0 -1.261,-0.208 -1.763,-0.612 -0.673,-0.539 -1.064,-1.346 -1.064,-2.215 l 0,-51.775 c 0,-1.199 0.759,-2.264 1.885,-2.656 l 105.19,-37.259 c 0.869,-0.306 1.824,-0.184 2.57,0.355 0.747,0.526 1.188,1.383 1.188,2.313 l 0,64.908 z m 86.438,188.875 c 0,1.396 -1.027,2.595 -2.41,2.803 l -40.527,5.912 c -0.135,0.013 -0.281,0.024 -0.416,0.024 -0.674,0 -1.322,-0.232 -1.848,-0.697 -0.625,-0.526 -0.98,-1.31 -0.98,-2.13 l 0,-64.934 c 0,-1.542 1.225,-2.791 2.768,-2.815 l 40.539,-0.844 c 0.758,-0.05 1.492,0.269 2.031,0.795 0.539,0.539 0.844,1.273 0.844,2.02 l 0,59.866 z m 0,-89.792 c 0,0.783 -0.305,1.506 -0.869,2.044 -0.525,0.502 -1.234,0.796 -1.957,0.796 -0.037,0 -0.074,0 -0.123,-0.012 l -40.539,-1.689 c -1.506,-0.062 -2.705,-1.298 -2.705,-2.815 l 0,-64.935 c 0,-0.82 0.367,-1.616 1.004,-2.154 0.637,-0.538 1.469,-0.759 2.289,-0.636 l 40.539,6.756 c 1.359,0.22 2.361,1.408 2.361,2.803 l 0,59.842 0,0 z m 0,-89.781 c 0,0.857 -0.391,1.677 -1.064,2.203 -0.502,0.404 -1.125,0.625 -1.762,0.625 -0.209,0 -0.43,-0.024 -0.637,-0.074 l -40.539,-9.29 c -1.285,-0.293 -2.191,-1.432 -2.191,-2.766 l 0,-64.921 c 0,-0.918 0.441,-1.787 1.199,-2.313 0.748,-0.539 1.715,-0.673 2.57,-0.355 l 40.539,14.357 c 1.127,0.392 1.885,1.469 1.885,2.668 l 0,59.866 0,0 z m 64.664,170.136 c 0,1.408 -1.027,2.596 -2.41,2.804 l -29.988,4.369 c -0.135,0.024 -0.27,0.037 -0.404,0.037 -0.674,0 -1.334,-0.245 -1.848,-0.698 -0.625,-0.538 -0.98,-1.31 -0.98,-2.142 l 0,-55.521 c 0,-1.542 1.236,-2.803 2.768,-2.815 l 29.988,-0.637 c 0.77,-0.061 1.48,0.282 2.031,0.809 0.539,0.525 0.844,1.26 0.844,2.02 l 0,51.774 z m 0,-77.65 c 0,0.759 -0.305,1.506 -0.869,2.032 -0.525,0.514 -1.236,0.783 -1.957,0.783 -0.037,0 -0.074,0 -0.111,0 l -29.988,-1.248 c -1.518,-0.062 -2.717,-1.311 -2.717,-2.828 l 0,-55.521 c 0,-0.832 0.367,-1.628 1.004,-2.154 0.637,-0.539 1.469,-0.783 2.289,-0.636 l 29.988,4.994 c 1.359,0.233 2.361,1.396 2.361,2.791 l 0,51.787 0,0 z m 0,-77.676 c 0,0.857 -0.391,1.677 -1.064,2.215 -0.514,0.404 -1.125,0.612 -1.762,0.612 -0.209,0 -0.416,-0.025 -0.625,-0.062 l -29.988,-6.879 c -1.285,-0.293 -2.203,-1.444 -2.203,-2.766 l 0,-55.521 c 0,-0.918 0.453,-1.787 1.199,-2.313 0.76,-0.526 1.715,-0.661 2.57,-0.355 l 29.988,10.625 c 1.127,0.392 1.885,1.457 1.885,2.656 l 0,51.788 0,0 z m 88.069,142.487 c 0,1.395 -1.029,2.595 -2.424,2.79 l -61.873,9.021 c -0.135,0.012 -0.281,0.024 -0.416,0.024 -0.674,0 -1.336,-0.232 -1.85,-0.686 -0.623,-0.539 -0.979,-1.322 -0.979,-2.143 l 0,-24.247 c 0,-1.469 1.125,-2.692 2.582,-2.827 l 61.873,-5.153 c 0.783,-0.073 1.566,0.208 2.143,0.747 0.576,0.525 0.918,1.285 0.918,2.08 l 0,20.393 0.026,0 z m 0,-40.771 c 0,1.542 -1.236,2.803 -2.768,2.814 l -61.873,1.298 c -0.012,0 -0.037,0 -0.061,0 -0.734,0 -1.445,-0.281 -1.982,-0.796 -0.539,-0.538 -0.846,-1.272 -0.846,-2.02 l 0,-24.247 c 0,-0.759 0.307,-1.506 0.869,-2.032 0.551,-0.538 1.311,-0.808 2.068,-0.783 l 61.873,2.583 c 1.518,0.061 2.705,1.297 2.705,2.814 l 0,20.368 0.015,0 z m 0,-40.773 c 0,0.796 -0.344,1.567 -0.943,2.105 -0.514,0.465 -1.199,0.734 -1.885,0.734 -0.098,0 -0.195,-0.012 -0.293,-0.024 l -61.875,-6.438 c -1.432,-0.147 -2.533,-1.358 -2.533,-2.803 l 0,-24.247 c 0,-0.82 0.367,-1.616 1.004,-2.154 0.637,-0.538 1.469,-0.759 2.289,-0.636 l 61.873,10.318 c 1.359,0.233 2.363,1.396 2.363,2.791 l 0,20.354 0,0 z m 38.262,93.967 c 0,1.322 -0.943,2.485 -2.252,2.767 l -14.174,2.95 c -0.197,0.036 -0.381,0.061 -0.576,0.061 -0.648,0 -1.273,-0.232 -1.787,-0.636 -0.66,-0.539 -1.039,-1.335 -1.039,-2.191 l 0,-18.887 c 0,-1.395 1.027,-2.595 2.422,-2.79 l 14.174,-2.069 c 0.809,-0.122 1.641,0.135 2.254,0.661 0.623,0.539 0.979,1.322 0.979,2.143 l 0,17.991 z m 0,-35.985 c 0,1.469 -1.127,2.692 -2.596,2.803 l -14.174,1.188 c -0.072,0.013 -0.158,0.013 -0.232,0.013 -0.709,0 -1.395,-0.258 -1.908,-0.747 -0.576,-0.539 -0.92,-1.285 -0.92,-2.081 l 0,-18.886 c 0,-1.53 1.236,-2.791 2.768,-2.815 l 14.174,-0.294 c 0.746,-0.049 1.492,0.27 2.043,0.808 0.539,0.526 0.846,1.261 0.846,2.008 l 0,18.003 z m 24.687,30.833 c 0,1.334 -0.941,2.496 -2.252,2.766 l -11.799,2.46 c -0.197,0.037 -0.381,0.062 -0.576,0.062 -0.648,0 -1.273,-0.22 -1.787,-0.637 -0.66,-0.538 -1.039,-1.334 -1.039,-2.19 l 0,-17.186 c 0,-1.407 1.027,-2.595 2.422,-2.79 l 11.787,-1.727 c 0.809,-0.122 1.641,0.123 2.266,0.661 0.623,0.539 0.979,1.31 0.979,2.143 l 0,16.438 -0.001,0 z m 0,-32.89 c 0,1.457 -1.125,2.693 -2.582,2.804 l -11.799,0.979 c -0.074,0.013 -0.16,0.013 -0.234,0.013 -0.709,0 -1.383,-0.257 -1.908,-0.734 -0.576,-0.539 -0.918,-1.298 -0.918,-2.081 l 0,-17.185 c 0,-1.543 1.236,-2.804 2.766,-2.828 l 11.799,-0.257 c 0.76,-0.049 1.494,0.27 2.033,0.808 0.537,0.526 0.844,1.261 0.844,2.008 l 0,16.473 z"
           inkscape:connector-curvature="0"
           style="fill:#ffffff" />
      </g>
    </g>
  </g>
</svg>
