<?xml version="1.0" encoding="UTF-8" standalone="no"?>
<!-- Created with Inkscape (http://www.inkscape.org/) -->

<svg
   xmlns:dc="http://purl.org/dc/elements/1.1/"
   xmlns:cc="http://creativecommons.org/ns#"
   xmlns:rdf="http://www.w3.org/1999/02/22-rdf-syntax-ns#"
   xmlns:svg="http://www.w3.org/2000/svg"
   xmlns="http://www.w3.org/2000/svg"
   xmlns:sodipodi="http://sodipodi.sourceforge.net/DTD/sodipodi-0.dtd"
   xmlns:inkscape="http://www.inkscape.org/namespaces/inkscape"
   width="212.55919mm"
   height="37.142464mm"
   viewBox="0 0 753.16248 131.60715"
   id="svg9965"
   version="1.1"
   inkscape:version="0.91 r13725"
   sodipodi:docname="Parkway Pantai.svg">
  <defs
     id="defs9967" />
  <sodipodi:namedview
     id="base"
     pagecolor="#ffffff"
     bordercolor="#666666"
     borderopacity="1.0"
     inkscape:pageopacity="0.0"
     inkscape:pageshadow="2"
     inkscape:zoom="0.35"
     inkscape:cx="-279.84768"
     inkscape:cy="345.80363"
     inkscape:document-units="px"
     inkscape:current-layer="layer1"
     showgrid="false"
     fit-margin-top="0"
     fit-margin-left="0"
     fit-margin-right="0"
     fit-margin-bottom="0"
     inkscape:window-width="1600"
     inkscape:window-height="837"
     inkscape:window-x="-8"
     inkscape:window-y="-8"
     inkscape:window-maximized="1" />
  <metadata
     id="metadata9970">
    <rdf:RDF>
      <cc:Work
         rdf:about="">
        <dc:format>image/svg+xml</dc:format>
        <dc:type
           rdf:resource="http://purl.org/dc/dcmitype/StillImage" />
        <dc:title></dc:title>
      </cc:Work>
    </rdf:RDF>
  </metadata>
  <g
     inkscape:label="Layer 1"
     inkscape:groupmode="layer"
     id="layer1"
     transform="translate(-191.99053,-746.55869)">
    <g
       id="g30485"
       transform="matrix(5.5903122,0,0,5.5903122,-26091.237,-6346.9085)">
      <path
         style="fill:#316f8d;fill-opacity:1;fill-rule:nonzero;stroke:none"
         d="m 4730.9265,1285.1041 c -0.085,-1.7357 -3.5982,-2.3072 -7.8315,-1.2912 -4.2333,1.0372 -7.5564,3.302 -7.4718,5.0588 0.085,1.7356 3.5772,2.3071 7.8105,1.2911 4.2333,-1.0371 7.5987,-3.3019 7.4928,-5.0587 z"
         id="path30414"
         inkscape:connector-curvature="0" />
      <path
         style="fill:#316f8d;fill-opacity:1;fill-rule:nonzero;stroke:none"
         d="m 4714.0992,1285.5274 c -0.063,-1.2065 -2.4765,-1.6087 -5.3974,-0.8678 -2.8998,0.6985 -5.207,2.2859 -5.1223,3.4713 0.042,1.2065 2.4765,1.6086 5.3763,0.8678 2.9209,-0.6985 5.2069,-2.2437 5.1434,-3.4713 z"
         id="path30416"
         inkscape:connector-curvature="0" />
      <path
         style="fill:#316f8d;fill-opacity:1;fill-rule:nonzero;stroke:none"
         d="m 4740.0705,1278.4577 c -0.064,-1.0583 -2.1801,-1.4181 -4.7201,-0.7619 -2.54,0.6138 -4.572,1.9896 -4.5085,3.0479 0.042,1.0372 2.159,1.397 4.699,0.762 2.54,-0.635 4.572,-1.9896 4.5296,-3.048 z"
         id="path30418"
         inkscape:connector-curvature="0" />
      <path
         style="fill:#3f9494;fill-opacity:1;fill-rule:nonzero;stroke:none"
         d="m 4740.8749,1272.4676 c -0.042,-0.8678 -1.6087,-1.1853 -3.4714,-0.6773 -1.8626,0.508 -3.3443,1.6298 -3.302,2.5188 0.064,0.8678 1.6087,1.1853 3.4714,0.6773 1.8626,-0.5079 3.3443,-1.6509 3.302,-2.5188 z"
         id="path30420"
         inkscape:connector-curvature="0" />
      <path
         style="fill:#3f9494;fill-opacity:1;fill-rule:nonzero;stroke:none"
         d="m 4734.9059,1269.7795 c -0.042,-0.6773 -1.2489,-0.9313 -2.7094,-0.508 -1.4816,0.4022 -2.6245,1.27 -2.6034,1.9896 0.021,0.6774 1.2488,0.9314 2.7093,0.508 1.5028,-0.4233 2.6458,-1.3123 2.6035,-1.9896 z"
         id="path30422"
         inkscape:connector-curvature="0" />
      <path
         style="fill:#3f9494;fill-opacity:1;fill-rule:nonzero;stroke:none"
         d="m 4709.6119,1280.7649 c -0.064,-0.9313 -1.8838,-1.2065 -4.1274,-0.6773 -2.2225,0.5291 -3.9793,1.7568 -3.9158,2.6458 0.064,0.9313 1.8838,1.2277 4.1274,0.6773 2.2013,-0.5291 3.937,-1.7145 3.9158,-2.6458 z"
         id="path30424"
         inkscape:connector-curvature="0" />
      <path
         style="fill:#579fb4;fill-opacity:1;fill-rule:nonzero;stroke:none"
         d="m 4713.8452,1274.9229 c -0.021,-0.7619 -1.5451,-1.0159 -3.4078,-0.5714 -1.8415,0.4656 -3.3019,1.4393 -3.2596,2.2013 0.042,0.762 1.5663,1.016 3.429,0.5715 1.8203,-0.4869 3.2596,-1.4394 3.2384,-2.2014 z"
         id="path30426"
         inkscape:connector-curvature="0" />
      <path
         style="fill:#579fb4;fill-opacity:1;fill-rule:nonzero;stroke:none"
         d="m 4721.0207,1271.3035 c -0.042,-0.635 -1.3123,-0.8467 -2.8575,-0.4657 -1.5451,0.3598 -2.7728,1.2065 -2.7305,1.8203 0.021,0.6562 1.2912,0.8467 2.8364,0.4869 1.5239,-0.3599 2.7728,-1.1854 2.7516,-1.8415 z"
         id="path30428"
         inkscape:connector-curvature="0" />
      <path
         style="fill:#579fb4;fill-opacity:1;fill-rule:nonzero;stroke:none"
         d="m 4727.8151,1269.3985 c -0.021,-0.4868 -0.9948,-0.6562 -2.1801,-0.381 -1.143,0.2963 -2.0743,0.9102 -2.0532,1.4182 0.021,0.4868 0.9949,0.6561 2.1802,0.3598 1.143,-0.2752 2.0743,-0.9313 2.0531,-1.397 z"
         id="path30430"
         inkscape:connector-curvature="0" />
      <path
         style="fill:#316f8d;fill-opacity:1;fill-rule:nonzero;stroke:none"
         d="m 4749.405,1285.1887 0.6139,0 c 0.889,0 1.9896,-0.5291 1.9896,-2.3283 0,-1.524 -0.8466,-2.2013 -1.9473,-2.2013 -0.7408,0 -0.9948,0.1905 -0.9948,0.9525 l 0,5.9901 c 0,1.2277 0.2328,1.2277 1.5028,1.3123 l 0,0.4657 -4.2968,0 0,-0.4657 c 1.1641,-0.085 1.3758,-0.1058 1.3758,-1.3546 l 0,-5.6303 c 0,-1.2277 -0.127,-1.3124 -1.1853,-1.3547 l 0,-0.4657 3.81,0 c 2.0743,0 3.302,0.8255 3.302,2.6882 0,1.9685 -1.6934,2.9845 -3.2174,2.9845 -0.2751,0 -0.9525,-0.085 -0.9525,-0.127 l 0,-0.4657 z"
         id="path30432"
         inkscape:connector-curvature="0" />
      <path
         style="fill:#316f8d;fill-opacity:1;fill-rule:nonzero;stroke:none"
         d="m 4759.0568,1289.5702 c -0.6136,0 -0.9946,-0.4233 -1.1216,-0.8255 -0.4868,0.381 -1.1007,0.8255 -1.6087,0.8255 -1.0795,0 -1.9473,-0.6985 -1.9473,-1.6298 0,-0.635 0.5927,-1.3547 1.3758,-1.6087 l 2.1379,-0.6561 0,-0.4234 c 0,-0.9525 -0.2117,-1.6721 -0.9314,-1.6721 -0.9313,0 -1.6933,1.397 -1.6933,1.397 l -0.635,-0.9737 c 0,0 0.9525,-1.016 2.667,-1.016 1.3335,0 1.9047,0.9102 1.9047,2.1167 l 0,2.6669 c 0,0.6139 0.1905,0.8679 0.381,0.8679 0.1482,0 0.2117,-0.021 0.4234,-0.1694 l 0.1693,0.4234 -1.1218,0.6773 z m -1.1639,-1.3335 0,-1.9897 -1.143,0.3599 c -0.4869,0.1693 -0.9102,0.5291 -0.9102,1.016 0,0.7408 0.6138,1.0795 1.016,1.0795 0.4022,0 1.0372,-0.4657 1.0372,-0.4657 z"
         id="path30434"
         inkscape:connector-curvature="0" />
      <path
         style="fill:#316f8d;fill-opacity:1;fill-rule:nonzero;stroke:none"
         d="m 4762.9726,1283.9611 c 0.4657,-0.5504 1.0583,-0.9314 1.651,-0.9314 0.5292,0 1.016,0.4657 1.016,0.4657 l -0.4868,0.9313 c 0,0 -0.6774,-0.4233 -1.016,-0.4233 -0.3175,0 -0.7832,0.254 -1.1642,0.889 l 0,3.0056 c 0,0.9102 0.2328,0.9949 1.6087,1.1007 l 0,0.4233 -3.9794,0 0,-0.381 c 0.889,-0.085 1.0795,-0.1693 1.0795,-1.1006 l 0,-3.175 c 0,-0.889 -0.085,-0.9737 -0.9948,-1.0372 l 0,-0.4021 2.286,-0.2752 0,0.9102 z"
         id="path30436"
         inkscape:connector-curvature="0" />
      <path
         style="fill:#316f8d;fill-opacity:1;fill-rule:nonzero;stroke:none"
         d="m 4771.0159,1289.4009 -2.3918,-2.7729 c -0.1058,-0.127 -0.2328,-0.2751 -0.2752,-0.2751 l -0.1481,0 0,1.524 c 0,0.9313 0.1058,1.016 1.016,1.1006 l 0,0.4022 -3.3867,0 0,-0.4022 c 0.9525,-0.085 1.0795,-0.1905 1.0795,-1.1006 l 0,-6.1807 c 0,-0.9101 -0.064,-0.9948 -0.9948,-1.0371 l 0,-0.4022 2.286,-0.2752 0,5.9479 c 0.2328,-0.063 0.2751,-0.063 0.2751,-0.063 l 1.4817,-1.6934 c 0.085,-0.085 0.1058,-0.1905 0.1058,-0.2751 0,-0.1694 -0.2328,-0.2752 -0.6561,-0.3175 l 0,-0.381 3.0903,0 0,0.2751 c -1.4182,0.2329 -1.6722,0.5927 -3.048,2.2014 0.3598,0.5291 1.7145,2.1166 2.159,2.6034 0.508,0.5292 0.889,0.6985 1.4393,0.7197 l 0,0.4233 -2.032,0 z"
         id="path30438"
         inkscape:connector-curvature="0" />
      <path
         style="fill:#316f8d;fill-opacity:1;fill-rule:nonzero;stroke:none"
         d="m 4783.1233,1283.6224 c -0.6985,0.1058 -0.8467,0.2752 -1.1219,1.0583 -0.4233,1.143 -1.0795,2.9633 -1.7145,4.9107 l -0.5926,0 -1.4817,-4.191 -0.1058,0 c -0.508,1.3546 -0.9314,2.667 -1.4605,4.191 l -0.5927,0 c -0.508,-1.6934 -1.0583,-3.3232 -1.651,-5.0377 -0.254,-0.7408 -0.3598,-0.8466 -1.0583,-0.9313 l 0,-0.4022 3.1326,0 0,0.4022 c -0.5926,0.085 -0.8255,0.1693 -0.8255,0.381 0,0.085 0.021,0.1693 1.0372,3.5983 l 0.085,0 c 0,0 1.1006,-3.3655 1.397,-4.1275 l 0.6773,0 c 0.1905,0.5715 1.3547,4.1698 1.3547,4.1698 l 0.085,0 0.9314,-3.1326 c 0.042,-0.1905 0.085,-0.3387 0.085,-0.4657 0,-0.2963 -0.2328,-0.381 -0.9101,-0.4656 l 0,-0.381 2.7728,0 0,0.4233 z"
         id="path30440"
         inkscape:connector-curvature="0" />
      <path
         style="fill:#316f8d;fill-opacity:1;fill-rule:nonzero;stroke:none"
         d="m 4788.4573,1289.5702 c -0.6139,0 -0.9737,-0.4233 -1.1219,-0.8255 -0.4868,0.381 -1.1006,0.8255 -1.6086,0.8255 -1.0795,0 -1.9474,-0.6985 -1.9474,-1.6298 0,-0.635 0.5927,-1.3547 1.3759,-1.6087 l 2.159,-0.6561 0,-0.4234 c 0,-0.9525 -0.2329,-1.6721 -0.9314,-1.6721 -0.9313,0 -1.6933,1.397 -1.6933,1.397 l -0.6562,-0.9737 c 0,0 0.9525,-1.016 2.6882,-1.016 1.3123,0 1.8838,0.9102 1.8838,2.1167 l 0,2.6669 c 0,0.6139 0.1905,0.8679 0.4022,0.8679 0.127,0 0.1905,-0.021 0.4233,-0.1694 l 0.1694,0.4234 -1.143,0.6773 z m -1.143,-1.3335 0,-1.9897 -1.1642,0.3599 c -0.4868,0.1693 -0.9102,0.5291 -0.9102,1.016 0,0.7408 0.635,1.0795 1.016,1.0795 0.381,0 1.0584,-0.4657 1.0584,-0.4657 z"
         id="path30442"
         inkscape:connector-curvature="0" />
      <path
         style="fill:#316f8d;fill-opacity:1;fill-rule:nonzero;stroke:none"
         d="m 4796.7969,1283.6224 c -0.9313,0.127 -1.0583,0.3598 -1.9261,2.6246 -0.2752,0.6774 -0.5927,1.5452 -1.0795,2.6459 -1.27,3.1114 -1.651,3.5348 -1.651,3.5348 l -0.889,-0.762 c 0,0 0.7196,-0.508 1.5028,-2.032 0.021,-0.063 0.021,-0.1482 0.021,-0.254 0,-0.085 -0.021,-0.2328 -0.042,-0.381 -0.5715,-1.5663 -1.2276,-3.3231 -1.6086,-4.318 -0.3175,-0.762 -0.4657,-0.9525 -1.2489,-1.0583 l 0,-0.4022 3.0692,0 0,0.4022 c -0.4445,0.085 -0.6138,0.1693 -0.6138,0.3598 0,0.085 0.9525,3.0268 1.1853,3.7465 l 0.1058,0 0.5927,-1.5663 c 0.064,-0.1693 0.5927,-1.5663 0.5927,-2.1167 0,-0.254 -0.1905,-0.381 -0.7832,-0.4656 l 0,-0.381 2.7305,0 0,0.4233 z"
         id="path30444"
         inkscape:connector-curvature="0" />
      <path
         style="fill:#316f8d;fill-opacity:1;fill-rule:nonzero;stroke:none"
         d="m 4803.1678,1285.1887 0.6138,0 c 0.889,0 1.9897,-0.5291 1.9897,-2.3283 0,-1.524 -0.8467,-2.2013 -1.9473,-2.2013 -0.7409,0 -0.9949,0.1905 -0.9949,0.9525 l 0,5.9901 c 0,1.2277 0.2329,1.2277 1.5029,1.3123 l 0,0.4657 -4.2968,0 0,-0.4657 c 1.1641,-0.085 1.3758,-0.1058 1.3758,-1.3546 l 0,-5.6303 c 0,-1.2277 -0.127,-1.3124 -1.1853,-1.3547 l 0,-0.4657 3.8099,0 c 2.0744,0 3.302,0.8255 3.302,2.6882 0,1.9685 -1.6933,2.9845 -3.2173,2.9845 -0.2752,0 -0.9525,-0.085 -0.9525,-0.127 l 0,-0.4657 z"
         id="path30446"
         inkscape:connector-curvature="0" />
      <path
         style="fill:#316f8d;fill-opacity:1;fill-rule:nonzero;stroke:none"
         d="m 4812.841,1289.5702 c -0.6139,0 -0.9737,-0.4233 -1.1219,-0.8255 -0.4868,0.381 -1.1006,0.8255 -1.6086,0.8255 -1.0795,0 -1.9474,-0.6985 -1.9474,-1.6298 0,-0.635 0.5927,-1.3547 1.3759,-1.6087 l 2.159,-0.6561 0,-0.4234 c 0,-0.9525 -0.2329,-1.6721 -0.9314,-1.6721 -0.9313,0 -1.6933,1.397 -1.6933,1.397 l -0.6562,-0.9737 c 0,0 0.9525,-1.016 2.6882,-1.016 1.3123,0 1.8838,0.9102 1.8838,2.1167 l 0,2.6669 c 0,0.6139 0.1905,0.8679 0.4022,0.8679 0.127,0 0.1905,-0.021 0.4233,-0.1694 l 0.1694,0.4234 -1.143,0.6773 z m -1.1854,-1.3335 0,-1.9897 -1.143,0.3599 c -0.4868,0.1693 -0.9101,0.5291 -0.9101,1.016 0,0.7408 0.6138,1.0795 1.016,1.0795 0.4021,0 1.0371,-0.4657 1.0371,-0.4657 z"
         id="path30448"
         inkscape:connector-curvature="0" />
      <path
         style="fill:#316f8d;fill-opacity:1;fill-rule:nonzero;stroke:none"
         d="m 4818.3866,1289.4009 0,-0.4022 c 0.8467,-0.085 0.889,-0.1905 0.889,-1.1853 l 0,-2.3707 c 0,-0.9525 -0.2963,-1.6086 -1.143,-1.6086 -0.508,0 -0.9736,0.3386 -1.397,0.7408 l 0,3.302 c 0,0.9525 0.085,1.016 0.8255,1.1006 l 0,0.4022 -3.1961,0 0,-0.4022 c 0.9313,-0.085 1.0795,-0.2751 1.0795,-1.1006 l 0,-3.1538 c 0,-0.9737 -0.1059,-0.9949 -0.9949,-1.0584 l 0,-0.381 2.286,-0.2963 0,0.9102 c 0.5927,-0.4445 1.2489,-0.9102 2.032,-0.9102 1.0584,0 1.8204,0.8043 1.8204,2.1802 l 0,2.7093 c 0,0.9525 0.085,1.016 0.889,1.1006 l 0,0.4022 -3.0904,0 z"
         id="path30450"
         inkscape:connector-curvature="0" />
      <path
         style="fill:#316f8d;fill-opacity:1;fill-rule:nonzero;stroke:none"
         d="m 4824.9906,1289.4009 c -0.254,0.1058 -0.508,0.1693 -0.635,0.1693 -0.9313,0 -1.4605,-0.5927 -1.4605,-1.7145 l 0,-4.1063 -0.762,0 0,-0.4657 c 0,0 0.6774,0 1.0372,-0.4656 0.2963,-0.3599 0.5503,-1.2277 0.5503,-1.2277 l 0.508,0 0,1.5663 1.5664,0 0,0.5927 -1.5664,0 0,3.5983 c 0,1.1218 0.4234,1.3123 0.7197,1.3123 0.3175,0 0.7197,-0.1693 0.9313,-0.2963 l 0.1694,0.4657 -1.0584,0.5715 z"
         id="path30452"
         inkscape:connector-curvature="0" />
      <path
         style="fill:#316f8d;fill-opacity:1;fill-rule:nonzero;stroke:none"
         d="m 4831.3618,1289.5702 c -0.6138,0 -0.9948,-0.4233 -1.1218,-0.8255 -0.4869,0.381 -1.1007,0.8255 -1.6087,0.8255 -1.0795,0 -1.9473,-0.6985 -1.9473,-1.6298 0,-0.635 0.5926,-1.3547 1.3758,-1.6087 l 2.1378,-0.6561 0,-0.4234 c 0,-0.9525 -0.2116,-1.6721 -0.9313,-1.6721 -0.9313,0 -1.6933,1.397 -1.6933,1.397 l -0.635,-0.9737 c 0,0 0.9525,-1.016 2.667,-1.016 1.3335,0 1.905,0.9102 1.905,2.1167 l 0,2.6669 c 0,0.6139 0.1905,0.8679 0.381,0.8679 0.1481,0 0.2116,-0.021 0.4233,-0.1694 l 0.1693,0.4234 -1.1218,0.6773 z m -1.1642,-1.3335 0,-1.9897 -1.143,0.3599 c -0.4868,0.1693 -0.9101,0.5291 -0.9101,1.016 0,0.7408 0.6138,1.0795 1.016,1.0795 0.4021,0 1.0371,-0.4657 1.0371,-0.4657 z"
         id="path30454"
         inkscape:connector-curvature="0" />
      <path
         style="fill:#316f8d;fill-opacity:1;fill-rule:nonzero;stroke:none"
         d="m 4832.907,1289.4009 0,-0.4022 c 0.9313,-0.085 1.0795,-0.254 1.0795,-1.1007 l 0,-3.1538 c 0,-0.9525 -0.1059,-0.9948 -0.9949,-1.0371 l 0,-0.4022 2.2858,-0.2752 0,4.8683 c 0,0.9737 0.085,1.016 1.016,1.1007 l 0,0.4022 -3.3864,0 z m 1.6086,-9.4192 c 0.4654,0 0.7618,0.2964 0.7618,0.762 0,0.381 -0.2964,0.762 -0.7829,0.762 -0.4234,0 -0.762,-0.381 -0.762,-0.762 0.021,-0.4233 0.3598,-0.762 0.7831,-0.762 z"
         id="path30456"
         inkscape:connector-curvature="0" />
    </g>
  </g>
</svg>
